<svg width="594" height="397" viewBox="0 0 594 397" fill="none" xmlns="http://www.w3.org/2000/svg">
<g clip-path="url(#clip0_125_8650)">
<mask id="mask0_125_8650" style="mask-type:luminance" maskUnits="userSpaceOnUse" x="0" y="0" width="594" height="397">
<path d="M594 0H0V397H594V0Z" fill="white"/>
</mask>
<g mask="url(#mask0_125_8650)">
<path d="M130.511 384.025C131.546 383.336 134.993 384.028 135.681 385.063C136.37 386.098 136.024 387.821 135.332 391.268C132.92 389.887 131.196 389.541 130.508 388.506C128.096 387.125 129.477 384.713 130.511 384.025Z" fill="#0D4286" fill-opacity="0.3"/>
<path d="M75 397.079C75.347 395.356 76.381 394.667 76.381 394.667C77.416 393.979 78.105 395.013 78.793 396.048L78.447 397.771C76.724 397.425 76.724 397.425 75 397.079Z" fill="#0D4286" fill-opacity="0.3"/>
<path d="M249.794 374.813C245.655 377.568 241.52 375.841 238.766 371.702C236.011 367.563 237.738 363.427 241.877 360.673C244.981 358.607 250.151 359.646 252.906 363.785C253.937 367.577 252.899 372.747 249.794 374.813Z" fill="#0D4286" fill-opacity="0.3"/>
<path d="M231.573 313.781C230.196 311.711 231.577 309.299 233.646 307.922C235.716 306.545 238.128 307.926 239.505 309.995C240.882 312.065 239.501 314.477 237.432 315.854C236.397 316.542 232.95 315.85 231.573 313.781Z" fill="#0D4286" fill-opacity="0.3"/>
<path d="M225.071 256.899L225.417 255.175C226.452 254.487 226.452 254.487 228.175 254.833C228.175 254.833 228.864 255.867 229.899 255.179C228.864 255.867 229.553 256.902 228.518 257.591C226.794 257.245 226.106 256.21 225.071 256.899Z" fill="#0D4286" fill-opacity="0.3"/>
<path d="M122.628 329.552L124.352 329.898C125.04 330.933 124.005 331.621 124.694 332.656C122.971 332.31 122.282 331.275 122.282 331.275C121.593 330.241 122.628 329.552 122.628 329.552Z" fill="#0D4286" fill-opacity="0.3"/>
<path d="M183.259 380.276C181.194 377.172 182.921 373.037 185.679 372.694C188.783 370.628 191.883 373.044 193.261 375.113C195.326 378.218 192.911 381.318 190.841 382.696C188.772 384.073 185.325 383.38 183.259 380.276Z" fill="#0D4286" fill-opacity="0.3"/>
<path d="M177.102 321.668C176.413 320.634 177.448 319.945 177.105 317.187C179.517 318.568 181.241 318.914 181.241 318.914C181.929 319.949 181.583 321.672 180.548 322.361C179.168 324.773 178.479 323.738 177.102 321.668Z" fill="#0D4286" fill-opacity="0.3"/>
<path d="M309.447 354.523C312.202 358.662 310.129 364.521 305.99 367.275C301.851 370.03 295.992 367.957 293.238 363.818C290.483 359.679 292.556 353.82 296.695 351.066C301.869 347.623 307.728 349.696 309.447 354.523Z" fill="#0D4286" fill-opacity="0.3"/>
<path d="M295.353 308.664C292.249 310.73 288.113 309.003 286.047 305.898C283.982 302.794 285.709 298.659 288.813 296.593C291.917 294.527 296.052 296.254 298.118 299.358C299.149 303.151 298.457 306.598 295.353 308.664Z" fill="#0D4286" fill-opacity="0.3"/>
<path d="M397.063 288.751C394.308 284.612 396.381 278.753 399.486 276.688C403.625 273.933 409.483 276.006 412.238 280.145C414.992 284.284 412.919 290.143 409.815 292.209C404.987 293.928 399.817 292.89 397.063 288.751Z" fill="#0D4286" fill-opacity="0.3"/>
<path d="M335.398 238.717C334.021 236.648 335.402 234.236 337.471 232.859C339.541 231.481 341.953 232.862 343.33 234.932C344.707 237.001 343.326 239.413 341.257 240.79C339.187 242.168 335.741 241.475 335.398 238.717Z" fill="#0D4286" fill-opacity="0.3"/>
<path d="M423.569 335.312C427.012 340.486 424.592 348.068 418.73 350.476C413.556 353.919 405.974 351.5 402.531 346.326C399.088 341.153 401.508 333.571 407.37 331.162C413.578 327.03 421.16 329.45 423.569 335.312Z" fill="#0D4286" fill-opacity="0.3"/>
<path d="M491.79 379.492C495.922 385.7 493.156 395.005 486.948 399.137C480.739 403.269 471.434 400.504 467.302 394.295C463.171 388.087 465.936 378.781 472.144 374.65C478.353 370.518 487.658 373.283 491.79 379.492Z" fill="#0D4286" fill-opacity="0.3"/>
<path d="M389.871 230.832C388.494 228.763 389.186 225.316 392.291 223.25C394.36 221.873 398.841 221.877 399.872 225.669C401.25 227.739 400.557 231.186 397.453 233.251C395.384 234.629 391.937 233.936 389.871 230.832Z" fill="#0D4286" fill-opacity="0.3"/>
<path d="M550.583 144.779C549.206 142.71 549.552 140.987 551.621 139.609C553.691 138.232 555.414 138.578 556.791 140.648C558.169 142.717 556.788 145.129 555.753 145.818C554.372 148.23 551.96 146.849 550.583 144.779Z" fill="#0D4286" fill-opacity="0.3"/>
<path d="M481.146 325.361C484.589 330.535 482.17 338.117 476.997 341.56C471.823 345.003 463.206 343.272 460.109 336.375C457.701 330.513 459.085 323.619 465.294 319.488C470.121 317.768 477.015 319.153 481.146 325.361Z" fill="#0D4286" fill-opacity="0.3"/>
<path d="M280.578 248.324C280.924 246.6 281.27 244.877 282.305 244.188C283.339 243.5 286.097 243.157 285.751 244.881C286.44 245.915 286.094 247.639 285.059 248.327C284.024 249.016 282.301 248.67 280.578 248.324Z" fill="#0D4286" fill-opacity="0.3"/>
<path d="M378.358 399.739C381.801 404.912 380.07 413.529 373.173 416.626C366.965 420.758 359.383 418.338 355.251 412.13C351.119 405.922 353.539 398.34 360.436 395.243C366.644 391.111 374.226 393.53 378.358 399.739Z" fill="#0D4286" fill-opacity="0.3"/>
<path d="M434.211 389.443C438.343 395.652 434.889 403.923 428.68 408.054C422.472 412.186 414.89 409.767 410.758 403.558C406.626 397.35 409.392 388.044 415.254 385.636C422.497 380.816 431.803 383.581 434.211 389.443Z" fill="#0D4286" fill-opacity="0.3"/>
<path d="M352.583 300.437C349.479 302.503 344.309 301.465 341.555 297.326C338.8 293.187 340.527 289.052 344.666 286.297C348.805 283.543 352.94 285.27 355.695 289.409C357.761 292.513 355.688 298.371 352.583 300.437Z" fill="#0D4286" fill-opacity="0.3"/>
<path d="M367.026 344.572C370.469 349.745 368.396 355.604 363.222 359.047C358.048 362.49 352.19 360.417 348.747 355.243C345.303 350.07 347.377 344.211 352.55 340.768C357.724 337.325 363.583 339.398 367.026 344.572Z" fill="#0D4286" fill-opacity="0.3"/>
<path d="M385.435 172.57C384.746 171.536 385.781 170.847 385.781 170.847C385.781 170.847 387.504 171.193 389.228 171.539C388.193 172.228 387.847 173.951 387.847 173.951C386.124 173.605 384.4 173.259 385.435 172.57Z" fill="#0D4286" fill-opacity="0.3"/>
<path d="M593.545 305.804C597.677 312.012 594.223 320.283 589.049 323.726C582.152 326.823 574.57 324.404 571.127 319.23C568.03 312.333 570.449 304.751 576.312 302.343C581.832 297.176 590.448 298.907 593.545 305.804Z" fill="#0D4286" fill-opacity="0.3"/>
<path d="M469.125 269.159C471.879 273.298 470.495 280.192 465.667 281.911C461.528 284.666 454.635 283.281 452.227 277.419C449.472 273.28 451.545 267.421 456.719 263.978C460.512 262.947 466.37 265.02 469.125 269.159Z" fill="#0D4286" fill-opacity="0.3"/>
<path d="M582.211 250.636C585.654 255.81 583.234 263.392 578.407 265.112C573.233 268.555 566.686 265.447 563.931 261.308C560.488 256.135 562.908 248.552 567.735 246.833C572.909 243.39 578.767 245.463 582.211 250.636Z" fill="#0D4286" fill-opacity="0.3"/>
<path d="M556.74 203.389C553.986 199.25 555.713 195.115 559.852 192.36C563.991 189.606 568.815 192.368 570.88 195.472C572.946 198.576 570.873 204.435 567.769 206.501C563.63 209.255 558.806 206.493 556.74 203.389Z" fill="#0D4286" fill-opacity="0.3"/>
<path d="M495.763 154.387C495.074 153.352 495.767 149.905 496.801 149.217C497.836 148.528 500.594 148.185 500.937 150.944C501.625 151.978 500.244 154.39 499.898 156.114C498.175 155.768 496.452 155.421 495.763 154.387Z" fill="#0D4286" fill-opacity="0.3"/>
<path d="M537 315.064C541.132 321.273 538.712 328.855 532.504 332.986C526.296 337.118 518.025 333.664 515.617 327.802C512.174 322.628 513.904 314.011 520.801 310.914C525.286 306.437 532.868 308.856 537 315.064Z" fill="#0D4286" fill-opacity="0.3"/>
<path d="M455.029 223.299C451.925 225.365 447.79 223.638 446.413 221.569C444.347 218.465 446.074 214.329 449.178 212.263C452.282 210.198 456.417 211.925 458.483 215.029C460.549 218.133 457.099 221.922 455.029 223.299Z" fill="#0D4286" fill-opacity="0.3"/>
<path d="M511.225 215.761C508.121 217.826 502.951 216.788 501.92 212.995C499.854 209.891 500.892 204.721 503.996 202.655C507.101 200.589 512.271 201.628 514.337 204.732C516.402 207.836 515.364 213.006 511.225 215.761Z" fill="#0D4286" fill-opacity="0.3"/>
<path d="M525.669 259.899C529.112 265.072 527.039 270.931 521.865 274.374C516.692 277.817 510.833 275.744 507.39 270.57C503.947 265.397 507.055 258.849 511.194 256.095C516.368 252.652 522.226 254.725 525.669 259.899Z" fill="#0D4286" fill-opacity="0.3"/>
<path d="M440.256 162.96C439.567 161.926 439.913 160.202 440.948 159.514C441.983 158.825 442.671 159.86 444.395 160.206C444.048 161.929 443.702 163.653 442.668 164.341C442.668 164.341 440.944 163.995 440.256 162.96Z" fill="#0D4286" fill-opacity="0.3"/>
<path d="M548.332 370.23C551.429 377.127 549.698 385.744 542.455 390.564C535.558 393.661 526.941 391.93 522.121 384.687C518.335 376.755 520.754 369.173 527.998 364.353C534.895 361.256 544.2 364.022 548.332 370.23Z" fill="#0D4286" fill-opacity="0.3"/>
</g>
</g>
<defs>
<clipPath id="clip0_125_8650">
<rect width="594" height="397" fill="white"/>
</clipPath>
</defs>
</svg>
