<svg width="645" height="378" viewBox="0 0 645 378" fill="none" xmlns="http://www.w3.org/2000/svg">
<g clip-path="url(#clip0_437_8782)">
<path d="M207.976 363.248C212.804 361.529 217.974 362.567 220.729 366.706C223.483 370.845 221.41 376.704 217.271 379.458C213.132 382.213 207.273 380.14 204.519 376.001C201.764 371.862 203.838 366.003 207.976 363.248Z" fill="white" fill-opacity="0.1"/>
<path d="M206.629 320.847C203.525 322.913 199.39 321.186 197.324 318.082C195.258 314.978 196.985 310.842 200.089 308.776C203.193 306.711 207.329 308.438 209.395 311.542C211.46 314.646 210.422 319.816 206.629 320.847Z" fill="white" fill-opacity="0.1"/>
<path d="M191.857 256.025C192.891 255.336 196.338 256.028 197.027 257.063C197.715 258.098 197.369 259.821 196.677 263.268C194.265 261.887 192.542 261.541 191.853 260.506C189.441 259.125 190.822 256.713 191.857 256.025Z" fill="white" fill-opacity="0.1"/>
<path d="M143.539 327C142.162 324.93 143.543 322.518 145.613 321.141C147.682 319.764 150.094 321.144 151.471 323.214C152.848 325.283 151.468 327.695 149.398 329.073C146.64 329.415 144.917 329.069 143.539 327Z" fill="white" fill-opacity="0.1"/>
<path d="M90.4479 332.473C91.4826 331.784 92.1712 332.819 93.2059 332.13C92.8598 333.853 91.8251 334.542 91.8251 334.542C91.8251 334.542 90.1018 334.196 89.4132 333.161C89.067 334.885 89.4131 333.161 90.4479 332.473Z" fill="white" fill-opacity="0.1"/>
<path d="M136.347 269.079C136.693 267.356 137.728 266.667 137.728 266.667C138.762 265.979 139.451 267.013 140.139 268.048L139.793 269.771C138.07 269.425 138.07 269.425 136.347 269.079Z" fill="white" fill-opacity="0.1"/>
<path d="M263.138 351.918C268.312 348.475 274.859 351.582 277.613 355.721C281.056 360.895 278.637 368.477 272.775 370.885C267.601 374.329 260.019 371.909 257.611 366.047C255.891 361.219 257.964 355.361 263.138 351.918Z" fill="white" fill-opacity="0.1"/>
<path d="M311.14 246.813C307.001 249.568 302.865 247.841 300.111 243.702C297.357 239.563 299.083 235.427 303.222 232.673C306.327 230.607 311.497 231.646 314.251 235.785C315.282 239.577 314.244 244.747 311.14 246.813Z" fill="white" fill-opacity="0.1"/>
<path d="M324.55 291.64C327.993 296.814 324.885 303.361 320.746 306.115C315.573 309.558 309.025 306.451 306.271 302.312C302.828 297.138 304.901 291.279 310.075 287.836C315.248 284.393 322.142 285.778 324.55 291.64Z" fill="white" fill-opacity="0.1"/>
<path d="M292.918 185.781C291.541 183.711 292.922 181.299 294.992 179.922C297.061 178.545 299.473 179.926 300.85 181.995C302.227 184.065 300.847 186.477 298.777 187.854C297.742 188.542 294.296 187.85 292.918 185.781Z" fill="white" fill-opacity="0.1"/>
<path d="M382.127 281.69C385.57 286.864 383.151 294.446 377.977 297.889C372.803 301.332 365.221 298.913 361.778 293.739C358.335 288.565 360.754 280.983 365.928 277.54C372.136 273.408 377.995 275.482 382.127 281.69Z" fill="white" fill-opacity="0.1"/>
<path d="M286.417 128.899L286.764 127.175C287.798 126.487 287.798 126.487 289.522 126.833C289.522 126.833 290.21 127.867 291.245 127.179C290.21 127.867 290.899 128.902 289.864 129.591C288.141 129.245 287.452 128.21 286.417 128.899Z" fill="white" fill-opacity="0.1"/>
<path d="M393.46 336.856C396.557 343.753 394.137 351.335 387.929 355.466C381.72 359.598 373.45 356.144 369.318 349.936C365.186 343.727 367.952 334.422 374.849 331.325C381.057 327.193 389.328 330.647 393.46 336.856Z" fill="white" fill-opacity="0.1"/>
<path d="M266.974 301.591C269.729 305.73 267.655 311.588 262.828 313.308C258.689 316.063 252.83 313.99 250.764 310.885C248.01 306.746 250.083 300.888 254.222 298.133C259.396 294.69 265.254 296.763 266.974 301.591Z" fill="white" fill-opacity="0.1"/>
<path d="M183.974 201.552L185.697 201.898C186.386 202.933 185.351 203.621 186.039 204.656C184.316 204.31 183.628 203.275 183.628 203.275C182.939 202.241 183.974 201.552 183.974 201.552Z" fill="white" fill-opacity="0.1"/>
<path d="M244.606 252.276C242.54 249.172 244.267 245.037 247.025 244.694C250.129 242.628 253.23 245.044 254.607 247.113C256.673 250.218 254.257 253.318 252.188 254.696C250.118 256.073 246.672 255.38 244.606 252.276Z" fill="white" fill-opacity="0.1"/>
<path d="M238.448 193.668C237.759 192.634 238.794 191.945 238.452 189.187C240.864 190.568 242.587 190.914 242.587 190.914C243.276 191.949 242.929 193.672 241.895 194.361C240.514 196.773 239.825 195.738 238.448 193.668Z" fill="white" fill-opacity="0.1"/>
<path d="M335.88 346.804C340.012 353.012 337.593 360.594 330.696 363.691C324.487 367.823 316.905 365.404 313.808 358.507C310.365 353.333 312.096 344.716 318.993 341.619C324.167 338.176 332.783 339.907 335.88 346.804Z" fill="white" fill-opacity="0.1"/>
<path d="M370.794 226.523C373.548 230.662 371.475 236.521 367.336 239.275C363.197 242.03 357.339 239.957 354.584 235.818C351.83 231.679 353.903 225.82 358.042 223.066C363.215 219.623 369.074 221.696 370.794 226.523Z" fill="white" fill-opacity="0.1"/>
<path d="M356.7 180.664C353.596 182.73 349.46 181.003 347.394 177.898C345.329 174.794 347.056 170.659 350.16 168.593C353.264 166.527 357.399 168.254 359.465 171.358C360.496 175.151 359.804 178.598 356.7 180.664Z" fill="white" fill-opacity="0.1"/>
<path d="M458.409 160.751C455.655 156.612 457.728 150.753 460.832 148.688C464.971 145.933 470.83 148.006 473.584 152.145C476.338 156.284 474.265 162.143 471.161 164.209C466.334 165.928 461.164 164.89 458.409 160.751Z" fill="white" fill-opacity="0.1"/>
<path d="M396.745 110.717C395.367 108.648 396.748 106.236 398.818 104.859C400.887 103.481 403.299 104.862 404.676 106.932C406.054 109.001 404.673 111.413 402.603 112.79C400.534 114.168 397.087 113.475 396.745 110.717Z" fill="white" fill-opacity="0.1"/>
<path d="M484.916 207.312C488.359 212.486 485.94 220.068 480.077 222.476C474.904 225.919 467.322 223.5 463.879 218.326C460.436 213.153 462.855 205.571 468.717 203.162C474.925 199.03 482.508 201.45 484.916 207.312Z" fill="white" fill-opacity="0.1"/>
<path d="M553.136 251.492C557.268 257.7 554.503 267.005 548.294 271.137C542.086 275.269 532.78 272.504 528.649 266.295C524.517 260.087 527.282 250.781 533.491 246.65C539.699 242.518 549.004 245.283 553.136 251.492Z" fill="white" fill-opacity="0.1"/>
<path d="M451.219 102.832C449.841 100.763 450.534 97.3161 453.638 95.2502C455.707 93.873 460.189 93.8767 461.22 97.6695C462.597 99.739 461.905 103.186 458.8 105.251C456.731 106.629 453.284 105.936 451.219 102.832Z" fill="white" fill-opacity="0.1"/>
<path d="M611.929 16.7793C610.552 14.7099 610.898 12.9866 612.968 11.6093C615.037 10.2321 616.76 10.5782 618.138 12.6477C619.515 14.7171 618.134 17.1291 617.099 17.8177C615.718 20.2297 613.307 18.8488 611.929 16.7793Z" fill="white" fill-opacity="0.1"/>
<path d="M542.492 197.361C545.935 202.535 543.516 210.117 538.342 213.56C533.168 217.003 524.552 215.272 521.455 208.375C519.046 202.513 520.431 195.619 526.639 191.488C531.467 189.768 538.36 191.153 542.492 197.361Z" fill="white" fill-opacity="0.1"/>
<path d="M341.923 120.324C342.269 118.6 342.615 116.877 343.65 116.188C344.685 115.5 347.443 115.157 347.097 116.881C347.785 117.915 347.439 119.639 346.404 120.327C345.37 121.016 343.646 120.67 341.923 120.324Z" fill="white" fill-opacity="0.1"/>
<path d="M439.704 271.739C443.147 276.912 441.417 285.529 434.52 288.626C428.311 292.758 420.729 290.338 416.597 284.13C412.466 277.922 414.885 270.34 421.782 267.243C427.99 263.111 435.572 265.53 439.704 271.739Z" fill="white" fill-opacity="0.1"/>
<path d="M495.556 261.443C499.688 267.652 496.234 275.923 490.026 280.054C483.817 284.186 476.235 281.767 472.103 275.558C467.972 269.35 470.737 260.044 476.599 257.636C483.843 252.816 493.148 255.581 495.556 261.443Z" fill="white" fill-opacity="0.1"/>
<path d="M413.931 172.437C410.826 174.503 405.656 173.465 402.902 169.326C400.147 165.187 401.874 161.052 406.013 158.297C410.152 155.543 414.288 157.27 417.042 161.409C419.108 164.513 417.035 170.371 413.931 172.437Z" fill="white" fill-opacity="0.1"/>
<path d="M428.372 216.572C431.815 221.745 429.742 227.604 424.568 231.047C419.395 234.49 413.536 232.417 410.093 227.243C406.65 222.07 408.723 216.211 413.897 212.768C419.07 209.325 424.929 211.398 428.372 216.572Z" fill="white" fill-opacity="0.1"/>
<path d="M446.78 44.5704C446.092 43.5356 447.126 42.847 447.126 42.847C447.126 42.847 448.85 43.1931 450.573 43.5392C449.538 44.2278 449.192 45.9512 449.192 45.9512C447.469 45.6051 445.746 45.259 446.78 44.5704Z" fill="white" fill-opacity="0.1"/>
<path d="M654.892 177.804C659.023 184.012 655.569 192.283 650.396 195.726C643.499 198.823 635.916 196.404 632.473 191.23C629.376 184.333 631.796 176.751 637.658 174.343C643.178 169.176 651.795 170.907 654.892 177.804Z" fill="white" fill-opacity="0.1"/>
<path d="M530.471 141.159C533.226 145.298 531.841 152.192 527.013 153.911C522.875 156.666 515.981 155.281 513.573 149.419C510.818 145.28 512.891 139.421 518.065 135.978C521.858 134.947 527.717 137.02 530.471 141.159Z" fill="white" fill-opacity="0.1"/>
<path d="M643.557 122.636C647 127.81 644.581 135.392 639.753 137.112C634.579 140.555 628.032 137.447 625.278 133.308C621.834 128.135 624.254 120.552 629.081 118.833C634.255 115.39 640.114 117.463 643.557 122.636Z" fill="white" fill-opacity="0.1"/>
<path d="M618.085 75.3893C615.331 71.2503 617.058 67.1149 621.197 64.3605C625.336 61.606 630.16 64.3678 632.226 67.472C634.292 70.5762 632.219 76.4349 629.114 78.5007C624.975 81.2552 620.151 78.4935 618.085 75.3893Z" fill="white" fill-opacity="0.1"/>
<path d="M557.109 26.3867C556.421 25.3519 557.113 21.9052 558.148 21.2166C559.182 20.528 561.941 20.1855 562.283 22.9436C562.972 23.9783 561.591 26.3903 561.245 28.1136C559.521 27.7675 557.798 27.4214 557.109 26.3867Z" fill="white" fill-opacity="0.1"/>
<path d="M598.346 187.064C602.478 193.273 600.059 200.855 593.85 204.986C587.642 209.118 579.371 205.664 576.963 199.802C573.52 194.628 575.25 186.011 582.147 182.914C586.633 178.437 594.215 180.856 598.346 187.064Z" fill="white" fill-opacity="0.1"/>
<path d="M516.376 95.2994C513.271 97.3652 509.136 95.6383 507.759 93.5688C505.693 90.4646 507.42 86.3293 510.524 84.2634C513.628 82.1976 517.764 83.9245 519.83 87.0288C521.895 90.133 518.445 93.9222 516.376 95.2994Z" fill="white" fill-opacity="0.1"/>
<path d="M572.571 87.7605C569.467 89.8264 564.297 88.788 563.266 84.9952C561.2 81.891 562.238 76.7209 565.343 74.6551C568.447 72.5892 573.617 73.6276 575.683 76.7318C577.749 79.836 576.71 85.0061 572.571 87.7605Z" fill="white" fill-opacity="0.1"/>
<path d="M587.016 131.899C590.46 137.072 588.386 142.931 583.213 146.374C578.039 149.817 572.18 147.744 568.737 142.57C565.294 137.397 568.402 130.849 572.541 128.095C577.715 124.652 583.573 126.725 587.016 131.899Z" fill="white" fill-opacity="0.1"/>
<path d="M501.601 34.9604C500.912 33.9256 501.259 32.2022 502.293 31.5136C503.328 30.825 504.017 31.8598 505.74 32.2059C505.394 33.9293 505.048 35.6526 504.013 36.3412C504.013 36.3412 502.29 35.9951 501.601 34.9604Z" fill="white" fill-opacity="0.1"/>
<path d="M449.311 326.557C454.131 333.8 451.366 343.105 444.469 346.202C438.261 350.334 428.955 347.569 424.135 340.326C421.038 333.429 422.769 324.812 429.666 321.715C437.597 317.929 446.214 319.66 449.311 326.557Z" fill="white" fill-opacity="0.1"/>
<path d="M518.222 371.773C522.696 380.74 519.93 390.045 511.999 393.83C504.067 397.616 493.727 395.539 488.906 388.296C485.121 380.364 487.198 370.024 495.475 364.515C503.407 360.73 513.401 364.53 518.222 371.773Z" fill="white" fill-opacity="0.1"/>
<path d="M506.889 316.607C511.709 323.85 508.944 333.156 501.701 337.976C494.458 342.796 485.152 340.031 481.367 332.099C477.581 324.168 479.312 315.551 487.243 311.765C493.452 307.634 502.757 310.399 506.889 316.607Z" fill="white" fill-opacity="0.1"/>
<path d="M461.33 382.758C465.116 390.69 462.35 399.995 455.107 404.816C447.175 408.601 437.87 405.836 433.05 398.593C429.264 390.661 432.029 381.355 439.273 376.535C447.551 371.026 456.856 373.792 461.33 382.758Z" fill="white" fill-opacity="0.1"/>
<path d="M404.789 392.021C408.574 399.952 406.844 408.569 398.912 412.355C391.669 417.175 382.363 414.41 378.578 406.478C374.792 398.546 376.523 389.93 384.455 386.144C391.698 381.324 399.968 384.778 404.789 392.021Z" fill="white" fill-opacity="0.1"/>
<path d="M621.009 297.395C624.794 305.327 622.718 315.667 614.786 319.453C607.543 324.273 597.203 322.196 592.729 313.23C587.908 305.987 589.985 295.647 598.263 290.138C606.195 286.352 616.189 290.152 621.009 297.395Z" fill="white" fill-opacity="0.1"/>
<path d="M676.862 287.098C681.683 294.341 678.571 305.37 671.328 310.19C663.396 313.976 653.056 311.899 649.271 303.967C643.762 295.689 647.562 285.695 654.805 280.875C662.737 277.089 672.042 279.855 676.862 287.098Z" fill="white" fill-opacity="0.1"/>
<path d="M666.22 232.969C671.041 240.213 668.275 249.518 660.343 253.304C653.1 258.124 643.795 255.359 640.009 247.427C635.189 240.184 637.954 230.878 645.886 227.093C652.095 222.961 661.4 225.726 666.22 232.969Z" fill="white" fill-opacity="0.1"/>
<path d="M609.677 242.23C612.774 249.127 611.044 257.744 603.8 262.564C596.903 265.661 588.287 263.93 583.466 256.687C579.681 248.755 582.1 241.173 589.343 236.353C596.24 233.256 605.545 236.022 609.677 242.23Z" fill="white" fill-opacity="0.1"/>
<path d="M563.43 307.345C568.25 314.588 565.485 323.893 558.242 328.713C550.999 333.534 539.97 330.422 536.184 322.491C532.399 314.559 535.164 305.253 542.407 300.433C549.304 297.336 558.61 300.101 563.43 307.345Z" fill="white" fill-opacity="0.1"/>
<path d="M160.038 387.686C156.934 389.752 152.798 388.025 150.733 384.921C148.667 381.817 149.705 376.647 152.809 374.581C155.914 372.515 161.084 373.553 163.838 377.692C164.869 381.485 163.142 385.62 160.038 387.686Z" fill="white" fill-opacity="0.1"/>
<path d="M550.984 355.942C559.261 350.433 570.29 353.545 574.764 362.511C579.239 371.478 577.162 381.818 568.195 386.292C559.229 390.766 549.923 388.001 544.414 379.723C539.594 372.48 542.706 361.451 550.984 355.942Z" fill="white" fill-opacity="0.1"/>
<path d="M606.835 345.645C615.802 341.171 626.142 343.248 630.616 352.215C635.09 361.181 633.013 371.521 624.047 375.995C615.08 380.47 604.052 377.358 599.578 368.392C595.446 362.183 598.557 351.154 606.835 345.645Z" fill="white" fill-opacity="0.1"/>
</g>
<defs>
<clipPath id="clip0_437_8782">
<rect width="645" height="378" fill="white"/>
</clipPath>
</defs>
</svg>
