<svg width="645" height="378" viewBox="0 0 645 378" fill="none" xmlns="http://www.w3.org/2000/svg">
<g clip-path="url(#clip0_437_8577)">
<path d="M122.976 382.248C127.804 380.529 132.974 381.567 135.729 385.706C138.483 389.845 136.41 395.704 132.271 398.458C128.132 401.213 122.273 399.14 119.519 395.001C116.764 390.862 118.838 385.003 122.976 382.248Z" fill="#0D4286" fill-opacity="0.3"/>
<path d="M121.629 339.847C118.525 341.913 114.39 340.186 112.324 337.082C110.258 333.978 111.985 329.842 115.089 327.776C118.193 325.711 122.329 327.438 124.395 330.542C126.46 333.646 125.422 338.816 121.629 339.847Z" fill="#0D4286" fill-opacity="0.3"/>
<path d="M106.857 275.024C107.891 274.335 111.338 275.028 112.027 276.062C112.715 277.097 112.369 278.821 111.677 282.267C109.265 280.886 107.542 280.54 106.853 279.506C104.441 278.125 105.822 275.713 106.857 275.024Z" fill="#0D4286" fill-opacity="0.3"/>
<path d="M58.5395 346C57.1622 343.93 58.5431 341.518 60.6126 340.141C62.682 338.764 65.094 340.144 66.4713 342.214C67.8485 344.283 66.4676 346.695 64.3981 348.073C61.6401 348.415 59.9167 348.069 58.5395 346Z" fill="#0D4286" fill-opacity="0.3"/>
<path d="M5.44593 351.472C6.48066 350.783 7.16924 351.818 8.20397 351.13C7.85785 352.853 6.82314 353.542 6.82314 353.542C6.82314 353.542 5.09982 353.195 4.41121 352.161C4.06508 353.884 4.41119 352.161 5.44593 351.472Z" fill="#0D4286" fill-opacity="0.3"/>
<path d="M51.3467 288.08C51.6928 286.356 52.7275 285.668 52.7275 285.668C53.7623 284.979 54.4509 286.014 55.1395 287.048L54.7934 288.772C53.0701 288.426 53.0701 288.426 51.3467 288.08Z" fill="#0D4286" fill-opacity="0.3"/>
<path d="M178.138 370.917C183.312 367.474 189.859 370.582 192.613 374.721C196.056 379.895 193.637 387.477 187.775 389.885C182.601 393.328 175.019 390.909 172.611 385.047C170.891 380.219 172.964 374.36 178.138 370.917Z" fill="#0D4286" fill-opacity="0.3"/>
<path d="M226.14 265.813C222.001 268.568 217.865 266.841 215.111 262.702C212.357 258.563 214.083 254.427 218.222 251.673C221.327 249.607 226.497 250.646 229.251 254.785C230.282 258.577 229.244 263.747 226.14 265.813Z" fill="#0D4286" fill-opacity="0.3"/>
<path d="M239.55 310.64C242.993 315.814 239.885 322.361 235.746 325.115C230.573 328.558 224.025 325.451 221.271 321.312C217.828 316.138 219.901 310.279 225.075 306.836C230.248 303.393 237.142 304.778 239.55 310.64Z" fill="#0D4286" fill-opacity="0.3"/>
<path d="M207.92 204.781C206.543 202.712 207.924 200.3 209.993 198.922C212.063 197.545 214.475 198.926 215.852 200.996C217.229 203.065 215.849 205.477 213.779 206.854C212.744 207.543 209.298 206.851 207.92 204.781Z" fill="#0D4286" fill-opacity="0.3"/>
<path d="M297.127 300.69C300.57 305.863 298.151 313.445 292.977 316.888C287.803 320.331 280.221 317.912 276.778 312.738C273.335 307.565 275.754 299.983 280.928 296.54C287.136 292.408 292.995 294.481 297.127 300.69Z" fill="#0D4286" fill-opacity="0.3"/>
<path d="M201.417 147.899L201.764 146.175C202.798 145.487 202.798 145.487 204.522 145.833C204.522 145.833 205.21 146.867 206.245 146.179C205.21 146.867 205.899 147.902 204.864 148.591C203.141 148.245 202.452 147.21 201.417 147.899Z" fill="#0D4286" fill-opacity="0.3"/>
<path d="M308.46 355.856C311.557 362.753 309.137 370.335 302.929 374.466C296.72 378.598 288.45 375.144 284.318 368.936C280.186 362.727 282.952 353.422 289.849 350.325C296.057 346.193 304.328 349.647 308.46 355.856Z" fill="#0D4286" fill-opacity="0.3"/>
<path d="M181.972 320.59C184.727 324.729 182.654 330.588 177.826 332.308C173.687 335.062 167.828 332.989 165.762 329.885C163.008 325.746 165.081 319.887 169.22 317.133C174.394 313.69 180.252 315.763 181.972 320.59Z" fill="#0D4286" fill-opacity="0.3"/>
<path d="M98.9737 220.552L100.697 220.898C101.386 221.933 100.351 222.621 101.039 223.656C99.3161 223.31 98.6276 222.275 98.6276 222.275C97.939 221.241 98.9737 220.552 98.9737 220.552Z" fill="#0D4286" fill-opacity="0.3"/>
<path d="M159.606 271.276C157.54 268.172 159.267 264.037 162.025 263.694C165.129 261.628 168.23 264.044 169.607 266.113C171.673 269.218 169.257 272.318 167.188 273.696C165.118 275.073 161.672 274.38 159.606 271.276Z" fill="#0D4286" fill-opacity="0.3"/>
<path d="M153.448 212.668C152.759 211.634 153.794 210.945 153.452 208.187C155.864 209.568 157.587 209.914 157.587 209.914C158.276 210.949 157.929 212.672 156.895 213.361C155.514 215.773 154.825 214.738 153.448 212.668Z" fill="#0D4286" fill-opacity="0.3"/>
<path d="M250.88 365.804C255.012 372.013 252.593 379.595 245.696 382.692C239.487 386.823 231.905 384.404 228.808 377.507C225.365 372.333 227.096 363.717 233.993 360.62C239.167 357.177 247.783 358.907 250.88 365.804Z" fill="#0D4286" fill-opacity="0.3"/>
<path d="M285.794 245.523C288.548 249.662 286.475 255.52 282.336 258.275C278.197 261.029 272.339 258.956 269.584 254.817C266.83 250.678 268.903 244.82 273.042 242.065C278.215 238.622 284.074 240.695 285.794 245.523Z" fill="#0D4286" fill-opacity="0.3"/>
<path d="M660.311 67.9492C663.065 72.0881 662.027 77.2582 657.2 78.9779C653.061 81.7324 647.891 80.694 646.171 75.8665C643.416 71.7275 644.455 66.5574 649.282 64.8377C652.386 62.7719 657.557 63.8102 660.311 67.9492Z" fill="#0D4286" fill-opacity="0.3"/>
<path d="M638.979 17.9467C637.602 15.8773 638.983 13.4653 641.052 12.0881C643.121 10.7108 645.533 12.0917 646.911 14.1612C648.288 16.2307 646.907 18.6426 644.838 20.0199C643.803 20.7085 640.356 20.0162 638.979 17.9467Z" fill="#0D4286" fill-opacity="0.3"/>
<path d="M615.103 132.375C618.546 137.549 615.438 144.096 610.264 147.539C605.091 150.983 598.543 147.875 595.1 142.701C591.657 137.527 594.765 130.98 599.939 127.537C605.801 125.129 612.695 126.513 615.103 132.375Z" fill="#0D4286" fill-opacity="0.3"/>
<path d="M600.659 88.2385C596.52 90.993 591.35 89.9546 589.63 85.1271C586.876 80.9881 588.603 76.8528 592.742 74.0983C596.881 71.3439 601.016 73.0709 603.771 77.2098C605.837 80.314 604.798 85.4841 600.659 88.2385Z" fill="#0D4286" fill-opacity="0.3"/>
<path d="M583.471 26.5178C582.094 24.4483 583.475 22.0363 585.544 20.6591C587.614 19.2819 590.026 20.6627 591.403 22.7322C592.78 24.8017 591.399 27.2136 589.33 28.5909C587.26 29.9681 583.814 29.2759 583.471 26.5178Z" fill="#0D4286" fill-opacity="0.3"/>
<path d="M271.7 199.664C268.596 201.73 264.46 200.003 262.394 196.898C260.329 193.794 262.056 189.659 265.16 187.593C268.264 185.527 272.399 187.254 274.465 190.358C275.496 194.151 274.804 197.598 271.7 199.664Z" fill="#0D4286" fill-opacity="0.3"/>
<path d="M373.409 179.752C370.655 175.613 372.728 169.754 375.832 167.688C379.971 164.934 385.83 167.007 388.584 171.146C391.338 175.285 389.265 181.143 386.161 183.209C381.334 184.929 376.164 183.891 373.409 179.752Z" fill="#0D4286" fill-opacity="0.3"/>
<path d="M311.745 129.717C310.367 127.647 311.748 125.235 313.818 123.858C315.887 122.481 318.299 123.862 319.676 125.931C321.054 128.001 319.673 130.413 317.603 131.79C315.534 133.167 312.087 132.475 311.745 129.717Z" fill="#0D4286" fill-opacity="0.3"/>
<path d="M399.916 226.312C403.359 231.486 400.94 239.068 395.077 241.476C389.904 244.919 382.322 242.5 378.879 237.326C375.436 232.153 377.855 224.571 383.717 222.162C389.925 218.03 397.508 220.45 399.916 226.312Z" fill="#0D4286" fill-opacity="0.3"/>
<path d="M468.136 270.492C472.268 276.7 469.503 286.005 463.294 290.137C457.086 294.269 447.78 291.504 443.649 285.295C439.517 279.087 442.282 269.781 448.491 265.65C454.699 261.518 464.004 264.283 468.136 270.492Z" fill="#0D4286" fill-opacity="0.3"/>
<path d="M366.217 121.832C364.839 119.762 365.532 116.316 368.636 114.25C370.705 112.873 375.187 112.876 376.218 116.669C377.595 118.738 376.903 122.185 373.799 124.251C371.729 125.628 368.282 124.936 366.217 121.832Z" fill="#0D4286" fill-opacity="0.3"/>
<path d="M526.929 35.7793C525.552 33.7099 525.898 31.9866 527.968 30.6093C530.037 29.2321 531.76 29.5782 533.138 31.6477C534.515 33.7171 533.134 36.1291 532.099 36.8177C530.718 39.2297 528.307 37.8488 526.929 35.7793Z" fill="#0D4286" fill-opacity="0.3"/>
<path d="M457.492 216.361C460.935 221.535 458.516 229.117 453.342 232.56C448.168 236.003 439.552 234.272 436.455 227.375C434.046 221.513 435.431 214.619 441.639 210.488C446.467 208.768 453.36 210.153 457.492 216.361Z" fill="#0D4286" fill-opacity="0.3"/>
<path d="M256.923 139.324C257.269 137.601 257.615 135.877 258.65 135.189C259.685 134.5 262.443 134.158 262.097 135.881C262.785 136.916 262.439 138.639 261.404 139.328C260.37 140.016 258.646 139.67 256.923 139.324Z" fill="#0D4286" fill-opacity="0.3"/>
<path d="M354.704 290.739C358.147 295.912 356.417 304.529 349.52 307.626C343.311 311.758 335.729 309.338 331.597 303.13C327.466 296.922 329.885 289.34 336.782 286.243C342.99 282.111 350.572 284.53 354.704 290.739Z" fill="#0D4286" fill-opacity="0.3"/>
<path d="M410.556 280.443C414.688 286.652 411.234 294.923 405.026 299.054C398.817 303.186 391.235 300.767 387.103 294.558C382.972 288.35 385.737 279.044 391.599 276.636C398.843 271.816 408.148 274.581 410.556 280.443Z" fill="#0D4286" fill-opacity="0.3"/>
<path d="M328.929 191.437C325.824 193.503 320.654 192.464 317.9 188.325C315.146 184.186 316.873 180.051 321.011 177.297C325.15 174.542 329.286 176.269 332.04 180.408C334.106 183.512 332.033 189.371 328.929 191.437Z" fill="#0D4286" fill-opacity="0.3"/>
<path d="M343.372 235.572C346.815 240.745 344.742 246.604 339.568 250.047C334.395 253.49 328.536 251.417 325.093 246.243C321.65 241.07 323.723 235.211 328.897 231.768C334.07 228.325 339.929 230.398 343.372 235.572Z" fill="#0D4286" fill-opacity="0.3"/>
<path d="M361.78 63.5708C361.092 62.5361 362.126 61.8475 362.126 61.8475C362.126 61.8475 363.85 62.1936 365.573 62.5397C364.538 63.2283 364.192 64.9517 364.192 64.9517C362.469 64.6056 360.746 64.2595 361.78 63.5708Z" fill="#0D4286" fill-opacity="0.3"/>
<path d="M569.892 196.804C574.023 203.012 570.569 211.283 565.396 214.726C558.499 217.823 550.916 215.403 547.473 210.23C544.376 203.333 546.796 195.751 552.658 193.342C558.178 188.176 566.795 189.907 569.892 196.804Z" fill="#0D4286" fill-opacity="0.3"/>
<path d="M445.471 160.159C448.226 164.298 446.841 171.192 442.013 172.912C437.875 175.666 430.981 174.282 428.573 168.419C425.818 164.28 427.891 158.422 433.065 154.979C436.858 153.947 442.717 156.021 445.471 160.159Z" fill="#0D4286" fill-opacity="0.3"/>
<path d="M558.557 141.636C562 146.81 559.581 154.392 554.753 156.112C549.579 159.555 543.032 156.447 540.278 152.308C536.834 147.135 539.254 139.552 544.081 137.833C549.255 134.39 555.114 136.463 558.557 141.636Z" fill="#0D4286" fill-opacity="0.3"/>
<path d="M533.085 94.3893C530.331 90.2503 532.058 86.1149 536.197 83.3605C540.336 80.606 545.16 83.3678 547.226 86.472C549.292 89.5762 547.219 95.4349 544.114 97.5007C539.975 100.255 535.151 97.4935 533.085 94.3893Z" fill="#0D4286" fill-opacity="0.3"/>
<path d="M626.433 187.54C630.565 193.749 627.111 202.019 620.902 206.151C614.005 209.248 607.112 207.863 602.98 201.655C598.849 195.447 601.268 187.865 607.476 183.733C614.031 177.878 623.336 180.643 626.433 187.54Z" fill="#0D4286" fill-opacity="0.3"/>
<path d="M472.109 45.3867C471.421 44.3519 472.113 40.9052 473.148 40.2166C474.182 39.528 476.941 39.1855 477.283 41.9436C477.972 42.9783 476.591 45.3903 476.245 47.1136C474.521 46.7675 472.798 46.4214 472.109 45.3867Z" fill="#0D4286" fill-opacity="0.3"/>
<path d="M513.346 206.064C517.478 212.273 515.059 219.855 508.85 223.986C502.642 228.118 494.371 224.664 491.963 218.802C488.52 213.628 490.25 205.011 497.147 201.914C501.633 197.437 509.215 199.856 513.346 206.064Z" fill="#0D4286" fill-opacity="0.3"/>
<path d="M431.376 114.299C428.271 116.365 424.136 114.638 422.759 112.569C420.693 109.465 422.42 105.329 425.524 103.263C428.628 101.198 432.764 102.925 434.83 106.029C436.895 109.133 433.445 112.922 431.376 114.299Z" fill="#0D4286" fill-opacity="0.3"/>
<path d="M487.571 106.761C484.467 108.827 479.297 107.789 478.266 103.996C476.2 100.891 477.238 95.7214 480.343 93.6556C483.447 91.5897 488.617 92.6281 490.683 95.7323C492.749 98.8365 491.71 104.007 487.571 106.761Z" fill="#0D4286" fill-opacity="0.3"/>
<path d="M502.015 150.899C505.458 156.073 503.384 161.931 498.211 165.375C493.037 168.818 487.178 166.744 483.735 161.571C480.292 156.397 483.4 149.85 487.539 147.095C492.713 143.652 498.571 145.725 502.015 150.899Z" fill="#0D4286" fill-opacity="0.3"/>
<path d="M416.601 53.9604C415.912 52.9256 416.259 51.2022 417.293 50.5136C418.328 49.825 419.017 50.8598 420.74 51.2059C420.394 52.9293 420.048 54.6526 419.013 55.3412C419.013 55.3412 417.29 54.9951 416.601 53.9604Z" fill="#0D4286" fill-opacity="0.3"/>
<path d="M364.313 345.557C369.133 352.801 366.368 362.106 359.471 365.203C353.263 369.335 343.957 366.569 339.137 359.326C336.04 352.429 337.771 343.812 344.668 340.715C352.599 336.93 361.216 338.66 364.313 345.557Z" fill="#0D4286" fill-opacity="0.3"/>
<path d="M433.22 390.773C437.694 399.739 434.928 409.044 426.997 412.83C419.065 416.616 408.725 414.539 403.904 407.296C400.119 399.364 402.196 389.024 410.474 383.515C418.405 379.729 428.399 383.529 433.22 390.773Z" fill="#0D4286" fill-opacity="0.3"/>
<path d="M421.889 335.607C426.709 342.85 423.944 352.156 416.701 356.976C409.458 361.796 400.152 359.031 396.367 351.099C392.581 343.168 394.312 334.551 402.243 330.765C408.452 326.634 417.757 329.399 421.889 335.607Z" fill="#0D4286" fill-opacity="0.3"/>
<path d="M536.009 316.395C539.794 324.327 537.718 334.667 529.786 338.453C522.543 343.273 512.203 341.196 507.729 332.23C502.908 324.987 504.985 314.647 513.263 309.138C521.195 305.352 531.189 309.152 536.009 316.395Z" fill="#0D4286" fill-opacity="0.3"/>
<path d="M591.862 306.098C596.683 313.341 593.571 324.37 586.328 329.19C578.396 332.976 568.056 330.899 564.271 322.967C558.762 314.689 562.562 304.695 569.805 299.875C577.737 296.089 587.042 298.855 591.862 306.098Z" fill="#0D4286" fill-opacity="0.3"/>
<path d="M581.22 251.969C586.041 259.213 583.275 268.518 575.343 272.304C568.1 277.124 558.795 274.359 555.009 266.427C550.189 259.184 552.954 249.878 560.886 246.093C567.095 241.961 576.4 244.726 581.22 251.969Z" fill="#0D4286" fill-opacity="0.3"/>
<path d="M524.677 261.23C527.774 268.127 526.044 276.744 518.8 281.564C511.903 284.661 503.287 282.93 498.466 275.687C494.681 267.755 497.1 260.173 504.343 255.353C511.24 252.256 520.545 255.022 524.677 261.23Z" fill="#0D4286" fill-opacity="0.3"/>
<path d="M478.43 326.345C483.25 333.588 480.485 342.893 473.242 347.713C465.999 352.534 454.97 349.422 451.184 341.491C447.399 333.559 450.164 324.253 457.407 319.433C464.304 316.336 473.61 319.101 478.43 326.345Z" fill="#0D4286" fill-opacity="0.3"/>
<path d="M637.763 242.706C642.584 249.949 639.818 259.255 631.887 263.04C624.643 267.86 615.338 265.095 610.518 257.852C605.697 250.609 608.463 241.303 616.394 237.518C623.638 232.697 632.943 235.463 637.763 242.706Z" fill="#0D4286" fill-opacity="0.3"/>
<path d="M625.313 291.303C633.245 287.518 643.585 289.594 648.06 298.561C652.534 307.528 649.768 316.833 640.802 321.307C632.87 325.093 622.53 323.016 618.056 314.049C614.27 306.118 617.382 295.089 625.313 291.303Z" fill="#0D4286" fill-opacity="0.3"/>
<path d="M634.922 346.122C643.888 341.648 654.917 344.759 660.426 353.037C664.9 362.003 661.789 373.032 652.822 377.506C643.856 381.981 632.827 378.869 628.353 369.902C621.809 362.313 625.955 350.596 634.922 346.122Z" fill="#0D4286" fill-opacity="0.3"/>
<path d="M465.984 374.942C474.261 369.433 485.29 372.545 489.764 381.511C494.239 390.478 492.162 400.818 483.195 405.292C474.229 409.766 464.923 407.001 459.414 398.723C454.594 391.48 457.706 380.451 465.984 374.942Z" fill="#0D4286" fill-opacity="0.3"/>
<path d="M578.378 355.383C587.344 350.909 597.684 352.986 602.159 361.952C607.668 370.23 603.521 381.948 595.244 387.456C586.277 391.931 575.248 388.819 570.774 379.853C566.3 370.886 569.411 359.857 578.378 355.383Z" fill="#0D4286" fill-opacity="0.3"/>
<path d="M521.837 364.646C530.804 360.172 541.144 362.249 545.618 371.215C550.092 380.182 548.015 390.522 539.049 394.996C530.082 399.47 519.054 396.359 514.579 387.392C510.448 381.184 513.559 370.155 521.837 364.646Z" fill="#0D4286" fill-opacity="0.3"/>
</g>
<defs>
<clipPath id="clip0_437_8577">
<rect width="645" height="378" fill="white"/>
</clipPath>
</defs>
</svg>
