<svg width="185" height="116" viewBox="0 0 185 116" fill="none" xmlns="http://www.w3.org/2000/svg">
<rect y="109" width="185" height="7" fill="white"/>
<rect y="98" width="185" height="7" fill="white"/>
<rect y="87" width="185" height="7" fill="white"/>
<path d="M71.6129 61.4152C86.5161 60.4467 100.452 61.0278 109.161 64.708C114.387 66.8386 124.645 73.2305 128.71 74.199C132.774 75.1675 151.548 74.0053 159.484 81.9467C162.968 85.4332 162.581 92.0188 159.871 94.7305C157.161 97.2485 162.774 99.7666 147.677 99.7666C139.548 99.7666 42.5807 99.7666 42.5807 99.7666L24.1936 97.8296V89.8882V80.9783C24.1936 80.9783 24.3871 79.8161 24.7742 78.4603C24.9677 77.1044 27.0968 75.7485 29.4194 75.3611L41.0323 73.8116C40.8387 73.8116 56.7097 62.5774 71.6129 61.4152Z" fill="#FECB21"/>
<path d="M115.742 69.163C112.258 67.226 108.387 65.0954 105.29 63.5458C106.645 63.9332 108 64.5143 109.161 64.9017C114.387 67.0323 124.645 73.4242 128.709 74.3927C129.29 74.5864 130.258 74.7801 131.419 74.9738C126.774 74.9738 120.967 72.2621 115.742 69.163Z" fill="black"/>
<path d="M150.968 97.8296L152.129 95.8927L158.71 95.699H158.903C157.936 97.8296 160.645 99.7666 147.29 99.7666C146.71 99.7666 145.548 99.7666 143.807 99.7666V97.8296H150.968Z" fill="#262529"/>
<path d="M60.5809 67.0323C68.1293 63.9332 80.1293 61.8026 98.1293 64.708C98.1293 64.708 108.968 66.0639 118.065 72.4557C119.613 73.6179 121.162 74.7801 122.71 76.1359L49.5487 74.3927C49.5487 74.3927 52.6454 70.3251 60.5809 67.0323Z" fill="black"/>
<path d="M24 92.7936L33.2904 93.3747L36.9678 99.1855L24 97.8296V92.7936Z" fill="#262529"/>
<path d="M159.097 89.3071L161.613 88.3386C161.806 90.663 161.419 93.3747 159.677 94.7305L158.71 92.9873L159.097 89.3071Z" fill="#262529"/>
<path d="M24.0003 81.753C27.2906 81.753 31.7422 83.4963 31.7422 83.4963L29.0325 86.5954H24.0003V81.753Z" fill="#992520"/>
<path d="M82.0648 63.3521C86.71 63.3521 92.1293 63.7395 98.1293 64.708C98.1293 64.708 113.226 66.6449 122.71 76.1359L49.5487 74.3927C49.5487 74.3927 57.4842 63.3521 82.0648 63.3521ZM62.5164 68.1945V73.0368L86.3229 73.6179C86.5164 72.2621 87.0971 67.226 85.9358 65.0954C84.5809 65.0954 83.4196 65.0954 82.0648 65.0954C73.5487 65.0954 67.1616 66.4512 62.5164 68.1945ZM97.9358 66.4512C95.4196 66.0639 93.0971 65.6765 90.5809 65.4828V73.8116L118.065 74.3927C109.355 68.0008 98.1293 66.4512 97.9358 66.4512ZM60.7745 73.0368C60.7745 72.0684 60.968 70.3251 60.7745 68.7756C57.4842 70.1314 55.1616 71.681 53.6132 72.8431L60.7745 73.0368Z" fill="#303030"/>
<path d="M96.5811 83.3026C97.5489 83.3026 98.5166 83.69 98.5166 84.2711C98.5166 84.8521 97.7424 85.2395 96.5811 85.2395C95.6134 85.2395 94.6456 84.8521 94.6456 84.2711C94.6456 83.69 95.6134 83.3026 96.5811 83.3026Z" fill="#C9C9C9"/>
<path d="M94.4519 84.2711C94.4519 84.8521 95.4196 85.4332 96.5809 85.4332C97.7422 85.4332 98.71 84.8521 98.71 84.2711C98.71 83.69 97.7422 83.1089 96.5809 83.1089C95.4196 83.1089 94.4519 83.69 94.4519 84.2711Z" fill="#DFDFDF"/>
<path d="M93.6777 84.2711C93.6777 84.4648 93.8713 84.6584 94.0648 84.6584H99.2906C99.4842 84.6584 99.6777 84.4648 99.6777 84.2711C99.6777 84.0774 99.4842 83.8837 99.2906 83.8837L94.0648 83.69C93.8713 83.69 93.4842 83.69 93.6777 84.2711Z" fill="#5C5C5C"/>
<path d="M69.4835 83.3026C70.4512 83.3026 71.4189 83.69 71.4189 84.2711C71.4189 84.8521 70.6448 85.2395 69.4835 85.2395C68.5157 85.2395 67.548 84.8521 67.548 84.2711C67.548 83.69 68.3222 83.3026 69.4835 83.3026Z" fill="#C9C9C9"/>
<path d="M67.3542 84.2711C67.3542 84.8521 68.322 85.4332 69.4833 85.4332C70.6446 85.4332 71.6123 84.8521 71.6123 84.2711C71.6123 83.69 70.6446 83.1089 69.4833 83.1089C68.322 83.1089 67.3542 83.69 67.3542 84.2711Z" fill="#DFDFDF"/>
<path d="M66.3867 84.2711C66.3867 84.4648 66.5803 84.6584 66.7738 84.6584H71.9996C72.1932 84.6584 72.3867 84.4648 72.3867 84.2711C72.3867 84.0774 72.1932 83.8837 71.9996 83.8837L66.7738 83.69C66.5803 83.69 66.1932 83.69 66.3867 84.2711Z" fill="#5C5C5C"/>
<path d="M120.193 74.3927L121.161 75.3611L120.58 75.9422L119.226 75.5548L120.193 74.3927Z" fill="url(#paint0_linear_582_14084)"/>
<path d="M116.71 74.9738L117.097 71.8747C117.097 71.2936 117.871 71.0999 118.645 71.2936C120.194 71.8747 120.774 75.1675 120.774 75.1675C120.387 75.9422 119.226 75.9422 118.065 75.9422C117.097 75.9422 116.516 75.5548 116.71 74.9738Z" fill="#C4C4C4"/>
<path d="M152.322 93.762C152.322 94.1494 152.516 94.3431 152.903 94.3431H155.806C156.193 94.3431 156.387 94.1494 156.387 93.762C156.387 93.3747 156.193 93.181 155.806 93.181H152.903C152.516 93.181 152.322 93.3747 152.322 93.762Z" fill="#FF8000"/>
<path d="M133.549 86.5954C138.774 86.5954 143.42 89.6945 145.549 94.1494L146.516 97.8296C146.71 98.4107 146.71 99.1855 146.71 99.7666C145.162 99.7666 144.194 99.7666 144.194 99.7666H120.387C120.194 92.5999 126.194 86.5954 133.549 86.5954Z" fill="black"/>
<path d="M122.129 99.7666C122.129 105.965 127.162 111.001 133.355 111.001C139.549 111.001 144.581 105.965 144.581 99.7666C144.581 93.5684 139.549 88.5323 133.355 88.5323C127.162 88.5323 122.129 93.5684 122.129 99.7666Z" fill="#504E51"/>
<path d="M133.548 107.127C137.613 107.127 140.903 103.834 140.903 99.7666C140.903 95.699 137.613 92.4062 133.548 92.4062C129.484 92.4062 126.194 95.699 126.194 99.7666C126.194 103.834 129.484 107.127 133.548 107.127Z" fill="#EBC899"/>
<path d="M136.451 93.9557L134.322 97.4422C133.935 98.217 133.161 98.217 132.58 97.4422L130.451 93.9557C130.451 93.9557 131.612 93.181 133.354 93.181C135.29 92.9873 136.451 93.9557 136.451 93.9557Z" fill="black"/>
<path d="M139.935 100.929L135.871 99.9602C134.903 99.7666 134.709 98.9918 135.29 98.4107L138 95.5053C138 95.5053 139.161 96.4738 139.548 98.0233C140.322 99.5729 140.129 100.929 139.935 100.929Z" fill="black"/>
<path d="M134.322 106.352L134.129 102.285C134.129 101.316 134.71 100.929 135.484 101.316L139.161 103.059C139.161 103.059 138.58 104.415 137.226 105.384C135.871 106.352 134.322 106.352 134.322 106.352Z" fill="black"/>
<path d="M127.549 102.478L131.42 100.929C132.194 100.541 132.774 101.122 132.774 101.897L132.194 105.965C132.194 105.965 130.645 105.771 129.484 104.803C127.936 104.028 127.355 102.478 127.549 102.478Z" fill="black"/>
<path d="M129.097 94.9242L131.613 98.217C132.194 98.9918 131.807 99.5729 131.032 99.7666L126.968 100.348C126.968 100.348 126.581 98.7981 127.355 97.4422C127.936 95.8927 129.097 94.9242 129.097 94.9242Z" fill="black"/>
<path d="M50.903 86.5954C56.1288 86.5954 60.7739 89.6945 62.903 94.1494L64.0643 97.8296C64.2578 98.4107 64.2578 99.1855 64.2578 99.7666C62.7094 99.7666 61.7417 99.7666 61.7417 99.7666L37.9352 99.1855C37.7417 92.0188 43.5481 86.5954 50.903 86.5954Z" fill="black"/>
<path d="M39.4839 99.7666C39.4839 105.965 44.5162 111.001 50.7097 111.001C56.9033 111.001 61.9355 105.965 61.9355 99.7666C61.9355 93.5684 56.9033 88.5323 50.7097 88.5323C44.7097 88.5323 39.4839 93.5684 39.4839 99.7666Z" fill="#504E51"/>
<path d="M50.903 107.127C54.9675 107.127 58.2578 103.834 58.2578 99.7666C58.2578 95.699 54.9675 92.4062 50.903 92.4062C46.8385 92.4062 43.5481 95.699 43.5481 99.7666C43.5481 103.834 46.8385 107.127 50.903 107.127Z" fill="#EBC899"/>
<path d="M53.8057 93.9557L51.6766 97.4422C51.2895 98.217 50.5153 98.217 49.9347 97.4422L47.8057 93.9557C47.8057 93.9557 48.967 93.181 50.7089 93.181C52.6444 93.181 53.8057 93.9557 53.8057 93.9557Z" fill="black"/>
<path d="M57.29 101.122L53.2254 100.154C52.2577 99.9603 52.0642 99.1855 52.6448 98.6044L55.3545 95.699C55.3545 95.699 56.5158 96.6675 57.0964 98.217C57.8706 99.5729 57.4835 101.122 57.29 101.122Z" fill="black"/>
<path d="M51.6769 106.352L51.4834 102.285C51.4834 101.316 52.064 100.929 52.8382 101.316L56.5156 103.059C56.5156 103.059 55.935 104.415 54.5801 105.384C53.2253 106.352 51.6769 106.546 51.6769 106.352Z" fill="black"/>
<path d="M44.9031 102.672L48.7741 101.122C49.5483 100.735 50.1289 101.316 50.1289 102.091L49.5483 106.158C49.5483 106.158 47.9999 105.965 46.8386 104.996C45.2902 104.028 44.7095 102.672 44.9031 102.672Z" fill="black"/>
<path d="M46.4514 95.1179L48.9675 98.4107C49.5481 99.1855 49.161 99.7666 48.3869 99.9602L44.3223 100.541C44.3223 100.541 43.9352 98.9918 44.7094 97.6359C45.2901 95.8927 46.4514 95.1179 46.4514 95.1179Z" fill="black"/>
<path d="M63.6771 99.7666H121.354V97.8296H63.29L63.6771 99.7666Z" fill="#262529"/>
<path d="M155.032 80.5909L148.839 80.0098C150 80.7846 151.549 81.753 153.29 83.1089C154.645 84.0774 156.387 84.6584 157.742 85.0458C158.516 85.2395 159.29 85.4332 159.871 85.8206C159.678 85.2395 159.484 84.6584 159.097 84.2711C158.129 83.1089 156.774 81.753 155.032 80.5909Z" fill="white"/>
<g clip-path="url(#clip0_582_14084)">
<path d="M138.093 48H45.9066C42.6514 48 40 45.3921 40 42.1904V5.80957C40 2.60785 42.6514 0 45.9066 0H138.093C141.349 0 144 2.60785 144 5.80957V42.1904C144 45.3921 141.349 48 138.093 48ZM45.9066 0.731576C43.0539 0.731576 40.7438 3.01237 40.7438 5.80957V42.1904C40.7438 44.9962 43.0627 47.2684 45.9066 47.2684H138.093C140.946 47.2684 143.256 44.9876 143.256 42.1904V5.80957C143.256 3.00377 140.937 0.731576 138.093 0.731576H45.9066Z" fill="#006BD6"/>
<path d="M43.3076 41.2695V6.7305C43.3076 4.90586 44.8127 3.4255 46.6591 3.4255H137.332C139.187 3.4255 140.683 4.90586 140.683 6.72189V41.2609C140.683 43.0855 139.178 44.5573 137.332 44.5573H46.6591C44.8127 44.5659 43.3076 43.0941 43.3076 41.2695Z" fill="#006BD6"/>
<path d="M93.417 11.1104H96.1336C96.8469 11.1104 97.3838 11.3074 97.7364 11.7015C98.089 12.0956 98.2653 12.671 98.2653 13.4198C98.2653 14.2711 98.057 14.8622 97.6482 15.1933C97.2395 15.5243 96.6626 15.6899 95.9253 15.6899H95.2041V19.0713H93.417V11.1104ZM95.8131 14.4602C96.1256 14.4602 96.334 14.3814 96.4382 14.2159C96.5424 14.0504 96.5904 13.7745 96.5904 13.3883C96.5904 13.0336 96.5424 12.7735 96.4382 12.6001C96.342 12.4267 96.1256 12.3478 95.7971 12.3478H95.2041V14.4602H95.8131Z" fill="white"/>
<path d="M100.502 11.1104H102.537L104.044 19.0792H102.393L102.12 17.4003H100.934L100.654 19.0792H98.9629L100.502 11.1104ZM101.96 16.3441L101.527 13.2385L101.095 16.3441H101.96Z" fill="white"/>
<path d="M105.565 11.1104H107.793C108.683 11.1104 109.348 11.268 109.805 11.5754C110.261 11.8828 110.486 12.4345 110.486 13.2149C110.486 13.743 110.414 14.1686 110.278 14.4839C110.141 14.7992 109.877 15.0435 109.5 15.2248L110.614 19.0792H108.763L107.873 15.5086H107.361V19.0792H105.573V11.1104H105.565ZM107.857 14.4918C108.218 14.4918 108.466 14.3972 108.611 14.208C108.755 14.0189 108.827 13.743 108.827 13.3646C108.827 13.0021 108.763 12.7341 108.627 12.5528C108.49 12.3715 108.266 12.2848 107.938 12.2848H107.361V14.4839H107.857V14.4918Z" fill="white"/>
<path d="M112.266 11.1104H114.053V14.3657L115.415 11.1104H117.162L115.663 14.7125L117.234 19.0792H115.415L114.245 15.5559L114.053 15.8711V19.0792H112.266V11.1104Z" fill="white"/>
<path d="M118.645 11.1104H120.432V19.0792H118.645V11.1104Z" fill="white"/>
<path d="M122.347 11.1104H123.605L125.264 14.9489V11.1104H126.746V19.0792H125.536L123.877 14.9489V19.0792H122.347V11.1104Z" fill="white"/>
<path d="M129.054 18.4722C128.717 17.9914 128.541 17.3136 128.541 16.4386V13.7666C128.541 12.868 128.725 12.1823 129.094 11.7094C129.463 11.2365 130.088 11 130.969 11C131.819 11 132.42 11.2049 132.788 11.6069C133.157 12.0168 133.341 12.5843 133.341 13.3252V13.8375H131.594V13.1912C131.594 12.8759 131.554 12.6395 131.482 12.4818C131.41 12.3242 131.242 12.2375 130.993 12.2375C130.737 12.2375 130.568 12.3242 130.488 12.5055C130.408 12.6789 130.376 12.9311 130.376 13.2464V16.9352C130.376 17.2505 130.424 17.4948 130.52 17.6761C130.617 17.8574 130.793 17.9441 131.049 17.9441C131.514 17.9441 131.747 17.5973 131.747 16.9116V15.9736H131.017V14.941H133.357V19.0713H132.179L132.083 18.4092C131.827 18.9294 131.394 19.1895 130.777 19.1895C129.967 19.1895 129.398 18.953 129.054 18.4722Z" fill="white"/>
<path d="M95.7167 22.3581H99.3309L102.007 36.4828H99.0824L98.6016 33.5034H96.494L95.9971 36.4828H93L95.7167 22.3581ZM98.3051 31.6353L97.5438 26.1258L96.7825 31.6353H98.3051Z" fill="white"/>
<path d="M104.7 22.3581H108.651C110.222 22.3581 111.408 22.634 112.217 23.1778C113.018 23.7217 113.419 24.6912 113.419 26.0863C113.419 27.0243 113.299 27.781 113.051 28.3327C112.802 28.8924 112.345 29.3259 111.664 29.6412L113.636 36.475H110.358L108.779 30.1456H107.874V36.475H104.7V22.3581ZM108.763 28.3564C109.404 28.3564 109.845 28.1909 110.101 27.8598C110.358 27.5288 110.486 27.0322 110.486 26.3701C110.486 25.7316 110.366 25.2508 110.134 24.9356C109.893 24.6124 109.492 24.4547 108.907 24.4547H107.882V28.3564H108.763Z" fill="white"/>
<path d="M116.584 22.3581H123.035V24.4863H119.758V27.9938H122.25V30.1535H119.75V34.3704H123.067V36.4828H116.576V22.3581H116.584Z" fill="white"/>
<path d="M127.763 22.3581H131.378L134.054 36.4828H131.129L130.648 33.5034H128.541L128.044 36.4828H125.055L127.763 22.3581ZM130.352 31.6353L129.59 26.1258L128.829 31.6353H130.352Z" fill="white"/>
<path d="M59.4499 20.3131C59.4499 20.3131 57.1779 20.5297 53.3302 20.7463C49.5192 20.963 47.1007 21.3601 46.5144 23.1652C46.3311 23.7789 46.1479 24.537 46.038 25.2591C45.8181 26.631 46.6243 27.8945 46.6243 27.8945C46.6243 27.8945 49.3726 28.0028 53.0371 28.1111C53.2936 30.0606 55.0159 31.5769 57.068 31.5769C59.0468 31.5769 60.7324 30.169 61.0622 28.2916C63.7006 28.3278 67.0719 28.3639 69.124 28.2916V20.3131C67.8414 20.3492 65.9726 20.4214 64.3969 20.4214C61.7218 20.4214 61.2821 20.0243 64.177 18.0748C66.2657 16.6668 68.2079 16.0531 69.124 15.8004V15.1144C68.7209 15.1144 66.0825 15.5838 63.8106 16.9195C61.5752 18.2553 59.4499 20.3131 59.4499 20.3131ZM51.2049 23.093L47.3205 23.1652C47.3205 23.1652 47.7969 22.407 48.823 22.0099C49.8124 21.6128 51.3514 21.7572 51.3514 21.7572L51.2049 23.093ZM59.853 28.2916C59.5232 29.483 58.4238 30.3856 57.1046 30.3856C55.7488 30.3856 54.5762 29.4108 54.3196 28.1472C54.283 27.9667 54.2464 27.7862 54.2464 27.5696C54.2464 26.0172 55.5289 24.7537 57.1046 24.7537C58.6803 24.7537 59.9629 26.0172 59.9629 27.5696C59.9262 27.8223 59.8896 28.075 59.853 28.2916Z" fill="white"/>
<path d="M84.5215 23.4291H85.6123V25.4555L87.5507 23.4291H88.9125L86.9741 25.3596L89.1001 28.317H87.7314L86.2376 26.1195L85.6123 26.7425V28.317H84.5215V23.4291Z" fill="white"/>
<path d="M80.5986 25.6403H81.7936C82.0438 25.6403 82.2313 25.5856 82.3564 25.476C82.4815 25.3665 82.544 25.1885 82.544 24.9421C82.544 24.7047 82.4815 24.5336 82.3564 24.4286C82.2313 24.3191 82.0438 24.2643 81.7936 24.2643H80.5986V25.6403ZM79.5078 23.4291H82.1827C82.405 23.4291 82.6042 23.4656 82.7802 23.5387C82.9609 23.6071 83.1137 23.703 83.2388 23.8262C83.3685 23.9494 83.4657 24.0932 83.5306 24.2575C83.6001 24.4172 83.6348 24.5906 83.6348 24.7778C83.6348 25.0653 83.5723 25.314 83.4472 25.5239C83.3268 25.7339 83.1276 25.8936 82.8497 26.0032V26.0168C82.984 26.0534 83.0952 26.1104 83.1832 26.188C83.2712 26.261 83.343 26.35 83.3986 26.455C83.4542 26.5554 83.4935 26.6672 83.5167 26.7904C83.5445 26.9136 83.563 27.0369 83.5723 27.1601C83.5769 27.2377 83.5815 27.329 83.5862 27.4339C83.5908 27.5389 83.5977 27.6461 83.607 27.7557C83.6209 27.8652 83.6394 27.9702 83.6626 28.0706C83.6904 28.1664 83.7298 28.2486 83.7807 28.317H82.6899C82.6297 28.1619 82.5926 27.977 82.5787 27.7625C82.5648 27.548 82.544 27.3426 82.5162 27.1464C82.4792 26.8908 82.4004 26.7037 82.28 26.585C82.1596 26.4664 81.9627 26.4071 81.6894 26.4071H80.5986V28.317H79.5078V23.4291Z" fill="white"/>
<path d="M76.0022 26.4276H77.2875L76.6622 24.634H76.6483L76.0022 26.4276ZM76.1064 23.4291H77.225L79.08 28.317H77.9475L77.5724 27.2285H75.7173L75.3282 28.317H74.2305L76.1064 23.4291Z" fill="white"/>
<path d="M71.7236 25.7293H72.5712C72.6963 25.7293 72.8167 25.7202 72.9325 25.7019C73.0483 25.6837 73.1502 25.6495 73.2382 25.5992C73.3262 25.5445 73.3957 25.4692 73.4467 25.3733C73.5022 25.2775 73.53 25.152 73.53 24.9968C73.53 24.8416 73.5022 24.7161 73.4467 24.6203C73.3957 24.5245 73.3262 24.4514 73.2382 24.4012C73.1502 24.3465 73.0483 24.31 72.9325 24.2917C72.8167 24.2734 72.6963 24.2643 72.5712 24.2643H71.7236V25.7293ZM70.6328 23.4291H72.87C73.1803 23.4291 73.4444 23.4748 73.662 23.5661C73.8797 23.6528 74.0558 23.7691 74.1901 23.9152C74.329 24.0612 74.4286 24.2278 74.4888 24.4149C74.5537 24.602 74.5861 24.796 74.5861 24.9968C74.5861 25.1931 74.5537 25.387 74.4888 25.5787C74.4286 25.7658 74.329 25.9324 74.1901 26.0785C74.0558 26.2245 73.8797 26.3432 73.662 26.4344C73.4444 26.5211 73.1803 26.5645 72.87 26.5645H71.7236V28.317H70.6328V23.4291Z" fill="white"/>
<path d="M85.6914 18.1012L83.8711 15.1164H85.0939L86.2542 17.0469L87.4075 15.1164H88.6234L86.7822 18.1285V20.0043H85.6914V18.1012Z" fill="white"/>
<path d="M80.6374 18.3818C80.6374 18.5461 80.6675 18.6853 80.7277 18.7994C80.7879 18.9135 80.8667 19.0071 80.9639 19.0801C81.0658 19.1486 81.1839 19.201 81.3183 19.2375C81.4526 19.2695 81.5915 19.2855 81.7351 19.2855C81.8324 19.2855 81.9366 19.2786 82.0478 19.2649C82.159 19.2467 82.2632 19.2147 82.3604 19.1691C82.4577 19.1234 82.5388 19.0618 82.6036 18.9843C82.6685 18.9021 82.7009 18.7994 82.7009 18.6762C82.7009 18.5438 82.6569 18.4366 82.5689 18.3544C82.4855 18.2723 82.3743 18.2038 82.2354 18.1491C82.0964 18.0943 81.9389 18.0464 81.7629 18.0053C81.5869 17.9642 81.4086 17.9186 81.2279 17.8684C81.0427 17.8227 80.862 17.768 80.686 17.7041C80.51 17.6356 80.3525 17.5489 80.2136 17.4439C80.0746 17.339 79.9611 17.2089 79.8731 17.0537C79.7898 16.894 79.7481 16.7023 79.7481 16.4787C79.7481 16.2277 79.8013 16.0109 79.9079 15.8283C80.019 15.6412 80.1626 15.4861 80.3386 15.3628C80.5146 15.2396 80.7138 15.1483 80.9361 15.089C81.1585 15.0297 81.3808 15 81.6031 15C81.8625 15 82.1103 15.0297 82.3465 15.089C82.5874 15.1438 82.8005 15.235 82.9857 15.3628C83.171 15.4906 83.3169 15.6549 83.4234 15.8557C83.5346 16.052 83.5902 16.2916 83.5902 16.5745H82.5341C82.5249 16.4285 82.4924 16.3075 82.4369 16.2117C82.3859 16.1159 82.3164 16.0406 82.2284 15.9858C82.1404 15.931 82.0385 15.8922 81.9227 15.8694C81.8116 15.8466 81.6888 15.8352 81.5545 15.8352C81.4665 15.8352 81.3785 15.8443 81.2905 15.8626C81.2025 15.8808 81.1214 15.9128 81.0473 15.9584C80.9778 16.0041 80.9199 16.0611 80.8736 16.1296C80.8273 16.198 80.8041 16.2847 80.8041 16.3897C80.8041 16.4855 80.8227 16.5631 80.8597 16.6225C80.8968 16.6818 80.9686 16.7366 81.0751 16.7868C81.1863 16.837 81.3368 16.8872 81.5267 16.9374C81.7212 16.9876 81.9737 17.0515 82.284 17.129C82.3766 17.1473 82.504 17.1815 82.6661 17.2317C82.8329 17.2774 82.9973 17.3527 83.1594 17.4576C83.3215 17.5626 83.4605 17.7041 83.5763 17.8821C83.6967 18.0555 83.7569 18.2791 83.7569 18.553C83.7569 18.7766 83.7129 18.9843 83.6249 19.1759C83.5369 19.3676 83.4049 19.5342 83.2289 19.6757C83.0575 19.8126 82.8422 19.9198 82.5828 19.9974C82.328 20.075 82.0316 20.1138 81.6934 20.1138C81.4202 20.1138 81.1538 20.0796 80.8945 20.0111C80.6397 19.9472 80.4127 19.8445 80.2136 19.7031C80.019 19.5616 79.8639 19.3813 79.7481 19.1622C79.6323 18.9432 79.5767 18.683 79.5813 18.3818H80.6374Z" fill="white"/>
<path d="M76.3889 18.1148H77.6742L77.0489 16.3212H77.035L76.3889 18.1148ZM76.4931 15.1164H77.6117L79.4667 20.0043H78.3343L77.9591 18.9158H76.104L75.7149 20.0043H74.6172L76.4931 15.1164Z" fill="white"/>
<path d="M70.6328 15.1164H74.3429V16.02H71.7236V17.0674H74.1276V17.9026H71.7236V19.1006H74.3985V20.0043H70.6328V15.1164Z" fill="white"/>
</g>
<defs>
<linearGradient id="paint0_linear_582_14084" x1="120.277" y1="74.3138" x2="120.277" y2="75.9533" gradientUnits="userSpaceOnUse">
<stop stop-color="#5F5A5E"/>
<stop offset="0.2754"/>
<stop offset="0.7541"/>
<stop offset="0.8093"/>
</linearGradient>
<clipPath id="clip0_582_14084">
<rect width="104" height="48" fill="white" transform="translate(40)"/>
</clipPath>
</defs>
</svg>
