<svg width="121" height="72" viewBox="0 0 121 72" fill="none" xmlns="http://www.w3.org/2000/svg">
<g clip-path="url(#clip0_192_17616)">
<path d="M57.4189 12.9844H60.5396V68.5868H57.4189V12.9844Z" fill="#E0DFDB"/>
<path d="M25.589 42.8275C33.5986 42.3039 41.088 42.6181 45.769 44.6076C48.5775 45.7594 54.0906 49.215 56.275 49.7385C58.4594 50.2621 68.5494 49.6338 72.8142 53.927C74.6866 55.8119 74.4786 59.3721 73.0223 60.8381C71.566 62.1993 74.5826 63.5606 66.469 63.5606C62.1001 63.5606 9.98596 63.5606 9.98596 63.5606L0.104042 62.5135V58.2203V53.4035C0.104042 53.4035 0.208054 52.7752 0.416092 52.0422C0.520111 51.3092 1.66434 50.5762 2.91258 50.3668L9.1538 49.5291C9.04978 49.5291 17.5794 43.4558 25.589 42.8275Z" fill="#FECB21"/>
<path d="M49.3053 47.016C47.4329 45.9689 45.3525 44.817 43.6882 43.9793C44.4164 44.1887 45.1445 44.5029 45.7686 44.7123C48.5772 45.8641 54.0902 49.3197 56.2747 49.8432C56.5867 49.9479 57.1068 50.0526 57.731 50.1574C55.2345 50.1574 52.1139 48.6914 49.3053 47.016Z" fill="black"/>
<path d="M68.2376 62.5135L68.8617 61.4663L72.3984 61.3616H72.5024C71.9823 62.5135 73.4386 63.5606 66.2612 63.5606C65.9492 63.5606 65.325 63.5606 64.3889 63.5606V62.5135H68.2376Z" fill="#262529"/>
<path d="M19.6598 45.8642C23.7166 44.1887 30.1658 43.0369 39.8397 44.6076C39.8397 44.6076 45.6648 45.3406 50.5538 48.7961C51.386 49.4244 52.2181 50.0527 53.0503 50.7856L13.7306 49.8432C13.7306 49.8432 15.3949 47.6443 19.6598 45.8642Z" fill="black"/>
<path d="M-0.000127792 59.791L4.99285 60.1051L6.96924 63.2465L-0.000127792 62.5135V59.791Z" fill="#262529"/>
<path d="M72.6063 57.9061L73.9586 57.3826C74.0626 58.6391 73.8545 60.1051 72.9184 60.8381L72.3983 59.8957L72.6063 57.9061Z" fill="#262529"/>
<path d="M-0.000167847 53.8223C1.76818 53.8223 4.16064 54.7647 4.16064 54.7647L2.70437 56.4401H-0.000167847V53.8223Z" fill="#992520"/>
<path d="M31.206 43.8746C33.7025 43.8746 36.6151 44.0841 39.8397 44.6076C39.8397 44.6076 47.9533 45.6547 53.0503 50.7857L13.7306 49.8433C13.7306 49.8433 17.9954 43.8746 31.206 43.8746ZM20.7 46.4925V49.1103L33.4945 49.4244C33.5985 48.6914 33.9106 45.9689 33.2864 44.817C32.5583 44.817 31.9342 44.817 31.206 44.817C26.6291 44.817 23.1965 45.55 20.7 46.4925ZM39.7357 45.55C38.3834 45.3406 37.1352 45.1312 35.7829 45.0265V49.5291L50.5538 49.8433C45.8729 46.3877 39.8397 45.55 39.7357 45.55ZM19.7638 49.1103C19.7638 48.5867 19.8678 47.6443 19.7638 46.8066C17.9954 47.5396 16.7472 48.3773 15.915 49.0056L19.7638 49.1103Z" fill="#303030"/>
<path d="M39.0081 54.66C39.5282 54.66 40.0483 54.8695 40.0483 55.1836C40.0483 55.4977 39.6323 55.7072 39.0081 55.7072C38.488 55.7072 37.9679 55.4977 37.9679 55.1836C37.9679 54.8695 38.488 54.66 39.0081 54.66Z" fill="#C9C9C9"/>
<path d="M37.8634 55.1836C37.8634 55.4977 38.3835 55.8119 39.0076 55.8119C39.6318 55.8119 40.1519 55.4977 40.1519 55.1836C40.1519 54.8694 39.6318 54.5553 39.0076 54.5553C38.3835 54.5553 37.8634 54.8694 37.8634 55.1836Z" fill="#DFDFDF"/>
<path d="M37.4477 55.1836C37.4477 55.2883 37.5518 55.393 37.6558 55.393H40.4643C40.5683 55.393 40.6724 55.2883 40.6724 55.1836C40.6724 55.0789 40.5683 54.9742 40.4643 54.9742L37.6558 54.8694C37.5518 54.8694 37.3437 54.8694 37.4477 55.1836Z" fill="#5C5C5C"/>
<path d="M24.4447 54.66C24.9648 54.66 25.4849 54.8695 25.4849 55.1836C25.4849 55.4977 25.0688 55.7072 24.4447 55.7072C23.9246 55.7072 23.4045 55.4977 23.4045 55.1836C23.4045 54.8695 23.8205 54.66 24.4447 54.66Z" fill="#C9C9C9"/>
<path d="M23.3009 55.1836C23.3009 55.4977 23.821 55.8119 24.4451 55.8119C25.0693 55.8119 25.5894 55.4977 25.5894 55.1836C25.5894 54.8694 25.0693 54.5553 24.4451 54.5553C23.821 54.5553 23.3009 54.8694 23.3009 55.1836Z" fill="#DFDFDF"/>
<path d="M22.7807 55.1836C22.7807 55.2883 22.8848 55.393 22.9888 55.393H25.7973C25.9013 55.393 26.0054 55.2883 26.0054 55.1836C26.0054 55.0789 25.9013 54.9742 25.7973 54.9742L22.9888 54.8694C22.8848 54.8694 22.6767 54.8694 22.7807 55.1836Z" fill="#5C5C5C"/>
<path d="M51.6982 49.8433L52.2183 50.3668L51.9062 50.681L51.1781 50.4715L51.6982 49.8433Z" fill="url(#paint0_linear_192_17616)"/>
<path d="M49.8258 50.1574L50.0339 48.482C50.0339 48.1679 50.4499 48.0632 50.866 48.1679C51.6982 48.482 52.0103 50.2621 52.0103 50.2621C51.8022 50.681 51.1781 50.681 50.554 50.681C50.0339 50.681 49.7218 50.4715 49.8258 50.1574Z" fill="#C4C4C4"/>
<path d="M68.9655 60.3145C68.9655 60.5239 69.0695 60.6286 69.2775 60.6286H70.8378C71.0459 60.6286 71.1499 60.5239 71.1499 60.3145C71.1499 60.1051 71.0459 60.0004 70.8378 60.0004H69.2775C69.0695 60.0004 68.9655 60.1051 68.9655 60.3145Z" fill="#FF8000"/>
<path d="M58.8753 56.4401C61.6839 56.4401 64.1804 58.1155 65.3246 60.5239L65.8447 62.5135C65.9487 62.8276 65.9487 63.2464 65.9487 63.5606C65.1166 63.5606 64.5965 63.5606 64.5965 63.5606H51.802C51.6979 59.6862 54.9226 56.4401 58.8753 56.4401Z" fill="black"/>
<path d="M52.7378 63.5606C52.7378 66.9114 55.4424 69.6339 58.771 69.6339C62.0997 69.6339 64.8042 66.9114 64.8042 63.5606C64.8042 60.2098 62.0997 57.4872 58.771 57.4872C55.4424 57.4872 52.7378 60.2098 52.7378 63.5606Z" fill="#504E51"/>
<path d="M58.8749 67.5396C61.0593 67.5396 62.8276 65.7595 62.8276 63.5606C62.8276 61.3616 61.0593 59.5815 58.8749 59.5815C56.6904 59.5815 54.9221 61.3616 54.9221 63.5606C54.9221 65.7595 56.6904 67.5396 58.8749 67.5396Z" fill="#F0F0F0"/>
<path d="M60.4351 60.4192L59.2908 62.304C59.0828 62.7229 58.6667 62.7229 58.3547 62.304L57.2104 60.4192C57.2104 60.4192 57.8346 60.0004 58.7707 60.0004C59.8109 59.8956 60.4351 60.4192 60.4351 60.4192Z" fill="black"/>
<path d="M62.3078 64.1889L60.1234 63.6653C59.6033 63.5606 59.4993 63.1417 59.8114 62.8276L61.2676 61.2569C61.2676 61.2569 61.8918 61.7805 62.0998 62.6182C62.5159 63.4559 62.4119 64.1889 62.3078 64.1889Z" fill="black"/>
<path d="M59.2916 67.1208L59.1876 64.9219C59.1876 64.3983 59.4996 64.1889 59.9157 64.3983L61.8921 65.3407C61.8921 65.3407 61.58 66.0737 60.8519 66.5973C60.1237 67.1208 59.2916 67.1208 59.2916 67.1208Z" fill="black"/>
<path d="M55.6509 65.0266L57.7313 64.1889C58.1474 63.9794 58.4595 64.2936 58.4595 64.7124L58.1474 66.9114C58.1474 66.9114 57.3153 66.8067 56.6911 66.2831C55.859 65.8643 55.5469 65.0266 55.6509 65.0266Z" fill="black"/>
<path d="M56.4823 60.9427L57.8346 62.7229C58.1467 63.1417 57.9386 63.4559 57.5226 63.5606L55.3381 63.8747C55.3381 63.8747 55.1301 63.037 55.5462 62.304C55.8582 61.4663 56.4823 60.9427 56.4823 60.9427Z" fill="black"/>
<path d="M14.4588 56.4401C17.2674 56.4401 19.7639 58.1155 20.9081 60.5239L21.5322 62.5135C21.6362 62.8276 21.6362 63.2464 21.6362 63.5606C20.8041 63.5606 20.284 63.5606 20.284 63.5606L7.48947 63.2464C7.38545 59.3721 10.5061 56.4401 14.4588 56.4401Z" fill="black"/>
<path d="M8.32183 63.5606C8.32183 66.9114 11.0264 69.6339 14.355 69.6339C17.6837 69.6339 20.3882 66.9114 20.3882 63.5606C20.3882 60.2098 17.6837 57.4872 14.355 57.4872C11.1304 57.4872 8.32183 60.2098 8.32183 63.5606Z" fill="#504E51"/>
<path d="M14.4588 67.5396C16.6433 67.5396 18.4116 65.7595 18.4116 63.5606C18.4116 61.3616 16.6433 59.5815 14.4588 59.5815C12.2744 59.5815 10.5061 61.3616 10.5061 63.5606C10.5061 65.7595 12.2744 67.5396 14.4588 67.5396Z" fill="#F0F0F0"/>
<path d="M16.019 60.4192L14.8748 62.304C14.6668 62.7229 14.2507 62.7229 13.9386 62.304L12.7944 60.4192C12.7944 60.4192 13.4185 60.0004 14.3547 60.0004C15.3949 60.0004 16.019 60.4192 16.019 60.4192Z" fill="black"/>
<path d="M17.8917 64.2936L15.7073 63.77C15.1872 63.6653 15.0832 63.2465 15.3952 62.9323L16.8515 61.3616C16.8515 61.3616 17.4756 61.8852 17.7877 62.7229C18.2038 63.4559 17.9957 64.2936 17.8917 64.2936Z" fill="black"/>
<path d="M14.8756 67.1208L14.7715 64.9219C14.7715 64.3983 15.0836 64.1889 15.4997 64.3983L17.4761 65.3407C17.4761 65.3407 17.164 66.0737 16.4359 66.5973C15.7077 67.1208 14.8756 67.2255 14.8756 67.1208Z" fill="black"/>
<path d="M11.2349 65.1313L13.3153 64.2936C13.7314 64.0842 14.0435 64.3983 14.0435 64.8172L13.7314 67.0161C13.7314 67.0161 12.8992 66.9114 12.2751 66.3878C11.4429 65.8643 11.1309 65.1313 11.2349 65.1313Z" fill="black"/>
<path d="M12.0663 61.0475L13.4186 62.8276C13.7307 63.2465 13.5226 63.5606 13.1065 63.6653L10.9221 63.9794C10.9221 63.9794 10.7141 63.1417 11.1302 62.4087C11.4422 61.4663 12.0663 61.0475 12.0663 61.0475Z" fill="black"/>
<path d="M21.3237 63.5606H52.3218V62.5135H21.1157L21.3237 63.5606Z" fill="#262529"/>
<path d="M70.4215 53.194L67.0928 52.8799C67.7169 53.2987 68.5491 53.8223 69.4853 54.5553C70.2134 55.0788 71.1496 55.393 71.8777 55.6024C72.2938 55.7071 72.7099 55.8118 73.022 56.0213C72.918 55.7071 72.8139 55.393 72.6059 55.1836C72.0858 54.5553 71.3576 53.8223 70.4215 53.194Z" fill="white"/>
<path d="M69.0694 26.0735C70.6297 26.0735 71.9819 24.8169 71.9819 23.1415V2.93195C71.9819 1.25655 70.6297 0 69.0694 0H48.9934C47.3291 0 46.0809 1.25655 46.0809 2.93195V23.1415C46.0809 24.7122 47.3291 26.0735 48.9934 26.0735H69.0694Z" fill="#006BD6"/>
<path d="M57.8257 15.2098V19.5483H54.8188V6.73462H59.3291C60.2312 6.73462 61.033 6.83551 61.6343 7.0373C62.2357 7.23909 62.8371 7.54178 63.238 7.94536C63.6389 8.34894 63.9396 8.75252 64.14 9.25699C64.3405 9.76147 64.4407 10.3668 64.4407 10.8713C64.4407 11.4767 64.3405 12.0821 64.14 12.5865C63.9396 13.091 63.6389 13.5955 63.238 13.9991C62.8371 14.4026 62.2357 14.7053 61.6343 14.9071C61.033 15.1089 60.2312 15.2098 59.3291 15.2098H57.8257ZM57.8257 12.9901H59.3291C60.1309 12.9901 60.6321 12.7883 61.033 12.3847C61.3337 11.9812 61.5341 11.4767 61.5341 10.8713C61.5341 10.5686 61.5341 10.2659 61.4339 10.0642C61.3337 9.86237 61.2334 9.66057 61.033 9.45878C60.8325 9.25699 60.6321 9.1561 60.3314 9.0552C60.0307 8.95431 59.73 8.95431 59.3291 8.95431H57.8257V12.9901Z" fill="white"/>
<path d="M48.8896 24.8169H69.0696C70.0057 24.8169 70.7339 24.0839 70.7339 23.1415V2.93193C70.7339 1.98952 70.0057 1.25653 69.0696 1.25653H48.9936C48.0575 1.25653 47.3293 1.98952 47.3293 2.93193V23.1415C47.3293 24.0839 48.0575 24.8169 48.8896 24.8169ZM69.0696 1.78009C69.6937 1.78009 70.2138 2.30366 70.2138 2.93193V23.1415C70.2138 23.7698 69.6937 24.2933 69.0696 24.2933H48.9936C48.3695 24.2933 47.8494 23.7698 47.8494 23.1415V2.93193C47.8494 2.30366 48.3695 1.78009 48.9936 1.78009H69.0696Z" fill="white"/>
<path d="M31.8302 15.0786C38.3835 15.1833 43.5845 20.419 43.5845 26.9111C43.5845 33.4033 38.3835 38.639 31.9342 38.7437H31.8302C25.3809 38.7437 20.0759 33.4033 20.0759 26.9111C20.0759 20.419 25.3809 15.0786 31.8302 15.0786ZM31.8302 36.44C37.1352 36.3353 41.296 32.1468 41.296 26.9111C41.296 21.6755 37.1352 17.3823 31.9342 17.3823H31.8302C26.6292 17.3823 22.3643 21.6755 22.3643 26.9111C22.3643 32.1468 26.6292 36.44 31.8302 36.44Z" fill="#FFCA40"/>
<path d="M31.8305 17.2776C37.1356 17.3823 41.2964 21.5708 41.2964 26.8064C41.2964 32.0421 37.1356 36.3353 31.9346 36.3353H31.8305C26.6295 36.3353 22.3647 32.0421 22.3647 26.8064C22.3647 21.5708 26.6295 17.2776 31.8305 17.2776ZM31.8305 35.9164C36.8235 35.8117 40.8803 31.8327 40.8803 26.8064C40.8803 21.7802 36.9275 17.8012 31.9346 17.6964H31.8305C26.8376 17.6964 22.7808 21.7802 22.7808 26.8064C22.7808 31.8327 26.8376 35.9164 31.8305 35.9164Z" fill="#D47D01"/>
<path d="M31.8306 17.8011C36.8236 17.8011 40.8804 21.8849 40.8804 26.8064C40.8804 31.8326 36.9276 35.8117 31.9346 35.9164H31.8306C26.8376 35.9164 22.7808 31.8326 22.7808 26.8064C22.7808 21.8849 26.8376 17.8011 31.8306 17.8011Z" fill="#FF9400"/>
<path d="M34.8691 27.0658H33.5519C33.5519 26.4968 33.4813 26.0397 33.3401 25.6944C33.1988 25.3428 32.9686 25.0743 32.6493 24.8889V27.0658H32.1058V24.7162C32.0076 24.6971 31.9063 24.6875 31.8019 24.6875C31.6975 24.6875 31.5992 24.6971 31.5071 24.7162V27.0658H30.9637V24.8889C30.6505 25.0743 30.4233 25.3396 30.2821 25.6848C30.147 26.0237 30.0795 26.4488 30.0795 26.9603C30.0795 27.4334 30.1562 27.8522 30.3097 28.2166C30.4694 28.5746 30.6905 28.8527 30.9729 29.0509C31.2615 29.2491 31.5962 29.3482 31.9769 29.3482H34.2059V30.4415H29.1123V29.3866H29.9689V29.3482C29.7233 29.2012 29.5084 28.9934 29.3242 28.7249C29.1461 28.4564 29.011 28.1559 28.9189 27.8234C28.8268 27.4846 28.7808 27.1361 28.7808 26.7781C28.7808 26.3178 28.8698 25.8798 29.0479 25.4643C29.2259 25.0423 29.4808 24.6811 29.8124 24.3806C30.1439 24.0801 30.5277 23.8691 30.9637 23.7477V22.6927H31.5071V23.6422C31.5747 23.6358 31.6791 23.6326 31.8203 23.6326C31.8817 23.6326 31.9308 23.6358 31.9677 23.6422H32.1058V22.6927H32.6493V23.7477C33.1037 23.8691 33.4967 24.0897 33.8282 24.4094C34.166 24.7226 34.4239 25.1094 34.6019 25.5698C34.78 26.0237 34.8691 26.5224 34.8691 27.0658Z" fill="white"/>
</g>
<path d="M111.95 26.7532C112.732 27.5359 112.772 28.8274 111.95 29.6493L89.0937 52.5053C88.311 53.2881 87.0195 53.3272 86.1976 52.5053C85.4148 51.7226 85.3757 50.4311 86.1976 49.6092L109.054 26.7532C109.875 25.9313 111.128 25.9313 111.95 26.7532Z" fill="#E0DFDB"/>
<path d="M93.3146 47.3449L92.4144 48.245L91.5534 45.114L92.4536 44.2139L93.3146 47.3449Z" fill="#0D4286"/>
<path d="M96.7199 43.9399L95.8197 44.84L94.9587 41.7091L95.8589 40.8089L96.7199 43.9399Z" fill="#0D4286"/>
<path d="M100.125 40.535L99.2245 41.4351L98.4026 38.265L99.2636 37.404L100.125 40.535Z" fill="#0D4286"/>
<path d="M103.529 37.13L102.629 38.0302L101.807 34.8601L102.708 33.9599L103.529 37.13Z" fill="#0D4286"/>
<path d="M106.935 33.725L106.035 34.6252L105.213 31.4551L106.113 30.5549L106.935 33.725Z" fill="#0D4286"/>
<path d="M110.378 30.2811L109.478 31.1812L108.617 28.0503L109.517 27.1501L110.378 30.2811Z" fill="#0D4286"/>
<g clip-path="url(#clip1_192_17616)">
<path d="M94.3336 71.3991C94.2782 67.5266 90.8974 64.4285 86.7408 64.4285C82.5841 64.4285 79.2034 67.5266 79.1479 71.3991H94.3336Z" fill="#262529"/>
<path d="M91.7284 44.3945C91.673 41.8644 89.4561 39.8507 86.7404 39.8507C84.0247 39.8507 81.8079 41.8644 81.7524 44.3945V71.3991H91.7284V44.3945Z" fill="#262529"/>
<path d="M88.2374 61.3305C88.2374 62.105 87.5724 62.7246 86.741 62.7246C85.9097 62.7246 85.2446 62.105 85.2446 61.3305V46.0984C85.2446 45.3239 85.9097 44.7043 86.741 44.7043C87.5724 44.7043 88.2374 45.3239 88.2374 46.0984V61.3305Z" fill="#E6E6E6"/>
<path d="M86.7411 47.9057C85.1893 47.9057 83.9146 46.7181 83.9146 45.2723C83.9146 43.8266 85.1893 42.639 86.7411 42.639C88.2929 42.639 89.5676 43.8266 89.5676 45.2723C89.5676 46.7181 88.2929 47.9057 86.7411 47.9057Z" fill="#E0DFDB"/>
<path d="M88.9025 45.3239C88.9025 46.4599 87.9049 47.3377 86.741 47.3377C85.5218 47.3377 84.5796 46.4083 84.5796 45.3239C84.5796 44.2396 85.5772 43.3102 86.741 43.3102C87.9603 43.2586 88.9025 44.188 88.9025 45.3239Z" fill="#E0DFDB"/>
<path d="M87.461 45.3239C87.461 45.6853 87.1285 45.9951 86.7405 45.9951C86.3526 45.9951 86.02 45.6853 86.02 45.3239C86.02 44.9625 86.3526 44.6526 86.7405 44.6526C87.1285 44.6526 87.461 44.9625 87.461 45.3239Z" fill="#ABAAA7"/>
<path d="M91.7841 64.1187H81.8081V65.0481H91.7841V64.1187Z" fill="#4D4C4B"/>
<path d="M94.3336 71.2959C93.5577 70.005 90.454 69.024 86.7408 69.024C83.0275 69.024 79.9239 70.005 79.1479 71.2959V71.3475H94.3336C94.3336 71.3475 94.3336 71.3475 94.3336 71.2959Z" fill="#F2F2F2"/>
<path d="M83.083 62.2599C83.083 62.4148 82.9722 62.5181 82.8059 62.5181C82.6397 62.5181 82.5288 62.4148 82.5288 62.2599V44.2396C82.5288 44.0847 82.6397 43.9814 82.8059 43.9814C82.9722 43.9814 83.083 44.0847 83.083 44.2396V62.2599Z" fill="#333333"/>
</g>
<defs>
<linearGradient id="paint0_linear_192_17616" x1="51.7432" y1="49.8006" x2="51.7432" y2="50.6869" gradientUnits="userSpaceOnUse">
<stop stop-color="#5F5A5E"/>
<stop offset="0.2754"/>
<stop offset="0.7541"/>
<stop offset="0.8093"/>
</linearGradient>
<clipPath id="clip0_192_17616">
<rect width="74.1665" height="69.7386" fill="white" transform="matrix(-1 0 0 1 74.1665 0)"/>
</clipPath>
<clipPath id="clip1_192_17616">
<rect width="41.5111" height="31.5484" fill="white" transform="translate(79.1479 39.8507)"/>
</clipPath>
</defs>
</svg>
