<svg width="107" height="67" viewBox="0 0 107 67" fill="none" xmlns="http://www.w3.org/2000/svg">
<rect y="62.9569" width="106.853" height="4.0431" fill="black"/>
<rect y="56.6035" width="106.853" height="4.0431" fill="black"/>
<rect y="50.25" width="106.853" height="4.0431" fill="black"/>
<path d="M41.363 35.4726C49.9709 34.9132 58.0198 35.2489 63.0504 37.3745C66.0688 38.6051 71.9937 42.297 74.3413 42.8563C76.6889 43.4157 87.5326 42.7445 92.1161 47.3313C94.1283 49.3451 93.9047 53.1488 92.3396 54.7151C90.7746 56.1694 94.0165 57.6238 85.2968 57.6238C80.6016 57.6238 24.5944 57.6238 24.5944 57.6238L13.9742 56.5051V51.9182V46.772C13.9742 46.772 14.086 46.1007 14.3096 45.3176C14.4214 44.5345 15.6511 43.7513 16.9926 43.5276L23.7 42.6326C23.5882 42.6326 32.7551 36.1439 41.363 35.4726Z" fill="#FECB21"/>
<path d="M66.8512 39.9476C64.839 38.8288 62.6031 37.5982 60.8145 36.7032C61.597 36.9269 62.3796 37.2626 63.0503 37.4863C66.0687 38.7169 71.9936 42.4088 74.3412 42.9682C74.6765 43.08 75.2355 43.1919 75.9062 43.3038C73.2233 43.3038 69.8695 41.7376 66.8512 39.9476Z" fill="black"/>
<path d="M87.1978 56.505L87.8686 55.3863L91.6695 55.2744H91.7812C91.2223 56.505 92.7874 57.6238 85.0738 57.6238C84.7384 57.6238 84.0677 57.6238 83.0616 57.6238V56.505H87.1978Z" fill="#262529"/>
<path d="M34.9911 38.7169C39.3509 36.9269 46.282 35.6963 56.6785 37.3744C56.6785 37.3744 62.9388 38.1575 68.193 41.8494C69.0873 42.5207 69.9816 43.1919 70.876 43.975L28.619 42.9682C28.619 42.9682 30.4077 40.6188 34.9911 38.7169Z" fill="black"/>
<path d="M13.8625 53.5963L19.2285 53.9319L21.3525 57.2882L13.8625 56.5051V53.5963Z" fill="#262529"/>
<path d="M91.8926 51.5826L93.3459 51.0232C93.4577 52.3657 93.2341 53.9319 92.228 54.7151L91.669 53.7082L91.8926 51.5826Z" fill="#262529"/>
<path d="M13.8623 47.2194C15.7628 47.2194 18.334 48.2263 18.334 48.2263L16.7689 50.0163H13.8623V47.2194Z" fill="#992520"/>
<path d="M47.3999 36.5914C50.0829 36.5914 53.213 36.8151 56.6785 37.3745C56.6785 37.3745 65.3982 38.4932 70.876 43.9751L28.619 42.9682C28.619 42.9682 33.2025 36.5914 47.3999 36.5914ZM36.109 39.3882V42.1851L49.8593 42.5207C49.9711 41.7376 50.3065 38.8289 49.6357 37.5982C48.8532 37.5982 48.1824 37.5982 47.3999 37.5982C42.4811 37.5982 38.792 38.3814 36.109 39.3882ZM56.5667 38.3814C55.1135 38.1576 53.772 37.9339 52.3187 37.822V42.6326L68.193 42.9682C63.1624 39.2764 56.6785 38.3814 56.5667 38.3814ZM35.1029 42.1851C35.1029 41.6257 35.2147 40.6189 35.1029 39.7239C33.2025 40.507 31.861 41.402 30.9666 42.0732L35.1029 42.1851Z" fill="#303030"/>
<path d="M55.7835 48.1144C56.3424 48.1144 56.9014 48.3382 56.9014 48.6738C56.9014 49.0094 56.4542 49.2332 55.7835 49.2332C55.2245 49.2332 54.6655 49.0094 54.6655 48.6738C54.6655 48.3382 55.2245 48.1144 55.7835 48.1144Z" fill="#C9C9C9"/>
<path d="M54.5543 48.6738C54.5543 49.0094 55.1132 49.3451 55.784 49.3451C56.4547 49.3451 57.0137 49.0094 57.0137 48.6738C57.0137 48.3382 56.4547 48.0026 55.784 48.0026C55.1132 48.0026 54.5543 48.3382 54.5543 48.6738Z" fill="#DFDFDF"/>
<path d="M54.1068 48.6738C54.1068 48.7856 54.2185 48.8975 54.3303 48.8975H57.3487C57.4605 48.8975 57.5723 48.7856 57.5723 48.6738C57.5723 48.5619 57.4605 48.45 57.3487 48.45L54.3303 48.3381C54.2185 48.3381 53.995 48.3381 54.1068 48.6738Z" fill="#5C5C5C"/>
<path d="M40.1331 48.1144C40.692 48.1144 41.251 48.3382 41.251 48.6738C41.251 49.0094 40.8038 49.2332 40.1331 49.2332C39.5741 49.2332 39.0152 49.0094 39.0152 48.6738C39.0152 48.3382 39.4623 48.1144 40.1331 48.1144Z" fill="#C9C9C9"/>
<path d="M38.9039 48.6738C38.9039 49.0094 39.4628 49.3451 40.1336 49.3451C40.8043 49.3451 41.3633 49.0094 41.3633 48.6738C41.3633 48.3382 40.8043 48.0026 40.1336 48.0026C39.4628 48.0026 38.9039 48.3382 38.9039 48.6738Z" fill="#DFDFDF"/>
<path d="M38.345 48.6738C38.345 48.7856 38.4568 48.8975 38.5686 48.8975H41.587C41.6988 48.8975 41.8105 48.7856 41.8105 48.6738C41.8105 48.5619 41.6988 48.45 41.587 48.45L38.5686 48.3381C38.4568 48.3381 38.2332 48.3381 38.345 48.6738Z" fill="#5C5C5C"/>
<path d="M69.4225 42.9682L69.9814 43.5276L69.6461 43.8632L68.8635 43.6395L69.4225 42.9682Z" fill="url(#paint0_linear_192_17341)"/>
<path d="M67.4102 43.3038L67.6338 41.5138C67.6338 41.1782 68.0809 41.0663 68.5281 41.1782C69.4224 41.5138 69.7578 43.4157 69.7578 43.4157C69.5342 43.8632 68.8635 43.8632 68.1927 43.8632C67.6338 43.8632 67.2984 43.6394 67.4102 43.3038Z" fill="#C4C4C4"/>
<path d="M87.9795 54.1556C87.9795 54.3794 88.0913 54.4913 88.3149 54.4913H89.9918C90.2154 54.4913 90.3271 54.3794 90.3271 54.1556C90.3271 53.9319 90.2154 53.82 89.9918 53.82H88.3149C88.0913 53.82 87.9795 53.9319 87.9795 54.1556Z" fill="#FF8000"/>
<path d="M77.1365 50.0163C80.1549 50.0163 82.8378 51.8063 84.0675 54.3794L84.6265 56.505C84.7383 56.8407 84.7383 57.2882 84.7383 57.6238C83.844 57.6238 83.285 57.6238 83.285 57.6238H69.5347C69.4229 53.4844 72.8884 50.0163 77.1365 50.0163Z" fill="black"/>
<path d="M70.541 57.6238C70.541 61.2038 73.4476 64.1125 77.0249 64.1125C80.6022 64.1125 83.5088 61.2038 83.5088 57.6238C83.5088 54.0438 80.6022 51.1351 77.0249 51.1351C73.4476 51.1351 70.541 54.0438 70.541 57.6238Z" fill="#504E51"/>
<path d="M77.1367 61.875C79.4843 61.875 81.3848 59.9732 81.3848 57.6238C81.3848 55.2744 79.4843 53.3726 77.1367 53.3726C74.7891 53.3726 72.8887 55.2744 72.8887 57.6238C72.8887 59.9732 74.7891 61.875 77.1367 61.875Z" fill="#EBC899"/>
<path d="M78.8135 54.2675L77.5838 56.2813C77.3602 56.7288 76.913 56.7288 76.5777 56.2813L75.348 54.2675C75.348 54.2675 76.0187 53.82 77.0248 53.82C78.1427 53.7082 78.8135 54.2675 78.8135 54.2675Z" fill="black"/>
<path d="M80.8258 58.2951L78.4782 57.7357C77.9192 57.6238 77.8074 57.1763 78.1428 56.8407L79.7079 55.1626C79.7079 55.1626 80.3786 55.722 80.6022 56.617C81.0494 57.512 80.9376 58.2951 80.8258 58.2951Z" fill="black"/>
<path d="M77.5841 61.4275L77.4723 59.0782C77.4723 58.5188 77.8077 58.295 78.2549 58.5188L80.3789 59.5257C80.3789 59.5257 80.0435 60.3088 79.261 60.8682C78.4785 61.4275 77.5841 61.4275 77.5841 61.4275Z" fill="black"/>
<path d="M73.6711 59.19L75.9069 58.295C76.3541 58.0713 76.6895 58.4069 76.6895 58.8544L76.3541 61.2038C76.3541 61.2038 75.4598 61.0919 74.789 60.5325C73.8947 60.085 73.5593 59.19 73.6711 59.19Z" fill="black"/>
<path d="M74.5649 54.8269L76.0182 56.7288C76.3536 57.1763 76.13 57.5119 75.6828 57.6238L73.3352 57.9594C73.3352 57.9594 73.1116 57.0644 73.5588 56.2813C73.8942 55.3863 74.5649 54.8269 74.5649 54.8269Z" fill="black"/>
<path d="M29.4017 50.0163C32.42 50.0163 35.103 51.8063 36.3327 54.3794L37.0034 56.505C37.1152 56.8407 37.1152 57.2882 37.1152 57.6238C36.2209 57.6238 35.662 57.6238 35.662 57.6238L21.9117 57.2882C21.7999 53.1488 25.1536 50.0163 29.4017 50.0163Z" fill="black"/>
<path d="M22.8057 57.6238C22.8057 61.2038 25.7123 64.1125 29.2896 64.1125C32.8669 64.1125 35.7734 61.2038 35.7734 57.6238C35.7734 54.0438 32.8669 51.1351 29.2896 51.1351C25.8241 51.1351 22.8057 54.0438 22.8057 57.6238Z" fill="#504E51"/>
<path d="M29.4014 61.875C31.749 61.875 33.6494 59.9732 33.6494 57.6238C33.6494 55.2744 31.749 53.3726 29.4014 53.3726C27.0537 53.3726 25.1533 55.2744 25.1533 57.6238C25.1533 59.9732 27.0537 61.875 29.4014 61.875Z" fill="#EBC899"/>
<path d="M31.0781 54.2675L29.8484 56.2813C29.6248 56.7288 29.1777 56.7288 28.8423 56.2813L27.6126 54.2675C27.6126 54.2675 28.2834 53.82 29.2895 53.82C30.4074 53.82 31.0781 54.2675 31.0781 54.2675Z" fill="black"/>
<path d="M33.0904 58.4069L30.7428 57.8475C30.1838 57.7357 30.072 57.2882 30.4074 56.9525L31.9725 55.2744C31.9725 55.2744 32.6432 55.8338 32.9786 56.7288C33.4257 57.5119 33.2022 58.4069 33.0904 58.4069Z" fill="black"/>
<path d="M29.8478 61.4275L29.736 59.0781C29.736 58.5187 30.0714 58.295 30.5185 58.5187L32.6426 59.5256C32.6426 59.5256 32.3072 60.3087 31.5247 60.8681C30.7421 61.4275 29.8478 61.5393 29.8478 61.4275Z" fill="black"/>
<path d="M25.9357 59.3018L28.1716 58.4069C28.6187 58.1831 28.9541 58.5187 28.9541 58.9662L28.6187 61.3156C28.6187 61.3156 27.7244 61.2037 27.0537 60.6443C26.1593 60.085 25.824 59.3018 25.9357 59.3018Z" fill="black"/>
<path d="M26.8296 54.9387L28.2829 56.8406C28.6182 57.2881 28.3947 57.6237 27.9475 57.7356L25.5999 58.0712C25.5999 58.0712 25.3763 57.1762 25.8235 56.3931C26.1588 55.3862 26.8296 54.9387 26.8296 54.9387Z" fill="black"/>
<path d="M36.7801 57.6238H70.0938V56.505H36.5565L36.7801 57.6238Z" fill="#262529"/>
<path d="M89.5451 46.5481L85.9678 46.2125C86.6385 46.66 87.5328 47.2194 88.539 48.0025C89.3215 48.5619 90.3276 48.8975 91.1101 49.1213C91.5573 49.2331 92.0045 49.345 92.3398 49.5688C92.2281 49.2331 92.1163 48.8975 91.8927 48.6738C91.3337 48.0025 90.5512 47.2194 89.5451 46.5481Z" fill="black"/>
<g clip-path="url(#clip0_192_17341)">
<path d="M79.7609 27.7241H26.5151C24.6349 27.7241 23.1035 26.2179 23.1035 24.3686V3.35553C23.1035 1.50626 24.6349 0 26.5151 0H79.7609C81.6411 0 83.1725 1.50626 83.1725 3.35553V24.3686C83.1725 26.2179 81.6411 27.7241 79.7609 27.7241ZM26.5151 0.422548C24.8674 0.422548 23.5331 1.7399 23.5331 3.35553V24.3686C23.5331 25.9892 24.8725 27.3016 26.5151 27.3016H79.7609C81.4086 27.3016 82.7429 25.9842 82.7429 24.3686V3.35553C82.7429 1.73493 81.4035 0.422548 79.7609 0.422548H26.5151Z" fill="#006BD6"/>
<path d="M25.0137 23.8367V3.88744C25.0137 2.83355 25.883 1.97852 26.9494 1.97852H79.3209C80.3924 1.97852 81.2566 2.83355 81.2566 3.88247V23.8317C81.2566 24.8856 80.3873 25.7357 79.3209 25.7357H26.9494C25.883 25.7406 25.0137 24.8906 25.0137 23.8367Z" fill="#006BD6"/>
<path d="M53.9561 6.41718H55.5252C55.9371 6.41718 56.2472 6.53099 56.4509 6.75862C56.6545 6.98625 56.7564 7.31859 56.7564 7.75109C56.7564 8.24277 56.636 8.58421 56.4 8.77542C56.1639 8.96663 55.8306 9.06223 55.4048 9.06223H54.9882V11.0153H53.9561V6.41718ZM55.34 8.35203C55.5205 8.35203 55.6409 8.3065 55.701 8.2109C55.7612 8.11529 55.789 7.95595 55.789 7.73288C55.789 7.52801 55.7612 7.37777 55.701 7.27762C55.6455 7.17746 55.5205 7.13193 55.3308 7.13193H54.9882V8.35203H55.34Z" fill="black"/>
<path d="M58.0479 6.41718H59.2235L60.0937 11.0198H59.1402L58.9829 10.0501H58.2978L58.1358 11.0198H57.1592L58.0479 6.41718ZM58.8903 9.4401L58.6403 7.64638L58.3904 9.4401H58.8903Z" fill="black"/>
<path d="M60.9727 6.41718H62.2594C62.7732 6.41718 63.1574 6.50823 63.4212 6.68578C63.685 6.86333 63.8146 7.18201 63.8146 7.63272C63.8146 7.93774 63.773 8.18358 63.6943 8.36569C63.6156 8.54779 63.4629 8.68892 63.2453 8.79363L63.8887 11.0198H62.8195L62.3057 8.95752H62.0095V11.0198H60.9773V6.41718H60.9727ZM62.2964 8.37024C62.5047 8.37024 62.6482 8.31561 62.7315 8.20634C62.8149 8.09708 62.8565 7.93774 62.8565 7.71922C62.8565 7.5098 62.8195 7.35501 62.7408 7.2503C62.6621 7.14559 62.5325 7.09551 62.3427 7.09551H62.0095V8.36569H62.2964V8.37024Z" fill="black"/>
<path d="M64.8428 6.41718H65.875V8.2974L66.6618 6.41718H67.6709L66.8053 8.49771L67.7125 11.0198H66.6618L65.986 8.98484L65.875 9.16694V11.0198H64.8428V6.41718Z" fill="black"/>
<path d="M68.5273 6.41718H69.5595V11.0198H68.5273V6.41718Z" fill="black"/>
<path d="M70.665 6.41718H71.3917L72.3499 8.63429V6.41718H73.2062V11.0198H72.5072L71.5491 8.63429V11.0198H70.665V6.41718Z" fill="black"/>
<path d="M74.5394 10.6693C74.345 10.3916 74.2432 10.0001 74.2432 9.49474V7.95141C74.2432 7.43242 74.3496 7.03634 74.5625 6.76319C74.7755 6.49003 75.1365 6.35345 75.6456 6.35345C76.1363 6.35345 76.4834 6.47182 76.6963 6.704C76.9093 6.94074 77.0157 7.26853 77.0157 7.69647V7.99239H76.0067V7.61908C76.0067 7.43697 75.9835 7.30039 75.9419 7.20934C75.9002 7.11829 75.803 7.06821 75.6595 7.06821C75.5114 7.06821 75.4142 7.11829 75.3679 7.223C75.3216 7.32316 75.3031 7.46884 75.3031 7.65094V9.78156C75.3031 9.96366 75.3309 10.1048 75.3864 10.2095C75.442 10.3142 75.5438 10.3643 75.6919 10.3643C75.9604 10.3643 76.0946 10.164 76.0946 9.7679V9.22614H75.6734V8.62975H77.025V11.0153H76.3446L76.289 10.6329C76.1409 10.9334 75.891 11.0836 75.5346 11.0836C75.0671 11.0836 74.7384 10.947 74.5394 10.6693Z" fill="black"/>
<path d="M55.2849 12.9138H57.3724L58.9184 21.072H57.229L56.9512 19.3511H55.7339L55.4469 21.072H53.7158L55.2849 12.9138ZM56.78 18.2722L56.3403 15.0899L55.9005 18.2722H56.78Z" fill="black"/>
<path d="M60.4736 12.9138H62.7555C63.6628 12.9138 64.3478 13.0731 64.8153 13.3872C65.2782 13.7014 65.5096 14.2613 65.5096 15.0671C65.5096 15.6089 65.4402 16.0459 65.2967 16.3646C65.1532 16.6879 64.8893 16.9382 64.4959 17.1204L65.6346 21.0675H63.7414L62.8296 17.4117H62.3066V21.0675H60.4736V12.9138ZM62.8203 16.3783C63.1906 16.3783 63.4452 16.2827 63.5933 16.0915C63.7414 15.9003 63.8155 15.6134 63.8155 15.231C63.8155 14.8623 63.7461 14.5846 63.6118 14.4025C63.473 14.2158 63.2416 14.1247 62.9037 14.1247H62.3112V16.3783H62.8203Z" fill="black"/>
<path d="M67.3376 12.9138H71.0637V14.143H69.1706V16.1689H70.6101V17.4163H69.1659V19.8519H71.0822V21.072H67.333V12.9138H67.3376Z" fill="black"/>
<path d="M73.7949 12.9138H75.8825L77.4284 21.072H75.739L75.4613 19.3511H74.2439L73.9569 21.072H72.2305L73.7949 12.9138ZM75.29 18.2722L74.8503 15.0899L74.4106 18.2722H75.29Z" fill="black"/>
<path d="M34.3378 11.7326C34.3378 11.7326 33.0255 11.8577 30.8032 11.9828C28.602 12.1079 27.2051 12.3373 26.8664 13.3799C26.7606 13.7344 26.6548 14.1723 26.5913 14.5893C26.4643 15.3817 26.9299 16.1115 26.9299 16.1115C26.9299 16.1115 28.5173 16.1741 30.6339 16.2366C30.782 17.3626 31.7768 18.2384 32.962 18.2384C34.105 18.2384 35.0786 17.4252 35.2691 16.3409C36.793 16.3617 38.7402 16.3826 39.9254 16.3409V11.7326C39.1847 11.7535 38.1052 11.7952 37.1951 11.7952C35.65 11.7952 35.3961 11.5658 37.0681 10.4398C38.2745 9.62656 39.3963 9.27207 39.9254 9.12611V8.72992C39.6926 8.72992 38.1687 9.001 36.8565 9.77252C35.5654 10.544 34.3378 11.7326 34.3378 11.7326ZM29.5756 13.3382L27.3321 13.3799C27.3321 13.3799 27.6072 12.942 28.1998 12.7127C28.7713 12.4833 29.6603 12.5667 29.6603 12.5667L29.5756 13.3382ZM34.5706 16.3409C34.3801 17.029 33.7452 17.5503 32.9832 17.5503C32.2001 17.5503 31.5228 16.9873 31.3746 16.2575C31.3535 16.1532 31.3323 16.049 31.3323 15.9239C31.3323 15.0272 32.0731 14.2974 32.9832 14.2974C33.8933 14.2974 34.6341 15.0272 34.6341 15.9239C34.6129 16.0698 34.5918 16.2158 34.5706 16.3409Z" fill="black"/>
<path d="M48.8193 13.5323H49.4494V14.7027L50.569 13.5323H51.3555L50.2359 14.6474L51.4639 16.3555H50.6733L49.8105 15.0863L49.4494 15.4461V16.3555H48.8193V13.5323Z" fill="black"/>
<path d="M46.5529 14.8095H47.2431C47.3876 14.8095 47.4959 14.7779 47.5682 14.7146C47.6404 14.6513 47.6765 14.5485 47.6765 14.4062C47.6765 14.2691 47.6404 14.1703 47.5682 14.1096C47.4959 14.0464 47.3876 14.0147 47.2431 14.0147H46.5529V14.8095ZM45.9229 13.5323H47.4678C47.5963 13.5323 47.7113 13.5534 47.8129 13.5956C47.9173 13.6352 48.0056 13.6905 48.0778 13.7617C48.1527 13.8329 48.2089 13.9159 48.2463 14.0108C48.2865 14.103 48.3065 14.2032 48.3065 14.3113C48.3065 14.4774 48.2704 14.621 48.1982 14.7423C48.1286 14.8635 48.0136 14.9558 47.8531 15.0191V15.027C47.9307 15.0481 47.9949 15.081 48.0457 15.1258C48.0965 15.168 48.138 15.2194 48.1701 15.28C48.2022 15.338 48.2249 15.4026 48.2383 15.4738C48.2544 15.545 48.2651 15.6161 48.2704 15.6873C48.2731 15.7321 48.2758 15.7848 48.2785 15.8455C48.2811 15.9061 48.2851 15.968 48.2905 16.0313C48.2985 16.0946 48.3092 16.1552 48.3226 16.2132C48.3386 16.2685 48.3614 16.316 48.3908 16.3555H47.7608C47.726 16.2659 47.7046 16.1591 47.6966 16.0353C47.6885 15.9114 47.6765 15.7927 47.6605 15.6794C47.6391 15.5318 47.5936 15.4237 47.524 15.3552C47.4545 15.2866 47.3408 15.2524 47.1829 15.2524H46.5529V16.3555H45.9229V13.5323Z" fill="black"/>
<path d="M43.8983 15.2642H44.6407L44.2795 14.2283H44.2715L43.8983 15.2642ZM43.9585 13.5323H44.6046L45.676 16.3555H45.0219L44.8052 15.7268H43.7338L43.509 16.3555H42.875L43.9585 13.5323Z" fill="black"/>
<path d="M41.4269 14.8609H41.9165C41.9887 14.8609 42.0583 14.8556 42.1252 14.8451C42.192 14.8345 42.2509 14.8148 42.3017 14.7858C42.3526 14.7541 42.3927 14.7107 42.4221 14.6553C42.4542 14.5999 42.4703 14.5274 42.4703 14.4378C42.4703 14.3482 42.4542 14.2757 42.4221 14.2204C42.3927 14.165 42.3526 14.1228 42.3017 14.0938C42.2509 14.0622 42.192 14.0411 42.1252 14.0306C42.0583 14.02 41.9887 14.0147 41.9165 14.0147H41.4269V14.8609ZM40.7969 13.5323H42.089C42.2683 13.5323 42.4208 13.5587 42.5465 13.6114C42.6723 13.6615 42.7739 13.7287 42.8515 13.8131C42.9318 13.8974 42.9893 13.9937 43.0241 14.1017C43.0615 14.2098 43.0802 14.3218 43.0802 14.4378C43.0802 14.5512 43.0615 14.6632 43.0241 14.7739C42.9893 14.882 42.9318 14.9782 42.8515 15.0626C42.7739 15.1469 42.6723 15.2154 42.5465 15.2682C42.4208 15.3183 42.2683 15.3433 42.089 15.3433H41.4269V16.3555H40.7969V13.5323Z" fill="black"/>
<path d="M49.4948 10.455L48.4434 8.73102H49.1496L49.8198 9.84606L50.4859 8.73102H51.1882L50.1248 10.4708V11.5542H49.4948V10.455Z" fill="black"/>
<path d="M46.5759 10.6171C46.5759 10.712 46.5933 10.7924 46.6281 10.8583C46.6629 10.9242 46.7084 10.9782 46.7646 11.0204C46.8234 11.06 46.8916 11.0903 46.9692 11.1114C47.0468 11.1298 47.1271 11.139 47.21 11.139C47.2662 11.139 47.3264 11.1351 47.3906 11.1272C47.4548 11.1166 47.515 11.0982 47.5712 11.0718C47.6273 11.0455 47.6742 11.0099 47.7116 10.9651C47.7491 10.9176 47.7678 10.8583 47.7678 10.7871C47.7678 10.7107 47.7424 10.6487 47.6915 10.6013C47.6434 10.5538 47.5792 10.5143 47.4989 10.4827C47.4187 10.451 47.3277 10.4234 47.226 10.3996C47.1244 10.3759 47.0214 10.3496 46.917 10.3206C46.81 10.2942 46.7057 10.2626 46.604 10.2257C46.5024 10.1861 46.4114 10.136 46.3312 10.0754C46.2509 10.0148 46.1853 9.93965 46.1345 9.85003C46.0864 9.75777 46.0623 9.64705 46.0623 9.51789C46.0623 9.37291 46.0931 9.2477 46.1546 9.14226C46.2188 9.03418 46.3017 8.94455 46.4034 8.87338C46.505 8.80221 46.6201 8.74949 46.7485 8.71522C46.8769 8.68095 47.0053 8.66382 47.1337 8.66382C47.2836 8.66382 47.4267 8.68095 47.5631 8.71522C47.7022 8.74685 47.8253 8.79957 47.9323 8.87338C48.0393 8.94719 48.1236 9.04209 48.1851 9.15807C48.2493 9.27142 48.2814 9.40981 48.2814 9.57325H47.6715C47.6661 9.48889 47.6474 9.41904 47.6153 9.36368C47.5859 9.30833 47.5457 9.26483 47.4949 9.2332C47.4441 9.20157 47.3852 9.17916 47.3183 9.16598C47.2541 9.1528 47.1832 9.14621 47.1057 9.14621C47.0548 9.14621 47.004 9.15148 46.9532 9.16203C46.9023 9.17257 46.8555 9.19102 46.8127 9.21738C46.7726 9.24374 46.7391 9.27669 46.7124 9.31623C46.6856 9.35577 46.6723 9.40586 46.6723 9.46649C46.6723 9.52184 46.683 9.56666 46.7044 9.60092C46.7258 9.63519 46.7672 9.66682 46.8288 9.69582C46.893 9.72482 46.9799 9.75381 47.0896 9.78281C47.202 9.81181 47.3478 9.84871 47.527 9.89352C47.5805 9.90407 47.6541 9.92384 47.7477 9.95283C47.844 9.97919 47.939 10.0227 48.0326 10.0833C48.1263 10.1439 48.2065 10.2257 48.2734 10.3285C48.343 10.4286 48.3778 10.5578 48.3778 10.716C48.3778 10.8451 48.3523 10.9651 48.3015 11.0758C48.2507 11.1865 48.1744 11.2827 48.0728 11.3644C47.9738 11.4435 47.8494 11.5054 47.6996 11.5503C47.5524 11.5951 47.3812 11.6175 47.1859 11.6175C47.0281 11.6175 46.8742 11.5977 46.7244 11.5582C46.5773 11.5213 46.4462 11.462 46.3312 11.3802C46.2188 11.2985 46.1292 11.1944 46.0623 11.0679C45.9954 10.9413 45.9633 10.7911 45.966 10.6171H46.5759Z" fill="black"/>
<path d="M44.121 10.4629H44.8634L44.5022 9.42693H44.4942L44.121 10.4629ZM44.1812 8.73102H44.8272L45.8987 11.5542H45.2446L45.0279 10.9255H43.9564L43.7317 11.5542H43.0977L44.1812 8.73102Z" fill="black"/>
<path d="M40.7969 8.73102H42.9398V9.25295H41.4269V9.85792H42.8154V10.3403H41.4269V11.0323H42.9719V11.5542H40.7969V8.73102Z" fill="black"/>
</g>
<defs>
<linearGradient id="paint0_linear_192_17341" x1="69.4709" y1="42.9227" x2="69.4709" y2="43.8696" gradientUnits="userSpaceOnUse">
<stop stop-color="#5F5A5E"/>
<stop offset="0.2754"/>
<stop offset="0.7541"/>
<stop offset="0.8093"/>
</linearGradient>
<clipPath id="clip0_192_17341">
<rect width="60.069" height="27.7241" fill="white" transform="translate(23.1035)"/>
</clipPath>
</defs>
</svg>
