<svg width="85" height="72" viewBox="0 0 85 72" fill="none" xmlns="http://www.w3.org/2000/svg">
<g clip-path="url(#clip0_192_17520)">
<path d="M34.4239 60.3079C32.7256 60.3079 31.3848 58.9737 31.3848 57.2837V3.02429C31.3848 1.33425 32.7256 0 34.4239 0H60.3458C62.0441 0 63.3849 1.33425 63.3849 3.02429V57.2837C63.3849 58.9737 62.0441 60.3079 60.3458 60.3079H34.4239Z" fill="white"/>
<path d="M31.3848 20.1916V3.02429C31.3848 1.33425 32.7256 0 34.4239 0H60.3458C62.0441 0 63.3849 1.33425 63.3849 3.02429V20.2805H31.3848V20.1916Z" fill="#006BD6"/>
<path d="M61.0611 22.1485H33.5303V42.1622H61.0611V22.1485Z" fill="white"/>
<path d="M61.0611 42.1622H33.5303L35.2286 40.5611H59.4522L61.0611 42.1622Z" fill="white"/>
<path d="M59.3622 28.8197H35.3174V40.5611H59.3622V28.8197Z" fill="black"/>
<path d="M59.2734 28.8197H35.318L33.5303 22.1485H61.0611L59.2734 28.8197Z" fill="white"/>
<path d="M60.7926 43.7633H53.2842V44.297H60.7926V43.7633Z" fill="black"/>
<path d="M61.4185 48.9224H34.0664V52.3914H61.4185V48.9224Z" fill="white"/>
<path d="M31.832 1.4232C33.7985 3.73589 40.0555 5.33699 47.3852 5.33699C54.8042 5.33699 60.9718 3.64694 62.9383 1.4232C62.402 0.533699 61.4187 0 60.3461 0H34.4242C33.3516 0 32.3683 0.622648 31.832 1.4232Z" fill="#0073E6"/>
<path d="M47.2788 13.8094V16.9894H45.0615V7.38464H48.4527C49.1049 7.38464 49.6918 7.44954 50.2135 7.64423C50.67 7.77403 51.1265 8.03361 51.3874 8.2932C51.7135 8.55279 51.9091 8.87727 52.1048 9.26666C52.2352 9.65604 52.3004 10.0454 52.3004 10.4997C52.3004 10.954 52.2352 11.4083 52.0395 11.7976C51.9091 12.187 51.6483 12.5115 51.3222 12.836C50.9961 13.0956 50.6048 13.3552 50.0831 13.485C49.6918 13.6797 49.1049 13.8094 48.4527 13.8094H47.2788ZM47.2788 12.1221H48.4527C49.0396 12.1221 49.4309 11.9923 49.6918 11.7327C49.9527 11.4732 50.0831 11.0838 50.0831 10.5646C50.0831 10.3699 50.0179 10.1752 49.9527 9.98052C49.8874 9.78583 49.757 9.65604 49.6266 9.52624C49.4962 9.39645 49.3005 9.26666 49.1049 9.20176C48.9092 9.13686 48.6484 9.07197 48.3875 9.07197H47.2136V12.1221H47.2788Z" fill="white"/>
<path d="M42.2009 30.5098H37.374V32.9114H42.2009V30.5098Z" fill="#4A4A48"/>
<path d="M53.3741 33.8899H37.374V34.7794H53.3741V33.8899Z" fill="#4A4A48"/>
<path d="M47.2959 35.491H37.374V36.3805H47.2959V35.491Z" fill="#4A4A48"/>
<path d="M47.3853 56.2162C41.4858 56.2162 35.9439 56.8389 31.4746 57.9063C31.7428 59.2405 32.9942 60.3079 34.4243 60.3079H60.3462C61.7764 60.3079 63.0278 59.2405 63.296 57.9063C58.8267 56.8389 53.2848 56.2162 47.3853 56.2162Z" fill="white"/>
<g clip-path="url(#clip1_192_17520)">
<path d="M55.3849 38.7694H55.287C55.0073 38.7694 54.7695 38.5219 54.7695 38.2308V32.5388C54.7695 32.2476 55.0073 32.0001 55.287 32.0001H55.3849C55.6646 32.0001 55.9024 32.2476 55.9024 32.5388V38.2308C55.9024 38.5219 55.6786 38.7694 55.3849 38.7694Z" fill="white"/>
<path d="M55.287 38.4055C55.1891 38.4055 55.1191 38.3181 55.1191 38.2308V32.5388C55.1191 32.4369 55.1891 32.3641 55.287 32.3641H55.3849C55.4828 32.3641 55.5527 32.4514 55.5527 32.5388V38.2308C55.5527 38.3327 55.4688 38.4055 55.3849 38.4055H55.287Z" fill="black"/>
<path d="M59.8883 37.7504C59.7065 37.7504 59.5247 37.663 59.4128 37.5029L58.6435 36.4693C58.4338 36.1927 58.4897 35.7997 58.7414 35.5813C59.0072 35.3629 59.3848 35.4212 59.5946 35.6832L60.3638 36.7168C60.5736 36.9934 60.5177 37.3864 60.2659 37.6048C60.154 37.7067 60.0142 37.7504 59.8883 37.7504Z" fill="#EBC899"/>
<path d="M58.8112 38.289C58.6293 38.289 58.4475 38.2016 58.3356 38.0415L57.5664 37.0079C57.3566 36.7313 57.4125 36.3382 57.6643 36.1199C57.93 35.9015 58.3077 35.9597 58.5174 36.2218L59.2867 37.2554C59.4965 37.532 59.4405 37.925 59.1888 38.1434C59.0769 38.2453 58.937 38.289 58.8112 38.289Z" fill="#EBC899"/>
<path d="M59.3705 33.4413C58.9929 34.4021 58.2237 35.392 58.6433 35.7705C58.881 35.9889 61.2167 35.9889 61.916 36.0326C62.6293 36.0908 63.3566 36.1927 63.6503 35.4648L64.2517 33.9363C64.5454 33.2084 64.1118 33.0046 63.3146 32.5242L60.5454 32.1166C60.5454 32.1166 59.7901 32.3932 59.3705 33.4413Z" fill="#EBC899"/>
<path d="M60.7415 33.3103L58.5456 35.0572L58.7414 34.7369L58.3358 36.018C58.2379 36.3092 57.9442 36.4547 57.6785 36.3674C57.4268 36.28 57.2729 36.0034 57.3289 35.7268L57.6086 34.4167C57.6365 34.3002 57.6925 34.1983 57.7764 34.1255L57.8044 34.0964L59.9163 32.2476C60.196 32.0001 60.6156 32.0438 60.8394 32.3349C61.0771 32.6261 61.0352 33.0628 60.7554 33.2957L60.7415 33.3103Z" fill="#EBC899"/>
<path d="M65.847 33.7762L64.7001 36.6586L62.9658 35.9161L64.0987 33.0483L65.847 33.7762Z" fill="#EBC899"/>
<path d="M56.8257 34.0236H56.8117C55.7348 34.3147 55.0774 35.4502 55.3432 36.5712C55.6089 37.7067 56.6998 38.4054 57.7767 38.1288H57.7907C58.8816 37.8522 59.539 36.7022 59.2732 35.5813C59.0215 34.4458 57.9166 33.747 56.8257 34.0236ZM57.7068 37.7358H57.6928C56.8257 37.9541 55.9446 37.3864 55.7348 36.4838C55.525 35.5813 56.0564 34.6641 56.9236 34.4312H56.9376C57.8187 34.2128 58.6998 34.766 58.9236 35.6832C59.1194 36.5857 58.5879 37.5174 57.7068 37.7358Z" fill="#EA3E10"/>
<path d="M56.9234 34.4166H56.9094C56.0422 34.6496 55.5108 35.5667 55.7206 36.4693C55.9303 37.3718 56.8115 37.9396 57.6786 37.7212H57.6926C58.5737 37.5028 59.1052 36.5712 58.8954 35.654C58.6856 34.766 57.8045 34.1983 56.9234 34.4166ZM57.6786 37.663H57.6646C56.8394 37.8668 56.0003 37.3281 55.7905 36.4693C55.5807 35.6104 56.0982 34.7369 56.9234 34.504H56.9373C57.7765 34.2856 58.6157 34.8242 58.8255 35.6977C59.0353 36.5566 58.5178 37.4446 57.6786 37.663Z" fill="#D47D01"/>
<path d="M56.9371 34.504H56.9231C56.098 34.7223 55.5945 35.5958 55.7903 36.4692C56.0001 37.3281 56.8252 37.8668 57.6644 37.663H57.6784C58.5175 37.4446 59.021 36.5711 58.8252 35.6977C58.6294 34.8242 57.7763 34.2856 56.9371 34.504Z" fill="#FF9400"/>
<path d="M62.2799 36.1927L62.224 36.2364C62.182 36.2655 62.1261 36.3091 62.0841 36.3383L61.9723 36.3965L61.8743 36.4402C61.7485 36.4984 61.6226 36.5421 61.5107 36.5712C61.2869 36.6294 61.0771 36.6585 60.8813 36.6876C60.6855 36.7022 60.4897 36.7168 60.2939 36.7313C60.196 36.7313 60.0981 36.7313 60.0142 36.7313H59.7205L59.9023 36.6731L58.1261 37.3427C57.8324 37.4592 57.4967 37.2991 57.3848 36.9933C57.2869 36.7022 57.3988 36.3965 57.6506 36.2509L59.3149 35.3483L59.4967 35.2901C59.5247 35.2756 59.5666 35.261 59.5946 35.2464L59.7065 35.1882L59.9303 35.0718C60.0701 34.999 60.21 34.9262 60.3499 34.8388C60.4757 34.7515 60.6016 34.6787 60.6855 34.5914C60.7275 34.5477 60.7694 34.5186 60.7834 34.4749L60.7974 34.4603V34.4458C60.7834 34.4458 60.7694 34.4603 60.7555 34.4749C60.7555 34.4603 60.7834 34.4458 60.7974 34.4312C61.189 33.9072 61.9163 33.8198 62.4198 34.2274C62.9233 34.635 63.0072 35.392 62.6156 35.9161C62.5317 36.018 62.4338 36.1199 62.3359 36.1781L62.2799 36.1927Z" fill="#F2CE9E"/>
</g>
</g>
<rect x="31.8848" y="0.5" width="31.0001" height="59.3079" rx="9.5" stroke="#006BD6"/>
<path d="M29.3008 41.4865C38.472 40.8905 47.0477 41.2481 52.4076 43.5128C55.6235 44.824 61.9361 48.7575 64.4374 49.3534C66.9386 49.9494 78.492 49.2342 83.3754 54.1213C85.5194 56.2668 85.2811 60.3195 83.6136 61.9883C81.9461 63.5378 85.4003 65.0874 76.1099 65.0874C71.1074 65.0874 11.4347 65.0874 11.4347 65.0874L0.119514 63.8954V59.0084V53.5253C0.119514 53.5253 0.238625 52.8101 0.476837 51.9758C0.59594 51.1414 1.90612 50.307 3.3354 50.0686L10.4818 49.1151C10.3627 49.1151 20.1295 42.2017 29.3008 41.4865Z" fill="#FECB21"/>
<path d="M56.4578 46.2543C54.3139 45.0623 51.9317 43.7511 50.026 42.7975C50.8597 43.0359 51.6935 43.3935 52.4081 43.6319C55.624 44.9431 61.9367 48.8766 64.438 49.4726C64.7953 49.5918 65.3908 49.711 66.1055 49.8301C63.2469 49.8301 59.6737 48.1614 56.4578 46.2543Z" fill="black"/>
<path d="M78.1342 63.8955L78.8488 62.7035L82.8985 62.5843H83.0176C82.422 63.8955 84.0895 65.0874 75.8711 65.0874C75.5138 65.0874 74.7992 65.0874 73.7272 65.0874V63.8955H78.1342Z" fill="#262529"/>
<path d="M22.5117 44.9431C27.1569 43.0359 34.5415 41.7248 45.6185 43.5127C45.6185 43.5127 52.2885 44.3471 57.8865 48.2806C58.8394 48.9958 59.7923 49.7109 60.7451 50.5453L15.7226 49.4726C15.7226 49.4726 17.6283 46.9694 22.5117 44.9431Z" fill="black"/>
<path d="M0.000280857 60.7963L5.71743 61.1539L7.98047 64.7298L0.000280857 63.8954V60.7963Z" fill="#262529"/>
<path d="M83.1366 58.6507L84.685 58.0547C84.8041 59.4851 84.5659 61.1539 83.4939 61.9882L82.8984 60.9155L83.1366 58.6507Z" fill="#262529"/>
<path d="M0.000360966 54.0021C2.02518 54.0021 4.76465 55.0749 4.76465 55.0749L3.09716 56.9821H0.000360966V54.0021Z" fill="#992520"/>
<path d="M35.7326 42.6784C38.5912 42.6784 41.9262 42.9168 45.6185 43.5128C45.6185 43.5128 54.9089 44.7047 60.7451 50.5454L15.7226 49.4726C15.7226 49.4726 20.606 42.6784 35.7326 42.6784ZM23.7028 45.6583V48.6382L38.353 48.9958C38.4721 48.1614 38.8294 45.0623 38.1147 43.7512C37.281 43.7512 36.5664 43.7512 35.7326 43.7512C30.4919 43.7512 26.5613 44.5856 23.7028 45.6583ZM45.4994 44.5855C43.951 44.3472 42.5217 44.1088 40.9733 43.9896V49.115L57.8865 49.4726C52.5267 45.5391 45.6185 44.5855 45.4994 44.5855ZM22.6308 48.6382C22.6308 48.0423 22.7499 46.9695 22.6308 46.0159C20.606 46.8503 19.1767 47.8039 18.2238 48.519L22.6308 48.6382Z" fill="#303030"/>
<path d="M44.6664 54.9557C45.2619 54.9557 45.8574 55.1941 45.8574 55.5517C45.8574 55.9093 45.381 56.1477 44.6664 56.1477C44.0708 56.1477 43.4753 55.9093 43.4753 55.5517C43.4753 55.1941 44.0708 54.9557 44.6664 54.9557Z" fill="#C9C9C9"/>
<path d="M43.3552 55.5516C43.3552 55.9092 43.9508 56.2668 44.6654 56.2668C45.3801 56.2668 45.9756 55.9092 45.9756 55.5516C45.9756 55.194 45.3801 54.8364 44.6654 54.8364C43.9508 54.8364 43.3552 55.194 43.3552 55.5516Z" fill="#DFDFDF"/>
<path d="M42.879 55.5517C42.879 55.6709 42.9981 55.7901 43.1172 55.7901H46.3331C46.4522 55.7901 46.5713 55.6709 46.5713 55.5517C46.5713 55.4325 46.4522 55.3133 46.3331 55.3133L43.1172 55.1941C42.9981 55.1941 42.7599 55.1941 42.879 55.5517Z" fill="#5C5C5C"/>
<path d="M27.9906 54.9557C28.5861 54.9557 29.1816 55.1941 29.1816 55.5517C29.1816 55.9093 28.7052 56.1477 27.9906 56.1477C27.395 56.1477 26.7995 55.9093 26.7995 55.5517C26.7995 55.1941 27.2759 54.9557 27.9906 54.9557Z" fill="#C9C9C9"/>
<path d="M26.6804 55.5516C26.6804 55.9092 27.276 56.2668 27.9906 56.2668C28.7052 56.2668 29.3008 55.9092 29.3008 55.5516C29.3008 55.194 28.7052 54.8364 27.9906 54.8364C27.276 54.8364 26.6804 55.194 26.6804 55.5516Z" fill="#DFDFDF"/>
<path d="M26.085 55.5517C26.085 55.6709 26.2041 55.7901 26.3232 55.7901H29.5391C29.6582 55.7901 29.7773 55.6709 29.7773 55.5517C29.7773 55.4325 29.6582 55.3133 29.5391 55.3133L26.3232 55.1941C26.2041 55.1941 25.9659 55.1941 26.085 55.5517Z" fill="#5C5C5C"/>
<path d="M59.1965 49.4726L59.792 50.0686L59.4347 50.4262L58.6009 50.1878L59.1965 49.4726Z" fill="url(#paint0_linear_192_17520)"/>
<path d="M57.0525 49.8302L57.2907 47.923C57.2907 47.5654 57.7671 47.4463 58.2435 47.5655C59.1964 47.923 59.5537 49.9494 59.5537 49.9494C59.3155 50.4262 58.6009 50.4262 57.8862 50.4262C57.2907 50.4262 56.9334 50.1878 57.0525 49.8302Z" fill="#C4C4C4"/>
<path d="M78.9685 61.3923C78.9685 61.6307 79.0876 61.7499 79.3258 61.7499H81.1124C81.3506 61.7499 81.4697 61.6307 81.4697 61.3923C81.4697 61.1539 81.3506 61.0347 81.1124 61.0347H79.3258C79.0876 61.0347 78.9685 61.1539 78.9685 61.3923Z" fill="#FF8000"/>
<path d="M67.4144 56.9819C70.6303 56.9819 73.4888 58.8891 74.799 61.6306L75.3946 63.8953C75.5137 64.2529 75.5137 64.7297 75.5137 65.0873C74.5608 65.0873 73.9653 65.0873 73.9653 65.0873H59.3151C59.196 60.677 62.8883 56.9819 67.4144 56.9819Z" fill="black"/>
<path d="M60.3877 65.0873C60.3877 68.9016 63.4845 72.0007 67.2959 72.0007C71.1073 72.0007 74.2041 68.9016 74.2041 65.0873C74.2041 61.273 71.1073 58.1739 67.2959 58.1739C63.4845 58.1739 60.3877 61.273 60.3877 65.0873Z" fill="#504E51"/>
<path d="M67.4144 69.6169C69.9156 69.6169 71.9404 67.5905 71.9404 65.0874C71.9404 62.5843 69.9156 60.5579 67.4144 60.5579C64.9131 60.5579 62.8883 62.5843 62.8883 65.0874C62.8883 67.5905 64.9131 69.6169 67.4144 69.6169Z" fill="#EBC899"/>
<path d="M69.2002 61.5115L67.89 63.657C67.6518 64.1338 67.1754 64.1338 66.8181 63.657L65.5079 61.5115C65.5079 61.5115 66.2225 61.0347 67.2945 61.0347C68.4856 60.9155 69.2002 61.5115 69.2002 61.5115Z" fill="black"/>
<path d="M71.3446 65.8026L68.8434 65.2066C68.2479 65.0874 68.1287 64.6106 68.4861 64.253L70.1536 62.4651C70.1536 62.4651 70.8682 63.0611 71.1064 64.0146C71.5829 64.9682 71.4637 65.8026 71.3446 65.8026Z" fill="black"/>
<path d="M67.8905 69.1402L67.7714 66.637C67.7714 66.0411 68.1287 65.8027 68.6051 66.0411L70.8682 67.1138C70.8682 67.1138 70.5108 67.9482 69.6771 68.5442C68.8433 69.1402 67.8905 69.1402 67.8905 69.1402Z" fill="black"/>
<path d="M63.7216 66.7561L66.1037 65.8026C66.5802 65.5642 66.9375 65.9218 66.9375 66.3985L66.5802 68.9017C66.5802 68.9017 65.6273 68.7825 64.9127 68.1865C63.9598 67.7097 63.6025 66.7561 63.7216 66.7561Z" fill="black"/>
<path d="M64.6741 62.1074L66.2225 64.1338C66.5798 64.6106 66.3416 64.9681 65.8652 65.0873L63.3639 65.4449C63.3639 65.4449 63.1257 64.4914 63.6021 63.657C63.9595 62.7034 64.6741 62.1074 64.6741 62.1074Z" fill="black"/>
<path d="M16.556 56.9819C19.7719 56.9819 22.6305 58.8891 23.9407 61.6306L24.6553 63.8953C24.7744 64.2529 24.7744 64.7297 24.7744 65.0873C23.8216 65.0873 23.226 65.0873 23.226 65.0873L8.57584 64.7297C8.45673 60.3194 12.0299 56.9819 16.556 56.9819Z" fill="black"/>
<path d="M9.52829 65.0873C9.52829 68.9016 12.6251 72.0007 16.4365 72.0007C20.2479 72.0007 23.3447 68.9016 23.3447 65.0873C23.3447 61.273 20.2479 58.1739 16.4365 58.1739C12.7442 58.1739 9.52829 61.273 9.52829 65.0873Z" fill="#504E51"/>
<path d="M16.556 69.6169C19.0572 69.6169 21.082 67.5905 21.082 65.0874C21.082 62.5843 19.0572 60.5579 16.556 60.5579C14.0547 60.5579 12.0299 62.5843 12.0299 65.0874C12.0299 67.5905 14.0547 69.6169 16.556 69.6169Z" fill="#EBC899"/>
<path d="M18.3428 61.5115L17.0326 63.657C16.7944 64.1338 16.318 64.1338 15.9606 63.657L14.6505 61.5115C14.6505 61.5115 15.3651 61.0347 16.4371 61.0347C17.6281 61.0347 18.3428 61.5115 18.3428 61.5115Z" fill="black"/>
<path d="M20.4864 65.9218L17.9852 65.3258C17.3896 65.2066 17.2705 64.7298 17.6279 64.3722L19.2954 62.5843C19.2954 62.5843 20.01 63.1803 20.3673 64.1338C20.8438 64.9682 20.6055 65.9218 20.4864 65.9218Z" fill="black"/>
<path d="M17.0321 69.1401L16.913 66.637C16.913 66.041 17.2703 65.8026 17.7467 66.041L20.0098 67.1138C20.0098 67.1138 19.6524 67.9481 18.8187 68.5441C17.9849 69.1401 17.0321 69.2593 17.0321 69.1401Z" fill="black"/>
<path d="M12.8642 66.8752L15.2463 65.9216C15.7228 65.6833 16.0801 66.0408 16.0801 66.5176L15.7228 69.0208C15.7228 69.0208 14.7699 68.9016 14.0553 68.3056C13.1024 67.7096 12.7451 66.8752 12.8642 66.8752Z" fill="black"/>
<path d="M13.8167 62.2266L15.3651 64.253C15.7224 64.7298 15.4842 65.0873 15.0077 65.2065L12.5065 65.5641C12.5065 65.5641 12.2683 64.6106 12.7447 63.7762C13.102 62.7034 13.8167 62.2266 13.8167 62.2266Z" fill="black"/>
<path d="M24.4172 65.0874H59.9111V63.8954H24.179L24.4172 65.0874Z" fill="#262529"/>
<path d="M80.6356 53.2869L76.8242 52.9293C77.5388 53.4061 78.4917 54.0021 79.5636 54.8365C80.3974 55.4324 81.4694 55.79 82.3031 56.0284C82.7795 56.1476 83.256 56.2668 83.6133 56.5052C83.4942 56.1476 83.3751 55.79 83.1369 55.5516C82.5413 54.8365 81.7076 54.0021 80.6356 53.2869Z" fill="white"/>
<defs>
<linearGradient id="paint0_linear_192_17520" x1="59.248" y1="49.4241" x2="59.248" y2="50.433" gradientUnits="userSpaceOnUse">
<stop stop-color="#5F5A5E"/>
<stop offset="0.2754"/>
<stop offset="0.7541"/>
<stop offset="0.8093"/>
</linearGradient>
<clipPath id="clip0_192_17520">
<rect x="31.3848" width="32.0001" height="60.3079" rx="10" fill="white"/>
</clipPath>
<clipPath id="clip1_192_17520">
<rect width="11.077" height="6.76926" fill="white" transform="translate(54.7695 32.0001)"/>
</clipPath>
</defs>
</svg>
