<svg width="20" height="20" viewBox="0 0 20 20" fill="none" xmlns="http://www.w3.org/2000/svg">
<path d="M10 20C4.47712 20 0 15.5065 0 10C0 7.3366 1.04575 4.82026 2.92484 2.92484C4.82026 1.04575 7.32026 0 10 0C12.6797 0 15.1797 1.04575 17.0752 2.92484C18.9706 4.82026 20 7.32026 20 10C20 12.6797 18.9543 15.1797 17.0752 17.0752C15.1797 18.9543 12.6634 20 10 20ZM10 0.816994C7.54902 0.816994 5.2451 1.76471 3.51307 3.51307C1.76471 5.2451 0.816994 7.54902 0.816994 10C0.816994 15.0654 4.93464 19.183 10 19.183C12.451 19.183 14.7549 18.2353 16.4869 16.4869C18.219 14.7549 19.183 12.451 19.183 10C19.183 7.54902 18.2353 5.2451 16.4869 3.51307C14.7549 1.76471 12.451 0.816994 10 0.816994Z" fill="url(#paint0_linear_174_16589)"/>
<path d="M15.6044 4.39538L8.59463 15.7352C8.44757 15.964 8.12077 15.9803 7.97371 15.7516L4.39528 10.7679C4.26456 10.5882 4.47698 10.3594 4.67306 10.4738L8.05541 12.4509L15.2776 4.15028C15.441 3.9542 15.7352 4.18296 15.6044 4.39538Z" fill="url(#paint1_linear_174_16589)"/>
<defs>
<linearGradient id="paint0_linear_174_16589" x1="0" y1="9.99763" x2="19.9966" y2="9.99763" gradientUnits="userSpaceOnUse">
<stop stop-color="#4FC646"/>
<stop offset="1" stop-color="#3FB06B"/>
</linearGradient>
<linearGradient id="paint1_linear_174_16589" x1="4.36167" y1="9.99759" x2="15.6346" y2="9.99759" gradientUnits="userSpaceOnUse">
<stop stop-color="#4FC646"/>
<stop offset="1" stop-color="#3FB06B"/>
</linearGradient>
</defs>
</svg>
