<svg width="130" height="50" viewBox="0 0 130 50" fill="none" xmlns="http://www.w3.org/2000/svg">
<g id="Group 2">
<g id="Group 1">
<path id="Vector" d="M40.5681 16.0257C40.5681 16.0257 33.7153 16.6791 22.1098 17.3324C10.6148 17.9858 3.31992 19.1836 1.55147 24.6282C0.998824 26.4794 0.446182 28.7661 0.114596 30.9439C-0.548575 35.0818 1.88305 38.8931 1.88305 38.8931C1.88305 38.8931 10.1727 39.2197 21.2256 39.5464C21.9993 45.4266 27.1941 50.0001 33.3837 50.0001C39.3522 50.0001 44.4366 45.7533 45.4313 40.0909C53.3894 40.1998 63.558 40.3087 69.7476 40.0909V16.0257C65.8791 16.1346 60.2421 16.3524 55.4894 16.3524C47.4208 16.3524 46.0945 15.1546 54.8262 9.27438C61.1264 5.02758 66.9844 3.17641 69.7476 2.41417V0.345215C68.5318 0.345215 60.5737 1.76081 53.721 5.78983C46.9787 9.81884 40.5681 16.0257 40.5681 16.0257ZM15.6991 24.4104L3.9831 24.6282C3.9831 24.6282 5.41997 22.3414 8.51477 21.1436C11.499 19.9458 16.1412 20.3814 16.1412 20.3814L15.6991 24.4104ZM41.7839 40.0909C40.7891 43.6843 37.4732 46.4066 33.4942 46.4066C29.4047 46.4066 25.8678 43.4665 25.0941 39.6553C24.9835 39.1109 24.873 38.5664 24.873 37.913C24.873 33.2307 28.7415 29.4194 33.4942 29.4194C38.2469 29.4194 42.1155 33.2307 42.1155 37.913C42.0049 38.6753 41.8944 39.4375 41.7839 40.0909Z" fill="#063776"/>
</g>
<g id="EASY PARK">
<path id="Vector_2" d="M116.19 25.4243H119.48V31.5363L125.327 25.4243H129.434L123.587 31.2472L130 40.1674H125.872L121.366 33.5392L119.48 35.4182V40.1674H116.19V25.4243Z" fill="#063776"/>
<path id="Vector_3" d="M104.356 32.0938H107.961C108.715 32.0938 109.281 31.9286 109.658 31.5982C110.035 31.2679 110.224 30.731 110.224 29.9876C110.224 29.2718 110.035 28.7556 109.658 28.439C109.281 28.1086 108.715 27.9434 107.961 27.9434H104.356V32.0938ZM101.066 25.4243H109.134C109.805 25.4243 110.406 25.5344 110.937 25.7547C111.481 25.9612 111.942 26.2503 112.32 26.6219C112.711 26.9936 113.004 27.4272 113.2 27.9228C113.409 28.4046 113.514 28.9277 113.514 29.4921C113.514 30.3593 113.326 31.1096 112.948 31.7428C112.585 32.376 111.984 32.8578 111.146 33.1882V33.2295C111.551 33.3396 111.887 33.5117 112.152 33.7457C112.417 33.9659 112.634 34.2344 112.802 34.551C112.969 34.8538 113.088 35.1911 113.158 35.5628C113.242 35.9344 113.298 36.3061 113.326 36.6778C113.34 36.9118 113.353 37.1871 113.367 37.5037C113.381 37.8203 113.402 38.1438 113.43 38.4742C113.472 38.8046 113.528 39.1212 113.598 39.424C113.682 39.7131 113.801 39.9609 113.954 40.1674H110.664C110.482 39.6994 110.371 39.1418 110.329 38.4949C110.287 37.8479 110.224 37.2284 110.14 36.6365C110.028 35.8656 109.791 35.3012 109.428 34.9433C109.064 34.5854 108.471 34.4064 107.646 34.4064H104.356V40.1674H101.066V25.4243Z" fill="#063776"/>
<path id="Vector_4" d="M90.4923 34.4684H94.3692L92.4831 29.0585H92.4412L90.4923 34.4684ZM90.8066 25.4243H94.1806L99.7759 40.1674H96.36L95.2284 36.8843H89.6331L88.4595 40.1674H85.1484L90.8066 25.4243Z" fill="#063776"/>
<path id="Vector_5" d="M77.588 32.3622H80.1446C80.5218 32.3622 80.8851 32.3347 81.2344 32.2796C81.5836 32.2246 81.891 32.1213 82.1564 31.9699C82.4219 31.8047 82.6314 31.5776 82.7851 31.2885C82.9528 30.9994 83.0366 30.6209 83.0366 30.1528C83.0366 29.6848 82.9528 29.3062 82.7851 29.0172C82.6314 28.7281 82.4219 28.5078 82.1564 28.3564C81.891 28.1912 81.5836 28.0811 81.2344 28.026C80.8851 27.971 80.5218 27.9434 80.1446 27.9434H77.588V32.3622ZM74.2979 25.4243H81.0458C81.9818 25.4243 82.7781 25.562 83.4348 25.8373C84.0914 26.0988 84.6223 26.4499 85.0274 26.8904C85.4466 27.3309 85.7469 27.8333 85.9285 28.3977C86.1241 28.9621 86.2219 29.5471 86.2219 30.1528C86.2219 30.7448 86.1241 31.3298 85.9285 31.908C85.7469 32.4724 85.4466 32.9748 85.0274 33.4153C84.6223 33.8558 84.0914 34.2137 83.4348 34.489C82.7781 34.7506 81.9818 34.8814 81.0458 34.8814H77.588V40.1674H74.2979V25.4243Z" fill="#063776"/>
<path id="Vector_6" d="M119.719 9.35384L114.229 0.351074H117.917L121.416 6.17397L124.895 0.351074H128.563L123.009 9.43644V15.0941H119.719V9.35384Z" fill="#063776"/>
<path id="Vector_7" d="M104.475 10.2004C104.475 10.696 104.566 11.1158 104.747 11.4599C104.929 11.8041 105.167 12.0863 105.46 12.3065C105.767 12.513 106.124 12.6713 106.529 12.7815C106.934 12.8778 107.353 12.926 107.786 12.926C108.079 12.926 108.394 12.9053 108.729 12.864C109.064 12.809 109.379 12.7126 109.672 12.575C109.965 12.4373 110.21 12.2515 110.406 12.0175C110.601 11.7697 110.699 11.4599 110.699 11.0883C110.699 10.6891 110.566 10.3656 110.301 10.1178C110.049 9.87001 109.714 9.66352 109.295 9.49833C108.876 9.33315 108.401 9.18861 107.87 9.06471C107.339 8.94082 106.801 8.80317 106.256 8.65174C105.697 8.51409 105.153 8.3489 104.622 8.15618C104.091 7.94969 103.616 7.68815 103.197 7.37153C102.778 7.05492 102.435 6.6626 102.17 6.19457C101.918 5.71277 101.793 5.13461 101.793 4.46009C101.793 3.70297 101.953 3.0491 102.275 2.49847C102.61 1.93408 103.043 1.46605 103.574 1.09437C104.105 0.722699 104.705 0.447385 105.376 0.268431C106.047 0.089477 106.717 0 107.388 0C108.17 0 108.918 0.089477 109.63 0.268431C110.357 0.433619 110.999 0.708933 111.558 1.09437C112.117 1.47981 112.557 1.97538 112.878 2.58107C113.214 3.17299 113.381 3.89569 113.381 4.74917H110.196C110.168 4.30866 110.07 3.94387 109.903 3.65479C109.749 3.36571 109.539 3.13858 109.274 2.97339C109.008 2.8082 108.701 2.69119 108.352 2.62237C108.017 2.55354 107.646 2.51912 107.241 2.51912C106.976 2.51912 106.71 2.54665 106.445 2.60172C106.179 2.65678 105.935 2.75314 105.711 2.8908C105.502 3.02845 105.327 3.20053 105.187 3.40701C105.048 3.6135 104.978 3.87505 104.978 4.19166C104.978 4.48074 105.034 4.71475 105.146 4.89371C105.257 5.07266 105.474 5.23785 105.795 5.38927C106.131 5.54069 106.585 5.69212 107.157 5.84354C107.744 5.99496 108.506 6.18768 109.442 6.4217C109.721 6.47676 110.105 6.58001 110.594 6.73143C111.097 6.86908 111.593 7.09622 112.082 7.41283C112.571 7.72944 112.99 8.15618 113.339 8.69304C113.703 9.21614 113.884 9.89066 113.884 10.7166C113.884 11.3911 113.752 12.0175 113.486 12.5956C113.221 13.1738 112.823 13.6762 112.292 14.103C111.775 14.5159 111.125 14.8394 110.343 15.0734C109.574 15.3075 108.68 15.4245 107.66 15.4245C106.836 15.4245 106.033 15.3212 105.25 15.1147C104.482 14.922 103.797 14.6123 103.197 14.1856C102.61 13.7588 102.142 13.2151 101.793 12.5543C101.443 11.8936 101.276 11.1089 101.29 10.2004H104.475Z" fill="#063776"/>
<path id="Vector_8" d="M91.6588 9.39514H95.5357L93.6496 3.98522H93.6077L91.6588 9.39514ZM91.9731 0.351074H95.3471L100.942 15.0941H97.5265L96.3949 11.811H90.7996L89.626 15.0941H86.3149L91.9731 0.351074Z" fill="#063776"/>
<path id="Vector_9" d="M74.2979 0.351074H85.4885V3.07668H77.588V6.23591H84.8388V8.75504H77.588V12.3685H85.6561V15.0941H74.2979V0.351074Z" fill="#063776"/>
</g>
</g>
</svg>
