<svg width="70" height="50" viewBox="0 0 70 50" fill="none" xmlns="http://www.w3.org/2000/svg">
<path d="M40.5681 16.0257C40.5681 16.0257 33.7153 16.6791 22.1098 17.3324C10.6148 17.9858 3.31992 19.1836 1.55147 24.6282C0.998824 26.4794 0.446182 28.7661 0.114596 30.9439C-0.548575 35.0818 1.88305 38.8931 1.88305 38.8931C1.88305 38.8931 10.1727 39.2197 21.2256 39.5464C21.9993 45.4266 27.1941 50.0001 33.3837 50.0001C39.3522 50.0001 44.4366 45.7533 45.4313 40.0909C53.3894 40.1998 63.558 40.3087 69.7476 40.0909V16.0257C65.8791 16.1346 60.2421 16.3524 55.4894 16.3524C47.4208 16.3524 46.0945 15.1546 54.8262 9.27438C61.1264 5.02758 66.9844 3.17641 69.7476 2.41417V0.345215C68.5318 0.345215 60.5737 1.76081 53.721 5.78983C46.9787 9.81884 40.5681 16.0257 40.5681 16.0257ZM15.6991 24.4104L3.9831 24.6282C3.9831 24.6282 5.41997 22.3414 8.51477 21.1436C11.499 19.9458 16.1412 20.3814 16.1412 20.3814L15.6991 24.4104ZM41.7839 40.0909C40.7891 43.6843 37.4732 46.4066 33.4942 46.4066C29.4047 46.4066 25.8678 43.4665 25.0941 39.6553C24.9835 39.1109 24.873 38.5664 24.873 37.913C24.873 33.2307 28.7415 29.4194 33.4942 29.4194C38.2469 29.4194 42.1155 33.2307 42.1155 37.913C42.0049 38.6753 41.8944 39.4375 41.7839 40.0909Z" fill="#FFCA40"/>
</svg>
