<svg width="27" height="27" viewBox="0 0 27 27" fill="none" xmlns="http://www.w3.org/2000/svg">
<g id="moon">
<path id="moon_2" d="M3.40118 12.9645C3.40122 12.9613 3.40127 12.9569 3.40131 12.9537C3.40529 12.6081 3.83275 12.4635 4.05398 12.7261C5.60047 14.5651 8.05332 15.5945 10.7154 15.1149C13.6695 14.5823 15.9409 12.1828 16.3786 9.17053C16.6551 7.26801 16.1934 5.49784 15.2466 4.08391C15.0538 3.79675 15.3171 3.42166 15.6476 3.51106C20.3091 4.76089 23.5881 9.41293 22.7767 14.6678C22.1023 19.0327 18.5538 22.4446 14.2235 22.9125C11.965 23.1573 9.84555 22.6205 8.091 21.5374C5.24455 19.782 3.35938 16.5902 3.40118 12.9645Z" fill="#063776" fill-opacity="0.8"/>
</g>
</svg>
