<svg width="31" height="31" viewBox="0 0 31 31" fill="none" xmlns="http://www.w3.org/2000/svg">
<g id="moon">
<path id="moon_2" d="M4.2152 15.1008C4.21524 15.0971 4.2153 15.0922 4.21534 15.0885C4.21985 14.697 4.7098 14.5332 4.96343 14.8308C6.73637 16.9148 9.54811 18.0815 12.5994 17.5385C15.9854 16.9355 18.5887 14.2169 19.09 10.8038C19.4067 8.64808 18.8772 6.64222 17.7917 5.03995C17.5706 4.71454 17.8724 4.28956 18.2512 4.3909C23.5947 5.8078 27.3539 11.0796 26.4246 17.0338C25.6523 21.9795 21.5853 25.845 16.6217 26.3746C14.033 26.6516 11.6035 26.043 9.5922 24.8155C6.32919 22.826 4.16783 19.2091 4.2152 15.1008Z" fill="#FFD547"/>
</g>
</svg>
