<svg width="34" height="33" viewBox="0 0 34 33" fill="none" xmlns="http://www.w3.org/2000/svg">
<g id="sun">
<path id="sun_2" d="M16.8553 10.1759C20.1927 10.2144 22.8776 12.9304 22.8396 16.2295C22.8015 19.5286 20.0547 22.182 16.7173 22.1435C13.38 22.105 10.6951 19.389 10.7331 16.0899C10.7711 12.7909 13.518 10.1374 16.8553 10.1759ZM7.38168 15.0538L4.69135 15.0228C4.13445 15.0164 3.67732 15.458 3.67098 16.0085C3.66463 16.559 4.11145 17.011 4.66835 17.0174L7.35868 17.0484C7.91558 17.0549 8.37271 16.6133 8.37905 16.0628C8.3854 15.5123 7.93858 15.0603 7.38168 15.0538ZM28.9043 15.302L26.214 15.271C25.6571 15.2646 25.2 15.7061 25.1936 16.2567C25.1873 16.8072 25.6341 17.2592 26.191 17.2656L28.8813 17.2966C29.4382 17.303 29.8953 16.8615 29.9017 16.3109C29.908 15.7604 29.4612 15.3084 28.9043 15.302ZM16.6905 24.4705C16.1336 24.4641 15.6765 24.9057 15.6701 25.4562L15.6395 28.1157C15.6331 28.6662 16.0799 29.1182 16.6368 29.1246C17.1937 29.131 17.6509 28.6895 17.6572 28.1389L17.6879 25.4795C17.6942 24.929 17.2474 24.477 16.6905 24.4705ZM16.9358 3.19482C16.3789 3.18839 15.9218 3.62997 15.9155 4.18048L15.8848 6.83995C15.8784 7.39046 16.3253 7.84246 16.8822 7.84888C17.4391 7.8553 17.8962 7.41372 17.9025 6.86321L17.9332 4.20375C17.9395 3.65324 17.4927 3.20124 16.9358 3.19482ZM10.7743 21.9673C10.3846 21.5731 9.74569 21.5658 9.34706 21.9508L7.42332 23.8091C7.02469 24.1942 7.01741 24.8258 7.40705 25.22C7.79669 25.6141 8.43565 25.6215 8.83427 25.2364L10.758 23.3781C10.9567 23.1863 11.0591 22.9321 11.0621 22.6768C11.065 22.4215 10.9684 22.165 10.7743 21.9673ZM26.1656 7.09944C25.776 6.70529 25.137 6.69792 24.7384 7.08299L22.8147 8.9413C22.416 9.32637 22.4087 9.958 22.7984 10.3522C23.188 10.7463 23.827 10.7537 24.2256 10.3686L26.1494 8.5103C26.348 8.31842 26.4505 8.06426 26.4534 7.80895C26.4564 7.55364 26.3611 7.29587 26.1656 7.09944ZM25.9705 24.023L24.0901 22.1208C23.7005 21.7267 23.0615 21.7193 22.6629 22.1044C22.2642 22.4894 22.257 23.1211 22.6466 23.5152L24.527 25.4174C24.9166 25.8115 25.5556 25.8189 25.9542 25.4338C26.1529 25.242 26.2553 24.9878 26.2583 24.7325C26.2612 24.4772 26.166 24.2207 25.9705 24.023ZM10.9261 8.80422L9.04568 6.90204C8.65604 6.50789 8.01708 6.50052 7.61845 6.88559C7.21983 7.27066 7.21254 7.90229 7.60218 8.29644L9.48257 10.1986C9.87221 10.5928 10.5112 10.6001 10.9098 10.2151C11.1084 10.0232 11.2109 9.76904 11.2139 9.51373C11.2168 9.25842 11.1202 9.00196 10.9261 8.80422Z" fill="#063776" fill-opacity="0.6"/>
</g>
</svg>
