<svg width="27" height="27" viewBox="0 0 27 27" fill="none" xmlns="http://www.w3.org/2000/svg">
<g id="sun">
<path id="sun_2" d="M13.2759 8.27515C15.9635 8.30614 18.1254 10.5185 18.0944 13.206C18.0634 15.8936 15.8511 18.0555 13.1635 18.0245C10.4759 17.9935 8.31405 15.7812 8.34504 13.0936C8.37603 10.406 10.5883 8.24416 13.2759 8.27515ZM5.64625 12.2499L3.47973 12.225C3.03126 12.2198 2.66309 12.5796 2.65792 13.028C2.65274 13.4765 3.01252 13.8447 3.46099 13.8499L5.62752 13.8748C6.07599 13.88 6.44416 13.5202 6.44933 13.0718C6.4545 12.6233 6.09472 12.2551 5.64625 12.2499ZM22.9784 12.4498L20.8119 12.4248C20.3634 12.4196 19.9953 12.7794 19.9901 13.2279C19.9849 13.6764 20.3447 14.0445 20.7932 14.0497L22.9597 14.0747C23.4082 14.0799 23.7763 13.7201 23.7815 13.2716C23.7867 12.8231 23.4269 12.455 22.9784 12.4498ZM13.1416 19.9202C12.6932 19.915 12.325 20.2748 12.3198 20.7233L12.2949 22.8898C12.2897 23.3383 12.6495 23.7065 13.0979 23.7116C13.5464 23.7168 13.9146 23.357 13.9197 22.9085L13.9447 20.742C13.9499 20.2936 13.5901 19.9254 13.1416 19.9202ZM13.3415 2.58803C12.893 2.58286 12.5249 2.94264 12.5197 3.39111L12.4947 5.55763C12.4895 6.0061 12.8493 6.37427 13.2978 6.37944C13.7462 6.38462 14.1144 6.02484 14.1196 5.57637L14.1446 3.40984C14.1497 2.96137 13.79 2.5932 13.3415 2.58803ZM8.37758 17.8816C8.06384 17.5605 7.54929 17.5546 7.22823 17.8683L5.67884 19.3824C5.35778 19.6961 5.35185 20.2107 5.66559 20.5317C5.97932 20.8528 6.49388 20.8587 6.81493 20.545L8.36433 19.0309C8.52431 18.8746 8.60687 18.6675 8.60927 18.4595C8.61166 18.2516 8.5339 18.0426 8.37758 17.8816ZM20.7738 5.76792C20.4601 5.44686 19.9456 5.44093 19.6245 5.75467L18.0751 7.26874C17.754 7.58247 17.7481 8.09703 18.0618 8.41808C18.3756 8.73914 18.8901 8.74507 19.2112 8.43134L20.7606 6.91727C20.9206 6.76093 21.0031 6.55387 21.0055 6.34589C21.0079 6.1379 20.9313 5.92791 20.7738 5.76792ZM20.6149 19.5546L19.1008 18.0052C18.7871 17.6842 18.2725 17.6782 17.9515 17.992C17.6304 18.3057 17.6245 18.8203 17.9382 19.1413L19.4523 20.6907C19.766 21.0118 20.2806 21.0177 20.6016 20.704C20.7616 20.5476 20.8442 20.3406 20.8466 20.1326C20.849 19.9246 20.7723 19.7157 20.6149 19.5546ZM8.50122 7.15835L6.98715 5.60895C6.67342 5.2879 6.15886 5.28196 5.83781 5.5957C5.51675 5.90944 5.51082 6.42399 5.82455 6.74505L7.33862 8.29444C7.65236 8.6155 8.16691 8.62143 8.48797 8.30769C8.64795 8.15136 8.73051 7.9443 8.73291 7.73631C8.73531 7.52833 8.65754 7.31941 8.50122 7.15835Z" fill="#FFD547"/>
</g>
</svg>
