<svg width="51" height="51" viewBox="0 0 51 51" fill="none" xmlns="http://www.w3.org/2000/svg">
<g id="Group">
<path id="Vector" d="M44.7634 43.6639C43.723 44.7571 42.7392 45.4615 41.9621 46.0181C32.8267 52.5587 22.0145 50.6517 19.7178 50.1863C16.324 49.4983 9.76685 48.1697 5.02543 42.6036C-2.14796 34.1833 -1.03071 20.9196 4.53355 12.1635C5.55205 10.5612 10.928 1.67187 21.8554 0.246589C28.4692 -0.616611 36.1766 1.12439 41.7591 5.79261C53.4764 15.5908 52.6426 35.3841 44.7634 43.6639Z" fill="url(#paint0_linear_80_91732)"/>
<g id="Group_2">
<path id="Vector_2" d="M43.4308 3.75596L46.0402 10.0393C46.7314 11.7036 46.6198 13.5924 45.7385 15.1655L40.4485 24.6042C39.8487 25.6736 39.5982 26.9054 39.7335 28.1245L40.3223 33.4369C40.5436 35.4279 39.7335 37.3952 38.1738 38.6563C35.6979 40.6582 32.0774 40.3352 29.9965 37.9263L26.696 34.1103C25.149 32.32 24.8254 29.7797 25.875 27.661L29.3327 20.6714C29.7752 19.779 29.9819 18.7881 29.9362 17.7935L29.4589 7.53726C29.3492 5.17212 30.6694 2.97306 32.8088 1.95292L35.4419 0.699177C38.4919 -0.755306 42.138 0.640779 43.4308 3.75596Z" fill="#BDD0FB"/>
<g id="Group_3">
<path id="Vector_3" d="M33.2842 40.9812C32.8216 32.7471 34.0705 24.3961 35.2006 18.8409C35.8771 15.5159 36.5592 12.9245 37.0126 11.3349C37.3144 10.2765 37.5393 9.57934 37.6746 9.17967C37.9671 8.31282 38.0275 8.27632 38.1171 8.21793C38.2579 8.1285 38.4444 8.17048 38.5322 8.311C38.6035 8.42414 38.5907 8.56649 38.5102 8.66504C38.0878 9.46802 33.0228 25.5513 33.8895 40.9484C33.8986 41.1144 33.7725 41.2568 33.6061 41.2659C33.5896 41.2677 33.5732 41.2659 33.5567 41.2641C33.4086 41.2477 33.2934 41.1309 33.2842 40.9812Z" fill="#7D97F4"/>
</g>
</g>
<g id="Group_4">
<path id="Vector_4" d="M37.5073 30.3034C38.6282 29.5369 39.2499 28.2357 39.1457 26.8834C39.0342 25.4399 39.2609 23.8285 39.8698 22.228C41.4643 18.0288 45.0812 15.5031 47.9465 16.5871C50.8118 17.6711 51.8413 21.9542 50.2468 26.1535C49.9378 26.9692 49.552 27.7211 49.1095 28.3963C48.4402 29.4201 48.3031 30.7012 48.762 31.8345C49.1991 32.9112 49.2448 34.1486 48.8004 35.3183C48.1934 36.917 46.8183 38.0028 45.2531 38.3131C44.326 38.4974 43.5013 39.0157 42.9454 39.7767C41.3637 41.9393 38.9738 43.005 36.935 42.2331C34.3238 41.2458 33.2797 37.6159 34.6054 34.1266C35.2363 32.4659 36.2932 31.1337 37.5073 30.3034Z" fill="#91B3FA"/>
<path id="Vector_5" d="M34.4171 47.0071C34.4848 47.0253 34.5597 47.0053 34.6073 46.9487C36.9862 44.1328 39.3944 38.8769 40.998 34.9661C42.7315 30.7359 43.9219 27.1188 43.9329 27.0823C43.964 26.9856 43.9109 26.8816 43.814 26.8487C43.7171 26.8177 43.6129 26.8706 43.58 26.9673C43.5324 27.1115 38.8202 41.3826 34.322 46.7096C34.2562 46.7881 34.2653 46.9049 34.344 46.9706C34.3677 46.987 34.3915 46.9998 34.4171 47.0071Z" fill="#7D97F4"/>
</g>
<g id="Group_5">
<g id="Group_6">
<path id="Vector_6" d="M1.82176 2.3854C1.63708 9.83849 1.03732 35.5502 1.32257 44.6621C1.35366 45.6275 2.12896 46.4013 3.09626 46.4342C7.87974 46.5911 21.6396 46.9871 29.4639 46.6586C31.0931 46.5911 32.3896 45.2735 32.4225 43.6456C32.5852 35.8221 32.9436 13.8169 32.0915 3.73586C31.9891 2.52775 31.0401 1.566 29.8314 1.44555C24.6219 0.923616 10.7871 -0.346548 4.02699 0.0896149C2.80735 0.169913 1.85285 1.16633 1.82176 2.3854Z" fill="#334155"/>
<path id="Vector_7" d="M3.76591 4.70127C3.50442 10.8057 2.68158 31.1156 2.94306 38.6252C2.98146 39.722 3.84819 40.6108 4.94715 40.6747C9.47097 40.9393 21.0731 41.5214 27.7071 40.9904C28.9011 40.8955 29.8392 39.9301 29.9032 38.7366C30.2396 32.508 31.2051 13.5979 30.9546 6.17218C30.9143 4.98779 29.9946 4.02056 28.8115 3.91472C23.9183 3.47673 11.3489 2.43286 5.71148 2.73945C4.65275 2.79602 3.81162 3.64462 3.76591 4.70127Z" fill="#91B3FA"/>
<path id="Vector_8" opacity="0.5" d="M13.6433 1.39262C13.6433 1.62073 13.8225 1.81053 14.0511 1.82148C15.1811 1.87988 18.3628 2.04777 19.7854 2.12989C20.0652 2.14632 20.2864 1.89448 20.2334 1.61891L20.2243 1.57146C20.1877 1.38349 20.0323 1.24297 19.8403 1.22472C18.8784 1.13712 15.9784 0.89258 14.0547 0.961928C13.8262 0.971052 13.6433 1.16267 13.6433 1.39262Z" fill="#3F67F9"/>
</g>
<path id="Vector_9" opacity="0.73" d="M31.031 16.4101H25.4649C25.1613 16.4101 24.9145 16.1656 24.9126 15.8626C24.8925 10.8951 24.8742 4.20304 24.9072 3.56796C24.9053 3.60081 23.8795 3.50044 23.8795 3.50044C23.8631 3.82528 23.885 3.36904 23.8777 4.0461C23.874 4.42934 23.8704 4.9823 23.8685 5.68673C23.8667 6.86564 23.8667 8.49167 23.8722 10.521C23.8795 13.9738 23.896 17.4467 23.896 17.4814L23.8978 17.8646C23.8996 18.2332 24.1995 18.5307 24.5671 18.5307H25.7282C25.9293 18.5307 26.0921 18.6931 26.0921 18.8939V25.2118C26.0921 25.6298 25.7538 25.9674 25.335 25.9674H22.4405C22.115 25.9674 21.8242 25.7648 21.7145 25.4582L19.4837 19.2881C19.3557 18.9322 19.0156 18.695 18.6371 18.695H15.9418C15.7132 18.695 15.545 18.4833 15.5962 18.2624L19.0448 3.1464L17.6222 3.05333L14.3363 17.8318C14.2248 18.3354 13.7768 18.6931 13.2611 18.6931H12.2609C11.8934 18.6931 11.5953 18.3957 11.5972 18.0288C11.6008 16.6875 11.6063 14.7348 11.6081 12.7894C11.6118 10.7601 11.6118 9.13405 11.61 7.95879C11.6063 5.61555 11.6868 2.90368 11.6502 2.75038C11.6502 2.75038 10.9773 2.74126 10.9773 2.72849C11.0011 3.20115 11.0614 12.6526 11.0523 18.0708C11.0523 18.4139 10.7725 18.6913 10.4287 18.6913H9.48885C9.08657 18.6913 8.74646 18.3938 8.69343 17.996C8.10647 13.5596 6.69483 2.92558 6.65643 2.68286C6.00913 2.69746 5.41851 2.73213 5.10765 2.86353C5.10765 2.86353 6.66923 14.5943 7.38968 20.0345C7.44819 20.4798 7.83036 20.8137 8.28018 20.8137H12.4749C12.8461 20.8137 13.0984 21.1915 12.9558 21.5346L10.0082 28.5843C9.83811 28.9931 9.43765 29.2578 8.99515 29.2578H2.95363L2.91888 31.3765H9.32063C9.8509 31.3765 10.3282 31.059 10.533 30.5699L14.3382 21.4689C14.5046 21.0729 14.8922 20.8137 15.3219 20.8137H18.1909C18.5347 20.8137 18.84 21.0291 18.9571 21.3503L20.4327 25.4327C20.526 25.6918 20.334 25.9674 20.056 25.9674H15.9601C15.7589 25.9674 15.5944 26.1316 15.5944 26.3324V41.0688H16.1374V27.7887C16.1374 27.4054 16.4483 27.0952 16.8323 27.0952H20.3596C20.7637 27.0952 21.1221 27.347 21.2592 27.7266L25.6496 39.8662L26.4669 38.596L22.4935 27.6117C22.4021 27.3616 22.5886 27.097 22.8555 27.097H26.6169C27.0063 27.097 27.3245 26.7813 27.3245 26.3908V19.1512C27.3245 18.8081 27.6024 18.5307 27.9462 18.5307H31.031V16.4101Z" fill="white"/>
<g id="Group_7">
<path id="Vector_10" d="M26.7372 26.8361H21.5039C21.3759 26.8361 21.2607 26.7576 21.215 26.6371L18.602 19.7991H8.12442C7.96899 19.7991 7.83734 19.6841 7.81905 19.5308L5.84422 4.26329C5.82228 4.0954 5.94114 3.94027 6.11119 3.91838C6.27942 3.89648 6.43484 4.0151 6.45679 4.18482L8.39505 19.1841H18.8141C18.9421 19.1841 19.0573 19.2625 19.103 19.383L21.716 26.2211H26.4282V17.5398C26.4282 17.3701 26.5671 17.2314 26.7372 17.2314C26.9073 17.2314 27.0462 17.3701 27.0462 17.5398V26.5277C27.0462 26.6992 26.9073 26.8361 26.7372 26.8361Z" fill="url(#paint1_linear_80_91732)"/>
</g>
<path id="Vector_11" d="M26.7115 18.5289C27.5841 18.5289 28.2914 17.8229 28.2914 16.9521C28.2914 16.0813 27.5841 15.3754 26.7115 15.3754C25.839 15.3754 25.1317 16.0813 25.1317 16.9521C25.1317 17.8229 25.839 18.5289 26.7115 18.5289Z" fill="url(#paint2_linear_80_91732)"/>
</g>
<path id="Vector_12" d="M43.4574 5.43311H41.7568V49.4052H43.4574V5.43311Z" fill="url(#paint3_linear_80_91732)"/>
<g id="Group_8">
<path id="Vector_13" d="M49.6584 13.877C49.6584 15.7713 48.1187 17.3079 46.2207 17.3079H38.5372C36.6391 17.3079 35.0995 15.7713 35.0995 13.877V6.20861C35.0995 4.31432 36.6391 2.77771 38.5372 2.77771H46.2207C48.1187 2.77771 49.6584 4.31432 49.6584 6.20861V13.877Z" fill="white"/>
<path id="Vector_14" d="M48.8596 6.20498C48.8596 4.71764 47.6509 3.51135 46.1606 3.51135H38.5338C37.0435 3.51135 35.8348 4.71764 35.8348 6.20498V13.8168C35.8348 15.3042 37.0435 16.5105 38.5338 16.5105H46.1606C47.6509 16.5105 48.8596 15.3042 48.8596 13.8168V6.20498Z" fill="url(#paint4_linear_80_91732)"/>
<g id="Group_9">
<path id="Vector_15" d="M39.3746 6.01151C39.9506 5.91296 40.7607 5.83997 41.9017 5.83997C43.0555 5.83997 43.8765 6.06078 44.4287 6.5006C44.9572 6.91669 45.3119 7.60287 45.3119 8.41132C45.3119 9.21977 45.0413 9.90595 44.5512 10.3713C43.9131 10.9717 42.9677 11.24 41.8633 11.24C41.6183 11.24 41.397 11.2272 41.2251 11.2035V14.1544H39.3728V6.01151H39.3746ZM41.2269 9.75813C41.386 9.79463 41.5835 9.8074 41.8523 9.8074C42.847 9.8074 43.4596 9.30554 43.4596 8.46059C43.4596 7.70141 42.9312 7.24883 41.9986 7.24883C41.6183 7.24883 41.3604 7.28532 41.2251 7.32182V9.75813H41.2269Z" fill="white"/>
</g>
</g>
<g id="Group_10">
<g id="Group_11">
<g id="Group_12">
<path id="Vector_16" d="M22.7499 44.2861C22.7499 43.3718 22.0075 42.6309 21.0914 42.6309H20.3527C19.4366 42.6309 18.6942 43.3718 18.6942 44.2861V48.7025C18.6942 49.6168 19.4366 50.3577 20.3527 50.3577H21.0914C22.0075 50.3577 22.7499 49.6168 22.7499 48.7025V44.2861Z" fill="#070707"/>
<path id="Vector_17" d="M45.6036 44.2861C45.6036 43.3718 44.8612 42.6309 43.9451 42.6309H43.2082C42.2921 42.6309 41.5497 43.3718 41.5497 44.2861V48.7025C41.5497 49.6168 42.2921 50.3577 43.2082 50.3577H43.9469C44.863 50.3577 45.6054 49.6168 45.6054 48.7025V44.2861H45.6036Z" fill="#050505"/>
</g>
<g id="Group_13">
<path id="Vector_18" d="M20.8954 36.0027C20.846 35.9917 20.782 35.9479 20.782 35.8969V35.5574C20.782 35.2289 20.6248 34.9296 20.3322 34.7818C19.9537 34.592 19.524 34.5847 19.14 34.7636L18.4707 35.092C18.1343 35.249 17.9569 35.5866 17.9569 35.9571V36.2162C17.9569 36.6944 18.2806 37.0977 18.7542 37.1615L21.6414 37.5557L21.9797 36.2363L20.8954 36.0027Z" fill="#334155"/>
<path id="Vector_19" d="M43.5493 36.0027C43.5986 35.9917 43.637 35.9479 43.637 35.8969V35.5574C43.637 35.2289 43.8199 34.9296 44.1125 34.7818C44.491 34.592 44.9335 34.5847 45.3175 34.7636L46.0599 35.092C46.3963 35.249 46.6468 35.5866 46.6468 35.9571V36.2162C46.6468 36.6944 46.2573 37.0977 45.7838 37.1615L42.8617 37.5557L42.4942 36.2363L43.5493 36.0027Z" fill="#334155"/>
</g>
<path id="Vector_20" d="M45.6683 38.9208C45.2477 37.5047 43.0754 36.1925 43.0754 36.1925C43.0754 36.1925 41.2541 30.6136 39.2921 30.6136C37.7177 30.6136 33.9345 30.6136 32.5064 30.6136C32.5064 30.6136 32.2961 30.6136 31.9468 30.6136C30.5151 30.6136 26.7263 30.6136 25.152 30.6136C23.1899 30.6136 21.3687 36.1925 21.3687 36.1925C21.3687 36.1925 19.1964 37.5028 18.7758 38.919C18.4686 39.9537 19.1342 43.9485 19.5145 46.0016C19.648 46.7261 20.3337 47.29 21.1328 47.29H31.945H32.5045H43.3076C44.1067 47.29 44.7924 46.7261 44.9259 46.0016C45.3099 43.9485 45.9755 39.9556 45.6683 38.9208Z" fill="#334155"/>
<path id="Vector_21" d="M45.3964 44.8483C45.2739 44.7096 45.0874 44.5928 44.8899 44.5928H19.5554C19.3597 44.5928 19.1732 44.7077 19.0507 44.8464C18.9282 44.9851 18.8825 45.1822 18.9263 45.3556L19.3414 47.0419C19.4073 47.3065 19.6687 47.5364 19.9704 47.5364H44.4547C44.7527 47.5364 45.0124 47.3174 45.0819 47.0565L45.5171 45.3775C45.5628 45.2041 45.5189 44.9888 45.3964 44.8483Z" fill="#334155"/>
<g id="Group_14">
<g id="Group_15">
<path id="Vector_22" d="M25.3808 42.3171C25.3808 42.3171 24.7499 40.4301 23.9564 40.2658C23.1628 40.1034 19.8001 39.4026 19.7306 39.9866C19.6611 40.5688 18.9827 42.5744 20.9923 42.7605C22.9982 42.9467 25.7045 43.1 25.3808 42.3171Z" fill="#BDD0FB"/>
</g>
<g id="Group_16">
<path id="Vector_23" d="M39.0652 42.3171C39.0652 42.3171 39.6961 40.4301 40.4897 40.2658C41.2833 40.1034 44.646 39.4026 44.7155 39.9866C44.7849 40.5688 45.4633 42.5744 43.4538 42.7605C41.446 42.9467 38.7416 43.1 39.0652 42.3171Z" fill="#BDD0FB"/>
</g>
</g>
<path id="Vector_24" d="M38.6121 40.6764C38.5463 40.576 38.4348 40.4847 38.3159 40.4847H26.1305C26.0061 40.4847 25.8909 40.5796 25.8269 40.6855C25.7629 40.7913 25.7593 40.9392 25.8178 41.0487L26.5035 42.3717C26.7577 42.8499 27.2569 43.182 27.7999 43.182H36.7525C37.3322 43.182 37.857 42.817 38.0928 42.2896L38.6396 41.0395C38.6871 40.93 38.678 40.7767 38.6121 40.6764Z" fill="white"/>
<g id="Group_17">
<path id="Vector_25" d="M41.931 36.6621C41.8524 36.7825 41.7171 36.8683 41.5726 36.8683H22.8739C22.7276 36.8683 22.5905 36.7807 22.5118 36.6566C22.4332 36.5325 22.4241 36.3701 22.4862 36.2387C22.9105 35.3463 23.7077 33.6892 24.1539 32.764C24.174 32.722 24.1959 32.68 24.2215 32.6417C24.4373 32.3004 24.8158 32.0869 25.2272 32.0869H39.3674C39.7825 32.0869 40.1628 32.3023 40.3786 32.6472C40.4078 32.6964 40.4352 32.7475 40.459 32.8005L41.9639 36.2514C42.0224 36.3828 42.0096 36.5398 41.931 36.6621Z" fill="#7D97F4"/>
<path id="Vector_26" d="M40.3786 32.6449C39.3875 32.8401 36.4765 33.3256 32.0861 33.3256C27.6592 33.3256 25.0627 32.8292 24.2197 32.6376C24.4355 32.2963 24.814 32.0846 25.2254 32.0846H39.3674C39.7843 32.0846 40.1647 32.3018 40.3786 32.6449Z" fill="#91B3FA"/>
</g>
<g id="Group_18">
<g id="Group_19">
<path id="Vector_27" d="M25.0787 39.7494C25.0622 39.7494 25.0439 39.7439 25.0311 39.7311L22.6083 37.4426C22.5809 37.4153 22.579 37.3715 22.6065 37.3441C22.6339 37.3167 22.6778 37.3149 22.7052 37.3423L25.128 39.6308C25.1555 39.6581 25.1573 39.7019 25.1299 39.7293C25.1152 39.7421 25.097 39.7494 25.0787 39.7494Z" fill="white"/>
</g>
<g id="Group_20">
<path id="Vector_28" d="M39.1878 39.7494C39.1695 39.7494 39.1512 39.7421 39.1366 39.7275C39.1091 39.7001 39.111 39.6545 39.1384 39.629L41.5612 37.3405C41.5886 37.3149 41.6344 37.3149 41.66 37.3423C41.6874 37.3697 41.6856 37.4153 41.6581 37.4408L39.2353 39.7293C39.2225 39.7439 39.2042 39.7494 39.1878 39.7494Z" fill="white"/>
</g>
</g>
</g>
</g>
<g id="Group_21">
<g id="Group_22">
<g id="Group_23">
<path id="Vector_29" d="M38.2368 27.7959C38.5806 27.5076 39.888 25.3213 41.9799 27.7959C42.2066 27.9145 42.7917 27.5842 42.7168 27.3524C40.2702 23.7901 37.222 27.1335 37.52 27.5003C37.8181 27.8671 37.8345 28.1317 38.2368 27.7959Z" fill="white"/>
</g>
<g id="Group_24">
<path id="Vector_30" d="M44.1924 26.3122C44.6495 26.2593 45.0774 25.9472 44.9494 25.5494C44.8233 25.157 40.4658 20.0782 35.6147 25.803C35.5544 25.8742 35.5269 25.9636 35.5342 26.0567C35.5416 26.148 35.5873 26.2337 35.6567 26.2921C35.878 26.4765 36.0663 26.5987 36.3095 26.5695C40.7511 21.5436 43.7353 26.367 44.1924 26.3122Z" fill="white"/>
</g>
<g id="Group_25">
<path id="Vector_31" d="M46.4598 24.7957C46.7835 24.8614 47.4472 24.6169 47.2754 24.0858C39.6083 15.7586 32.7786 24.4873 33.0291 24.8377C33.2797 25.1899 33.788 25.2027 33.9928 25.0841C40.0983 17.2678 46.1362 24.73 46.4598 24.7957Z" fill="white"/>
</g>
</g>
<path id="Vector_32" d="M41.0912 29.0679C41.0912 29.6282 40.6359 30.0826 40.0745 30.0826C39.5132 30.0826 39.0597 29.6282 39.0597 29.0679C39.0597 28.5076 39.515 28.0551 40.0745 28.0551C40.6341 28.0551 41.0912 28.5076 41.0912 29.0679Z" fill="white"/>
</g>
<g id="Group_26">
<path id="Vector_33" d="M15.172 50.8561L12.1768 49.4819L11.6484 49.3961C11.6484 49.3961 11.535 50.0385 11.4783 50.6736L15.172 50.8561Z" fill="url(#paint5_linear_80_91732)"/>
<path id="Vector_34" d="M11.5536 49.0201L11.645 49.7884C11.645 49.7884 12.1698 50.033 12.5282 49.7574L12.3106 48.9015L11.5536 49.0201Z" fill="url(#paint6_linear_80_91732)"/>
<path id="Vector_35" d="M11.6232 34.5848C11.5829 34.7856 11.411 44.591 12.4625 48.9855C12.4789 49.0567 12.4423 49.1315 12.3747 49.1589C12.2138 49.2246 11.8974 49.3195 11.5189 49.3322C11.4019 49.3359 11.2959 49.2592 11.2629 49.1479C10.9631 48.1278 9.52399 43.0197 9.33748 38.1398C9.12719 32.6869 9.33748 37.9537 9.33748 37.9537L9.45999 34.583L11.6232 34.5848Z" fill="url(#paint7_linear_80_91732)"/>
<path id="Vector_36" d="M9.4007 51.0003C9.3623 50.6864 9.24344 50.1699 8.8759 49.7684L8.20117 49.7319C8.20117 49.7319 8.02014 50.0568 7.8446 50.9163L9.4007 51.0003Z" fill="url(#paint8_linear_80_91732)"/>
<path id="Vector_37" d="M8.04065 48.7446L8.25459 49.9053C8.25459 49.9053 8.46487 50.0622 8.88178 49.9491L8.77938 48.699L8.04065 48.7446Z" fill="url(#paint9_linear_80_91732)"/>
<path id="Vector_38" d="M7.46467 34.8859C6.60525 40.0596 7.65118 47.6733 8.00409 49.1624C8.02604 49.2537 8.09918 49.323 8.19243 49.3395C8.34969 49.365 8.60934 49.3869 8.86351 49.3121C8.95128 49.2865 9.01345 49.2081 9.01711 49.1168C9.06465 47.9124 8.97871 40.5158 9.77961 37.5941C9.81984 37.4463 9.91127 37.3167 10.0356 37.2273L11.5899 36.125L11.7087 34.3439L7.46467 34.8859Z" fill="url(#paint10_linear_80_91732)"/>
<g id="Group_27">
<path id="Vector_39" d="M12.9375 25.0823C10.3629 25.0404 7.52317 25.7576 7.52317 25.7576C6.75518 30.225 7.38969 35.3787 7.38969 35.3787C9.3828 35.9006 11.6301 35.0593 11.6301 35.0593C11.9611 33.1924 13.5062 27.9366 13.5062 27.9366C14.7642 27.7814 15.7992 27.4183 16.6531 26.9401C16.0021 26.1864 15.6949 25.2302 15.5615 24.6626C14.6527 24.9455 13.7329 25.0951 12.9375 25.0823Z" fill="#FFCA40"/>
<path id="Vector_40" d="M20.5424 21.2992C20.2901 20.9944 19.9701 21.1386 19.9701 21.1386C19.5916 22.7354 17.6058 24.0311 15.5651 24.6625C15.6986 25.2283 16.0058 26.1864 16.6568 26.9401C20.0414 25.0403 20.5424 21.2992 20.5424 21.2992Z" fill="url(#paint11_linear_80_91732)"/>
</g>
<g id="Group_28">
<path id="Vector_41" d="M20.48 21.3758C20.5056 21.4598 20.2002 21.5875 20.0192 21.2444C20.0137 21.0802 19.9131 20.3758 20.0119 20.2407C20.5366 19.5272 21.5533 18.6311 21.5533 18.6311C21.7252 18.8008 21.5844 18.9669 21.5844 18.9669L21.0907 19.4797C21.1931 19.6658 21.3193 19.8228 21.3796 20.0491C21.4235 20.2188 21.3961 20.4013 21.3101 20.5564C21.2242 20.7115 21.1053 20.9141 20.9938 21.0729C20.7817 21.374 20.48 21.3758 20.48 21.3758Z" fill="url(#paint12_linear_80_91732)"/>
<path id="Vector_42" d="M20.8747 19.8137L20.4249 20.1933L20.2841 20.5729L20.6845 21.0164C20.6845 21.0164 20.8198 20.2645 20.9204 20.1021C21.0191 19.9396 20.9679 19.8612 20.8747 19.8137Z" fill="url(#paint13_linear_80_91732)"/>
</g>
<path id="Vector_43" d="M8.51061 28.245L7.5232 25.7576C7.5232 25.7576 5.11866 27.3872 4.72369 29.4549C5.17717 29.4878 6.00551 29.6064 6.81372 30.0133C6.99292 29.0388 8.51061 28.245 8.51061 28.245Z" fill="#FFCA40"/>
<path id="Vector_44" d="M10.6134 30.5863C10.6134 30.5863 7.9145 32.1083 7.00388 30.809C6.81554 30.5389 6.76983 30.2706 6.81554 30.0151C6.0055 29.6081 5.17899 29.4895 4.72552 29.4567C4.60666 30.079 4.66883 30.7433 5.03637 31.413C6.63269 34.3256 10.9718 31.2524 10.9718 31.2524L10.6134 30.5863Z" fill="url(#paint14_linear_80_91732)"/>
<g id="Group_29">
<path id="Vector_45" d="M10.288 32.5116L11.7618 27.3762C11.7782 27.3178 11.8276 27.2758 11.8879 27.2685C12.1549 27.2375 12.9284 27.1499 13.8207 27.0751C14.8959 26.9838 16.1448 26.9108 16.8927 26.9729C16.9987 26.982 17.0627 27.0933 17.0152 27.1882C16.591 28.046 14.8447 31.5316 13.9707 32.674C13.9414 32.7124 13.8975 32.7343 13.85 32.7343L10.4324 32.7032C10.3318 32.7032 10.2605 32.6065 10.288 32.5116Z" fill="url(#paint15_linear_80_91732)"/>
<path id="Vector_46" d="M10.6445 31.2707C10.6445 31.2707 10.4397 30.4294 10.522 30.1301C10.6043 29.8308 10.7652 29.4476 11.2991 29.5333C11.8331 29.6191 12.4639 29.8436 12.4639 29.8436C12.4639 29.8436 12.4328 30.2323 12.0251 30.1064L12.2774 30.3016C12.2774 30.3016 12.2408 30.6137 11.8989 30.4476L12.1329 30.705C12.1329 30.705 11.9848 30.9605 11.7325 30.7962C11.482 30.632 11.3595 31.3729 10.6445 31.2707Z" fill="url(#paint16_linear_80_91732)"/>
</g>
<path id="Vector_47" d="M10.3314 22.9963L9.51224 25.3596C9.49944 25.398 9.51407 25.4418 9.55064 25.4618C9.77373 25.5859 10.5783 25.9418 11.5474 25.3286C11.648 25.2647 11.7175 25.1607 11.7321 25.0421L11.9972 22.9963H10.3314Z" fill="url(#paint17_linear_80_91732)"/>
<path id="Vector_48" d="M12.1128 20.8082C12.1128 20.8082 13.0125 22.4981 12.8973 23.1807C12.7821 23.8632 11.6667 23.8139 10.6939 23.2591L10.0137 21.4342L12.1128 20.8082Z" fill="url(#paint18_linear_80_91732)"/>
<path id="Vector_49" d="M11.5401 19.3903C10.5581 19.9524 9.61094 20.3356 9.39517 20.8083C9.18123 21.281 9.17026 21.5401 9.32752 21.6752C9.48477 21.8102 9.32752 22.8322 10.1961 23.1771C10.3149 23.2245 10.4521 23.2026 10.5508 23.1205C10.6496 23.0384 10.6953 22.9088 10.6715 22.7829L10.591 22.3759C10.591 22.3759 10.624 22.4216 10.7501 22.4143C10.8745 22.407 10.6642 22.115 10.6112 21.9945C10.5581 21.8741 10.3716 21.573 10.6715 21.5657C10.9714 21.5584 12.2587 21.3777 12.5695 20.8831C12.884 20.3886 12.5238 18.8264 11.5401 19.3903Z" fill="url(#paint19_linear_80_91732)"/>
<path id="Vector_50" d="M10.8402 22.4689C10.8402 22.4689 10.2002 22.0309 10.1527 22.3996C10.1051 22.7682 10.7286 22.9343 11.0377 22.7974L10.8402 22.4689Z" fill="url(#paint20_linear_80_91732)"/>
<g id="Group_30" opacity="0.8">
<path id="Vector_51" d="M12.2244 20.8649C12.2171 20.8649 12.2079 20.863 12.2025 20.8576C12.1878 20.8448 12.186 20.8247 12.1988 20.8101C12.2171 20.7882 12.6395 20.2809 12.0927 19.5765C12.0818 19.5619 12.0836 19.54 12.0982 19.529C12.1129 19.5181 12.1348 19.5199 12.1458 19.5345C12.7273 20.2827 12.2555 20.8466 12.25 20.8521C12.2427 20.8594 12.2335 20.8649 12.2244 20.8649Z" fill="url(#paint21_linear_80_91732)"/>
</g>
</g>
</g>
<defs>
<linearGradient id="paint0_linear_80_91732" x1="57.2164" y1="65.7896" x2="12.0591" y2="9.59653" gradientUnits="userSpaceOnUse">
<stop stop-color="#DAE3FE"/>
<stop offset="1" stop-color="#E9EFFD"/>
</linearGradient>
<linearGradient id="paint1_linear_80_91732" x1="5.84183" y1="15.376" x2="27.0461" y2="15.376" gradientUnits="userSpaceOnUse">
<stop stop-color="#4F52FF"/>
<stop offset="1" stop-color="#4042E2"/>
</linearGradient>
<linearGradient id="paint2_linear_80_91732" x1="25.1318" y1="16.9521" x2="28.2903" y2="16.9521" gradientUnits="userSpaceOnUse">
<stop stop-color="#4F52FF"/>
<stop offset="1" stop-color="#4042E2"/>
</linearGradient>
<linearGradient id="paint3_linear_80_91732" x1="50.5369" y1="20.2334" x2="73.2275" y2="-0.412733" gradientUnits="userSpaceOnUse">
<stop stop-color="#4F52FF"/>
<stop offset="1" stop-color="#4042E2"/>
</linearGradient>
<linearGradient id="paint4_linear_80_91732" x1="41.5257" y1="22.3125" x2="42.3882" y2="9.34958" gradientUnits="userSpaceOnUse">
<stop stop-color="#4F52FF"/>
<stop offset="1" stop-color="#4042E2"/>
</linearGradient>
<linearGradient id="paint5_linear_80_91732" x1="14.9043" y1="48.5035" x2="4.7529" y2="59.5672" gradientUnits="userSpaceOnUse">
<stop stop-color="#09005D"/>
<stop offset="1" stop-color="#1A0F91"/>
</linearGradient>
<linearGradient id="paint6_linear_80_91732" x1="11.5537" y1="49.3944" x2="12.5281" y2="49.3944" gradientUnits="userSpaceOnUse">
<stop stop-color="#FEBBBA"/>
<stop offset="1" stop-color="#FF928E"/>
</linearGradient>
<linearGradient id="paint7_linear_80_91732" x1="-14.8496" y1="104.887" x2="-21.952" y2="122.31" gradientUnits="userSpaceOnUse">
<stop stop-color="#4F52FF"/>
<stop offset="1" stop-color="#4042E2"/>
</linearGradient>
<linearGradient id="paint8_linear_80_91732" x1="12.3475" y1="46.515" x2="2.25187" y2="57.5179" gradientUnits="userSpaceOnUse">
<stop stop-color="#09005D"/>
<stop offset="1" stop-color="#1A0F91"/>
</linearGradient>
<linearGradient id="paint9_linear_80_91732" x1="8.04142" y1="49.3446" x2="8.88279" y2="49.3446" gradientUnits="userSpaceOnUse">
<stop stop-color="#FEBBBA"/>
<stop offset="1" stop-color="#FF928E"/>
</linearGradient>
<linearGradient id="paint10_linear_80_91732" x1="-17.1112" y1="103.965" x2="-24.2137" y2="121.389" gradientUnits="userSpaceOnUse">
<stop stop-color="#4F52FF"/>
<stop offset="1" stop-color="#4042E2"/>
</linearGradient>
<linearGradient id="paint11_linear_80_91732" x1="19.7739" y1="18.2332" x2="18.0606" y2="23.138" gradientUnits="userSpaceOnUse">
<stop stop-color="#FEBBBA"/>
<stop offset="1" stop-color="#FF928E"/>
</linearGradient>
<linearGradient id="paint12_linear_80_91732" x1="21.2431" y1="18.7466" x2="19.5299" y2="23.6513" gradientUnits="userSpaceOnUse">
<stop stop-color="#FEBBBA"/>
<stop offset="1" stop-color="#FF928E"/>
</linearGradient>
<linearGradient id="paint13_linear_80_91732" x1="19.9221" y1="21.8789" x2="21.2131" y2="19.2695" gradientUnits="userSpaceOnUse">
<stop stop-color="#FEBBBA"/>
<stop offset="1" stop-color="#FF928E"/>
</linearGradient>
<linearGradient id="paint14_linear_80_91732" x1="4.66966" y1="31.0599" x2="10.9698" y2="31.0599" gradientUnits="userSpaceOnUse">
<stop stop-color="#FEBBBA"/>
<stop offset="1" stop-color="#FF928E"/>
</linearGradient>
<linearGradient id="paint15_linear_80_91732" x1="12.8758" y1="26.5895" x2="16.3271" y2="40.9984" gradientUnits="userSpaceOnUse">
<stop stop-color="#09005D"/>
<stop offset="1" stop-color="#1A0F91"/>
</linearGradient>
<linearGradient id="paint16_linear_80_91732" x1="10.502" y1="30.4006" x2="12.4647" y2="30.4006" gradientUnits="userSpaceOnUse">
<stop stop-color="#FEBBBA"/>
<stop offset="1" stop-color="#FF928E"/>
</linearGradient>
<linearGradient id="paint17_linear_80_91732" x1="9.50688" y1="24.3379" x2="11.9977" y2="24.3379" gradientUnits="userSpaceOnUse">
<stop stop-color="#FEBBBA"/>
<stop offset="1" stop-color="#FF928E"/>
</linearGradient>
<linearGradient id="paint18_linear_80_91732" x1="12.5906" y1="22.7564" x2="9.85478" y2="21.0845" gradientUnits="userSpaceOnUse">
<stop stop-color="#FEBBBA"/>
<stop offset="1" stop-color="#FF928E"/>
</linearGradient>
<linearGradient id="paint19_linear_80_91732" x1="10.4146" y1="17.8002" x2="11.3599" y2="23.2027" gradientUnits="userSpaceOnUse">
<stop stop-color="#09005D"/>
<stop offset="1" stop-color="#1A0F91"/>
</linearGradient>
<linearGradient id="paint20_linear_80_91732" x1="11.8712" y1="23.3781" x2="9.40981" y2="21.8738" gradientUnits="userSpaceOnUse">
<stop stop-color="#FEBBBA"/>
<stop offset="1" stop-color="#FF928E"/>
</linearGradient>
<linearGradient id="paint21_linear_80_91732" x1="12.0846" y1="20.1926" x2="12.4351" y2="20.1926" gradientUnits="userSpaceOnUse">
<stop stop-color="#DAE3FE"/>
<stop offset="1" stop-color="#E9EFFD"/>
</linearGradient>
</defs>
</svg>
