<svg width="60" height="64" viewBox="0 0 86 64" fill="none" xmlns="http://www.w3.org/2000/svg">
<g id="Frame">
<g id="Group">
<path id="Vector" d="M67.0799 45.0026V39.3687H57.6027V26.9844H55.9343V34.0783H51.4107V32.1202H43.2407V25.3354H41.7271V17.022H40.5231V25.1809H37.6507V37.256H32.2155V25.1809H22.3943V37.256H17.5439V53.5566H69.3847V46.394L67.0799 45.0026Z" fill="#E0E0E0"/>
<path id="Vector_2" d="M43.1376 43.4567L39.6804 36.4143H18.1976L14.7576 43.4567H17.372V53.5909H40.42V43.4567H43.1376Z" fill="#F0F0F0"/>
<g id="Group_2">
<path id="Vector_3" d="M54.2492 44.3843H38.3564V53.5909H54.2492V44.3843Z" fill="#F0F0F0"/>
<path id="Vector_4" d="M53.9737 45.0027H40.9189V46.6516H53.9737V45.0027Z" fill="#E6E6E6"/>
<path id="Vector_5" d="M53.9737 47.4246H40.9189V49.0735H53.9737V47.4246Z" fill="#E6E6E6"/>
<path id="Vector_6" d="M53.9737 49.8464H40.9189V51.4954H53.9737V49.8464Z" fill="#E6E6E6"/>
<path id="Vector_7" d="M53.9737 52.2683H40.9189V53.5909H53.9737V52.2683Z" fill="#E6E6E6"/>
</g>
<path id="Vector_8" d="M36.636 43.4567H16.684L14.4136 36.4143L10.9736 43.4567H13.588V53.5909H22.188L36.636 44.8995V43.4567Z" fill="#E6E6E6"/>
</g>
<g id="Group_3">
<path id="Vector_9" d="M72.8948 20.5129H71.2567V53.3335H72.8948V20.5129Z" fill="#E6E6E6"/>
<g id="Group_4">
<path id="Vector_10" d="M76.5859 17.0684C76.9785 14.6525 75.3356 12.3762 72.9164 11.9841C70.4972 11.592 68.2178 13.2326 67.8252 15.6486C67.4325 18.0645 69.0754 20.3408 71.4946 20.7329C73.9138 21.125 76.1932 19.4843 76.5859 17.0684Z" fill="#EBEBEB"/>
<path id="Vector_11" d="M76.0256 16.9776C76.368 14.8707 74.9352 12.8855 72.8255 12.5436C70.7157 12.2016 68.7278 13.6324 68.3854 15.7393C68.043 17.8462 69.4757 19.8314 71.5855 20.1733C73.6953 20.5153 75.6832 19.0845 76.0256 16.9776Z" stroke="white" stroke-width="2" stroke-miterlimit="10"/>
</g>
</g>
<g id="Group_5">
<path id="Vector_12" d="M76.1957 53.8143V56.1675H9.80371V53.8143C9.80371 53.402 10.0961 53.0757 10.4917 53.0757H75.5077C75.9033 53.0757 76.1957 53.4192 76.1957 53.8143Z" fill="#2E353A"/>
<g id="Group_6">
<path id="Vector_13" d="M17.7157 53.0757H13.5877V56.1675H17.7157V53.0757Z" fill="#FFCA40"/>
<path id="Vector_14" d="M25.4557 53.0757H21.4997V56.1675H25.4557V53.0757Z" fill="#FFCA40"/>
<path id="Vector_15" d="M33.3681 53.0757H29.2401V56.1675H33.3681V53.0757Z" fill="#FFCA40"/>
<path id="Vector_16" d="M41.1082 53.0757H37.1522V56.1675H41.1082V53.0757Z" fill="#FFCA40"/>
<path id="Vector_17" d="M48.8474 53.0757H44.8914V56.1675H48.8474V53.0757Z" fill="#FFCA40"/>
<path id="Vector_18" d="M56.7597 53.0757H52.6317V56.1675H56.7597V53.0757Z" fill="#FFCA40"/>
<path id="Vector_19" d="M64.4997 53.0757H60.5437V56.1675H64.4997V53.0757Z" fill="#FFCA40"/>
<path id="Vector_20" d="M72.412 53.0757H68.284V56.1675H72.412V53.0757Z" fill="#FFCA40"/>
<g id="Group_7" opacity="0.6">
<path id="Vector_21" d="M17.7157 53.0757H13.5877V56.1675H17.7157V53.0757Z" fill="white"/>
<path id="Vector_22" d="M25.4557 53.0757H21.4997V56.1675H25.4557V53.0757Z" fill="white"/>
<path id="Vector_23" d="M33.3681 53.0757H29.2401V56.1675H33.3681V53.0757Z" fill="white"/>
<path id="Vector_24" d="M41.1082 53.0757H37.1522V56.1675H41.1082V53.0757Z" fill="white"/>
<path id="Vector_25" d="M48.8474 53.0757H44.8914V56.1675H48.8474V53.0757Z" fill="white"/>
<path id="Vector_26" d="M56.7597 53.0757H52.6317V56.1675H56.7597V53.0757Z" fill="white"/>
<path id="Vector_27" d="M64.4997 53.0757H60.5437V56.1675H64.4997V53.0757Z" fill="white"/>
<path id="Vector_28" d="M72.412 53.0757H68.284V56.1675H72.412V53.0757Z" fill="white"/>
</g>
</g>
<path id="Vector_29" opacity="0.1" d="M76.1957 53.8143V56.1675H9.80371V53.8143C9.80371 53.402 10.0961 53.0757 10.4917 53.0757H75.5077C75.9033 53.0757 76.1957 53.4192 76.1957 53.8143Z" fill="white"/>
</g>
<g id="Group_8">
<g id="Group_9">
<path id="Vector_30" d="M27.864 7.33437V32.2404C27.864 32.4637 27.6404 32.6527 27.4168 32.6527H12.5044C12.298 32.6527 12.212 32.4809 12.212 32.2748V7.30002C12.212 7.11107 12.2636 6.88778 12.4528 6.88778H16.168C16.2712 6.88778 16.3744 6.99084 16.4088 7.0939L16.5636 7.43743C16.598 7.54049 16.7012 7.57484 16.8044 7.57484H23.1512C23.2544 7.57484 23.3576 7.55767 23.392 7.45461L23.5468 7.05954C23.5812 6.95648 23.6844 6.88778 23.7876 6.88778H27.4684C27.6748 6.8706 27.864 7.12825 27.864 7.33437Z" fill="#FFCA40"/>
<path id="Vector_31" opacity="0.2" d="M27.864 7.33437V32.2404C27.864 32.4637 27.6404 32.6527 27.4168 32.6527H12.5044C12.298 32.6527 12.212 32.4809 12.212 32.2748V7.30002C12.212 7.11107 12.2636 6.88778 12.4528 6.88778H16.168C16.2712 6.88778 16.3744 6.99084 16.4088 7.0939L16.5636 7.43743C16.598 7.54049 16.7012 7.57484 16.8044 7.57484H23.1512C23.2544 7.57484 23.3576 7.55767 23.392 7.45461L23.5468 7.05954C23.5812 6.95648 23.6844 6.88778 23.7876 6.88778H27.4684C27.6748 6.8706 27.864 7.12825 27.864 7.33437Z" fill="white"/>
</g>
<path id="Vector_32" opacity="0.4" d="M27.2615 9.6189H12.8135V27.4826H27.2615V9.6189Z" fill="white"/>
<path id="Vector_33" d="M24.424 11.8175C24.0456 11.4396 23.4436 11.4396 23.0652 11.8175C22.6868 12.1954 22.6868 12.7965 23.0652 13.1744L23.736 13.8443L24.4068 13.1744C24.8024 12.7965 24.8024 12.1954 24.424 11.8175ZM24.08 12.8309C23.8908 13.0198 23.5984 13.0198 23.4264 12.8309C23.2372 12.6419 23.2372 12.3499 23.4264 12.1782C23.6156 11.9892 23.908 11.9892 24.08 12.1782C24.252 12.3499 24.252 12.6419 24.08 12.8309Z" fill="#FFCA40"/>
<path id="Vector_34" d="M15.4628 23.927C15.0844 23.5491 14.4824 23.5491 14.104 23.927C13.7256 24.3049 13.7256 24.906 14.104 25.2839L14.7748 25.9538L15.4456 25.2839C15.8412 24.906 15.8412 24.3049 15.4628 23.927ZM15.1188 24.9232C14.9296 25.1122 14.6372 25.1122 14.4652 24.9232C14.276 24.7343 14.276 24.4423 14.4652 24.2705C14.6544 24.0816 14.9468 24.0816 15.1188 24.2705C15.2908 24.4594 15.2908 24.7514 15.1188 24.9232Z" fill="#FFCA40"/>
<path id="Vector_35" d="M25.1803 9.6189H24.3031L25.2319 14.0676L20.8803 15.1498L19.7279 9.6189H18.8507L20.0375 15.3559L15.4279 16.5067L14.0003 9.63607H13.1231L14.6023 16.7128L12.8135 17.1594V18.0526L14.7743 17.5545L15.6687 21.9002L12.8135 22.6216V23.5148L15.8579 22.759L16.8211 27.5169H17.6983L16.6663 22.5529L17.8875 22.2437C17.9735 22.2265 18.0595 22.2265 18.1283 22.278C18.1971 22.3296 18.2487 22.3983 18.2659 22.4842L19.3667 27.5169H20.2439L19.1087 22.3124C19.0399 22.0032 18.8507 21.7284 18.5755 21.5566C18.3003 21.3849 17.9735 21.3333 17.6639 21.4192L16.4771 21.7112L15.5999 17.3484L20.2095 16.1975L20.6223 18.1385C20.7255 18.671 21.1727 19.066 21.7059 19.1176L26.4015 19.6329L27.2787 23.8411V18.8599L21.8091 18.2587C21.6371 18.2415 21.4995 18.1213 21.4823 17.9495L21.0695 15.9742L27.2787 14.4283V13.5695L26.0747 13.8615L25.1803 9.6189Z" fill="#FFCA40"/>
<g id="Group_10">
<path id="Vector_36" d="M23.22 30.9521H16.856C16.254 30.9521 15.7552 30.454 15.7552 29.8528C15.7552 29.2517 16.254 28.7535 16.856 28.7535H23.22C23.822 28.7535 24.3208 29.2517 24.3208 29.8528C24.338 30.454 23.8392 30.9521 23.22 30.9521Z" fill="#FFCA40"/>
</g>
<path id="Vector_37" opacity="0.2" d="M27.8645 17.6404V32.189C27.8645 32.4466 27.6581 32.6355 27.4173 32.6355H24.7169V18.7569C24.7169 18.1385 25.2157 17.6404 25.8349 17.6404H27.8645Z" fill="black"/>
</g>
<g id="Group_11">
<g id="Group_12">
<path id="Vector_38" d="M41.6237 20.9039V45.81C41.6237 46.0333 41.4001 46.2223 41.1765 46.2223H26.2641C26.0577 46.2223 25.9717 46.0505 25.9717 45.8444V20.8696C25.9717 20.6807 26.0233 20.4574 26.1953 20.4574H29.9277C30.0309 20.4574 30.1341 20.5604 30.1685 20.6635L30.3233 21.007C30.3577 21.1101 30.4609 21.1444 30.5641 21.1444H36.9109C37.0141 21.1444 37.1173 21.1272 37.1517 21.0242L37.3065 20.6291C37.3409 20.5261 37.4441 20.4574 37.5473 20.4574H41.2281C41.4345 20.4402 41.6237 20.6978 41.6237 20.9039Z" fill="#407BFF"/>
<path id="Vector_39" opacity="0.2" d="M41.6237 20.9039V45.81C41.6237 46.0333 41.4001 46.2223 41.1765 46.2223H26.2641C26.0577 46.2223 25.9717 46.0505 25.9717 45.8444V20.8696C25.9717 20.6807 26.0233 20.4574 26.1953 20.4574H29.9277C30.0309 20.4574 30.1341 20.5604 30.1685 20.6635L30.3233 21.007C30.3577 21.1101 30.4609 21.1444 30.5641 21.1444H36.9109C37.0141 21.1444 37.1173 21.1272 37.1517 21.0242L37.3065 20.6291C37.3409 20.5261 37.4441 20.4574 37.5473 20.4574H41.2281C41.4345 20.4402 41.6237 20.6978 41.6237 20.9039Z" fill="white"/>
</g>
<path id="Vector_40" d="M41.0217 23.1713H26.4533V27.62H41.0217V23.1713Z" fill="#407BFF"/>
<path id="Vector_41" opacity="0.4" d="M41.0217 27.9635H26.4533V44.8996H41.0217V27.9635Z" fill="white"/>
<g id="Group_13">
<path id="Vector_42" d="M38.0289 38.1665C38.0289 38.7505 36.1025 39.2314 33.7289 39.2314C31.3553 39.2314 29.4289 38.7505 29.4289 38.1665C29.4289 37.5825 31.3553 37.1015 33.7289 37.1015C36.1197 37.0843 38.0289 37.5653 38.0289 38.1665Z" fill="#407BFF"/>
<path id="Vector_43" opacity="0.2" d="M38.0289 38.1665C38.0289 38.7505 36.1025 39.2314 33.7289 39.2314C31.3553 39.2314 29.4289 38.7505 29.4289 38.1665C29.4289 37.5825 31.3553 37.1015 33.7289 37.1015C36.1197 37.0843 38.0289 37.5653 38.0289 38.1665Z" fill="black"/>
</g>
<path id="Vector_44" d="M36.0505 30.6946C34.7777 29.4236 32.7137 29.4236 31.4409 30.6946C30.1681 31.9657 30.1681 34.0269 31.4409 35.298L33.7457 37.5996L36.0505 35.298C37.3233 34.0269 37.3233 31.9657 36.0505 30.6946ZM34.8465 34.1128C34.2273 34.7311 33.2297 34.7311 32.6105 34.1128C31.9913 33.4944 31.9913 32.4982 32.6105 31.8798C33.2297 31.2615 34.2273 31.2615 34.8465 31.8798C35.4657 32.4982 35.4657 33.4944 34.8465 34.1128Z" fill="#407BFF"/>
<g id="Group_14">
<path id="Vector_45" d="M35.5521 43.1648H31.9229C31.3209 43.1648 30.8221 42.6667 30.8221 42.0655C30.8221 41.4643 31.3209 40.9662 31.9229 40.9662H35.5521C36.1541 40.9662 36.6529 41.4643 36.6529 42.0655C36.6529 42.6667 36.1541 43.1648 35.5521 43.1648Z" fill="#407BFF"/>
</g>
<path id="Vector_46" opacity="0.2" d="M41.6242 32.1889V20.9039C41.6242 20.6462 41.4178 20.4573 41.177 20.4573H38.4766V31.0724C38.4766 31.6908 38.9754 32.1889 39.5946 32.1889H41.6242Z" fill="black"/>
<path id="Vector_47" opacity="0.4" d="M39.1813 23.9099H32.1981C31.8541 23.9099 31.5617 24.2019 31.5617 24.5454C31.5617 24.889 31.8541 25.181 32.1981 25.181H39.1813C39.5253 25.181 39.8177 24.889 39.8177 24.5454C39.8177 24.1847 39.5253 23.9099 39.1813 23.9099Z" fill="white"/>
<path id="Vector_48" opacity="0.4" d="M39.1813 25.6276H32.1981C31.8541 25.6276 31.5617 25.9196 31.5617 26.2631C31.5617 26.6066 31.8541 26.8986 32.1981 26.8986H39.1813C39.5253 26.8986 39.8177 26.6066 39.8177 26.2631C39.8177 25.9024 39.5253 25.6276 39.1813 25.6276Z" fill="white"/>
</g>
<g id="Group_15">
<g id="Group_16">
<path id="Vector_49" d="M55.2116 3.04018V27.9462C55.2116 28.1695 55.074 28.3585 54.8504 28.3585H39.938C39.7316 28.3585 39.5596 28.1867 39.5596 27.9806V3.00583C39.5596 2.81688 39.6972 2.59359 39.8864 2.59359H43.6188C43.722 2.59359 43.8252 2.69665 43.8596 2.79971L44.0144 3.14324C44.0488 3.2463 44.152 3.28065 44.2552 3.28065H50.602C50.7052 3.28065 50.8084 3.26348 50.8428 3.16042L50.9976 2.76535C51.032 2.6623 51.1352 2.59359 51.2384 2.59359H54.9192C55.1084 2.57641 55.2116 2.83406 55.2116 3.04018Z" fill="#FFCA40"/>
<path id="Vector_50" opacity="0.2" d="M55.2116 3.04018V27.9462C55.2116 28.1695 55.074 28.3585 54.8504 28.3585H39.938C39.7316 28.3585 39.5596 28.1867 39.5596 27.9806V3.00583C39.5596 2.81688 39.6972 2.59359 39.8864 2.59359H43.6188C43.722 2.59359 43.8252 2.69665 43.8596 2.79971L44.0144 3.14324C44.0488 3.2463 44.152 3.28065 44.2552 3.28065H50.602C50.7052 3.28065 50.8084 3.26348 50.8428 3.16042L50.9976 2.76535C51.032 2.6623 51.1352 2.59359 51.2384 2.59359H54.9192C55.1084 2.57641 55.2116 2.83406 55.2116 3.04018Z" fill="white"/>
</g>
<g id="Group_17">
<g id="Group_18">
<path id="Vector_51" d="M47.3168 19.1518C50.4706 19.1518 53.0272 16.5987 53.0272 13.4492C53.0272 10.2997 50.4706 7.74658 47.3168 7.74658C44.163 7.74658 41.6064 10.2997 41.6064 13.4492C41.6064 16.5987 44.163 19.1518 47.3168 19.1518Z" fill="#FFCA40"/>
<path id="Vector_52" opacity="0.4" d="M53.0616 13.4492C53.0616 14.4283 52.8208 15.3386 52.3908 16.1459C51.4276 17.9495 49.5356 19.169 47.3512 19.169C45.1668 19.169 43.2748 17.9495 42.3116 16.1459C41.8816 15.3386 41.6408 14.4283 41.6408 13.4492C41.6408 10.2887 44.2036 7.74658 47.3512 7.74658C50.4988 7.74658 53.0616 10.2887 53.0616 13.4492Z" fill="white"/>
</g>
<g id="Group_19">
<path id="Vector_53" d="M48.1943 11.6456H47.2139L47.3687 11.2334H48.0567L48.1943 11.6456Z" fill="#FFCA40"/>
<path id="Vector_54" d="M51.7888 15.2871H42.4492L42.6728 13.7928C42.7072 13.5866 42.862 13.432 43.0684 13.4149L44.926 13.1744L46.044 11.8862C46.13 11.7831 46.2332 11.7316 46.3708 11.6972C46.5772 11.6629 46.9728 11.6113 47.6952 11.6113C48.3488 11.6113 48.7444 11.6457 48.9852 11.6972C49.1572 11.7144 49.3464 11.8346 49.3464 11.972L49.3636 11.9892L49.8796 13.0713L49.8624 13.0885L49.9656 13.1572L51.3932 13.3977C51.5136 13.4149 51.634 13.5179 51.634 13.6382L51.7888 15.2871Z" fill="#FFCA40"/>
<path id="Vector_55" opacity="0.2" d="M51.7888 15.2871H42.4492L42.6728 13.7928C42.7072 13.5866 42.862 13.432 43.0684 13.4149L44.926 13.1744L46.044 11.8862C46.13 11.7831 46.2332 11.7316 46.3708 11.6972C46.5772 11.6629 46.9728 11.6113 47.6952 11.6113C48.3488 11.6113 48.7444 11.6457 48.9852 11.6972C49.1572 11.7144 49.3464 11.8346 49.3464 11.972L49.3636 11.9892L49.8796 13.0713L49.8624 13.0885L49.9656 13.1572L51.3932 13.3977C51.5136 13.4149 51.634 13.5179 51.634 13.6382L51.7888 15.2871Z" fill="black"/>
<g id="Group_20">
<path id="Vector_56" d="M45.0806 15.3386C45.0806 15.7851 44.7194 16.1459 44.2722 16.1459C43.825 16.1459 43.4638 15.7851 43.4638 15.3386C43.4638 14.892 43.825 14.5312 44.2722 14.5312C44.7194 14.5312 45.0806 14.892 45.0806 15.3386Z" fill="#2E353A"/>
<path id="Vector_57" d="M44.6847 15.3385C44.6847 15.5618 44.5127 15.7336 44.2891 15.7336C44.0655 15.7336 43.8935 15.5618 43.8935 15.3385C43.8935 15.1152 44.0655 14.9435 44.2891 14.9435C44.4955 14.9263 44.6847 15.1152 44.6847 15.3385Z" fill="#FFCA40"/>
</g>
<g id="Group_21">
<path id="Vector_58" d="M50.8774 15.3386C50.8774 15.7851 50.5162 16.1459 50.069 16.1459C49.6218 16.1459 49.2606 15.7851 49.2606 15.3386C49.2606 14.892 49.6218 14.5312 50.069 14.5312C50.5162 14.5312 50.8774 14.892 50.8774 15.3386Z" fill="#2E353A"/>
<path id="Vector_59" d="M50.4815 15.3385C50.4815 15.5618 50.3095 15.7336 50.0859 15.7336C49.8623 15.7336 49.6903 15.5618 49.6903 15.3385C49.6903 15.1152 49.8623 14.9435 50.0859 14.9435C50.2923 14.9263 50.4815 15.1152 50.4815 15.3385Z" fill="#FFCA40"/>
</g>
<path id="Vector_60" d="M43.2578 15.3902H42.4322C42.3806 15.3902 42.329 15.3386 42.329 15.2871V15.0295C42.329 14.9779 42.3806 14.9264 42.4322 14.9264H43.2578C43.3094 14.9264 43.361 14.9779 43.361 15.0295V15.2871C43.361 15.3558 43.3266 15.3902 43.2578 15.3902Z" fill="#FFCA40"/>
<path id="Vector_61" d="M51.7547 15.3902H51.0839C51.0323 15.3902 50.9807 15.3386 50.9807 15.2871V15.0295C50.9807 14.9779 51.0323 14.9264 51.0839 14.9264H51.7547C51.8063 14.9264 51.8579 14.9779 51.8579 15.0295V15.2871C51.8579 15.3558 51.8063 15.3902 51.7547 15.3902Z" fill="#FFCA40"/>
<path id="Vector_62" d="M42.9822 14.4282C42.9822 14.5999 42.9134 14.7545 42.8446 14.7545C42.7758 14.7545 42.707 14.6171 42.707 14.4282C42.707 14.2564 42.7758 14.1018 42.8446 14.1018C42.9134 14.1018 42.9822 14.2564 42.9822 14.4282Z" fill="#FFCA40"/>
<path id="Vector_63" d="M51.6859 14.8061H51.4279V14.119H51.6171L51.6859 14.8061Z" fill="#FFCA40"/>
<g id="Group_22">
<path id="Vector_64" d="M43.275 13.8442H42.9998V14.1191H43.275V13.8442Z" fill="#FFCA40"/>
<path id="Vector_65" d="M43.5502 14.119H43.275V14.3938H43.5502V14.119Z" fill="#FFCA40"/>
<path id="Vector_66" d="M43.8258 13.8442H43.5506V14.1191H43.8258V13.8442Z" fill="#FFCA40"/>
<path id="Vector_67" d="M44.1002 14.1191H43.825V14.394H44.1002V14.1191Z" fill="#FFCA40"/>
<path id="Vector_68" d="M44.359 13.8442H44.0838V14.1191H44.359V13.8442Z" fill="#FFCA40"/>
<path id="Vector_69" d="M44.6334 14.1191H44.3582V14.394H44.6334V14.1191Z" fill="#FFCA40"/>
<path id="Vector_70" d="M44.909 13.8442H44.6338V14.1191H44.909V13.8442Z" fill="#FFCA40"/>
<path id="Vector_71" d="M45.1842 14.119H44.909V14.3938H45.1842V14.119Z" fill="#FFCA40"/>
<path id="Vector_72" d="M45.4422 13.8442H45.167V14.1191H45.4422V13.8442Z" fill="#FFCA40"/>
<path id="Vector_73" d="M45.7174 14.119H45.4422V14.3938H45.7174V14.119Z" fill="#FFCA40"/>
<path id="Vector_74" d="M45.9926 13.8442H45.7174V14.1191H45.9926V13.8442Z" fill="#FFCA40"/>
<path id="Vector_75" d="M46.2682 14.1191H45.993V14.394H46.2682V14.1191Z" fill="#FFCA40"/>
<path id="Vector_76" d="M46.5258 13.8442H46.2506V14.1191H46.5258V13.8442Z" fill="#FFCA40"/>
<path id="Vector_77" d="M46.8014 14.1191H46.5262V14.394H46.8014V14.1191Z" fill="#FFCA40"/>
<path id="Vector_78" d="M47.0758 13.8442H46.8006V14.1191H47.0758V13.8442Z" fill="#FFCA40"/>
<path id="Vector_79" d="M47.3514 14.119H47.0762V14.3938H47.3514V14.119Z" fill="#FFCA40"/>
<path id="Vector_80" d="M47.609 13.8442H47.3338V14.1191H47.609V13.8442Z" fill="#FFCA40"/>
<path id="Vector_81" d="M47.8846 14.119H47.6094V14.3938H47.8846V14.119Z" fill="#FFCA40"/>
<path id="Vector_82" d="M48.1598 13.8442H47.8846V14.1191H48.1598V13.8442Z" fill="#FFCA40"/>
<path id="Vector_83" d="M48.435 14.119H48.1598V14.3938H48.435V14.119Z" fill="#FFCA40"/>
<path id="Vector_84" d="M48.693 13.8442H48.4178V14.1191H48.693V13.8442Z" fill="#FFCA40"/>
<path id="Vector_85" d="M48.9682 14.119H48.693V14.3938H48.9682V14.119Z" fill="#FFCA40"/>
<path id="Vector_86" d="M49.2438 13.8442H48.9686V14.1191H49.2438V13.8442Z" fill="#FFCA40"/>
<path id="Vector_87" d="M49.5182 14.1191H49.243V14.394H49.5182V14.1191Z" fill="#FFCA40"/>
<path id="Vector_88" d="M49.777 13.8442H49.5018V14.1191H49.777V13.8442Z" fill="#FFCA40"/>
<path id="Vector_89" d="M50.0514 14.1191H49.7762V14.394H50.0514V14.1191Z" fill="#FFCA40"/>
<path id="Vector_90" d="M50.327 13.8442H50.0518V14.1191H50.327V13.8442Z" fill="#FFCA40"/>
<path id="Vector_91" d="M50.6022 14.119H50.327V14.3938H50.6022V14.119Z" fill="#FFCA40"/>
<path id="Vector_92" d="M50.8774 13.8442H50.6022V14.1191H50.8774V13.8442Z" fill="#FFCA40"/>
<path id="Vector_93" d="M51.1354 14.119H50.8602V14.3938H51.1354V14.119Z" fill="#FFCA40"/>
<path id="Vector_94" d="M51.4106 13.8442H51.1354V14.1191H51.4106V13.8442Z" fill="#FFCA40"/>
</g>
<path id="Vector_95" d="M47.8154 13.037V11.9033L48.7442 11.9205C48.8646 11.9205 48.9678 11.9892 49.0022 12.0923L49.4322 13.037H47.8154Z" fill="#FFCA40"/>
<path id="Vector_96" d="M45.5626 13.0369L46.3366 12.0922C46.4226 11.9719 46.5602 11.9204 46.715 11.9204H47.5406V13.0541H45.5626V13.0369Z" fill="#FFCA40"/>
<path id="Vector_97" d="M46.2506 11.9205L45.3046 13.1057C45.3046 13.1057 45.3046 13.14 44.9434 13.1916L46.0614 11.9033L46.2506 11.9205Z" fill="#FFCA40"/>
<path id="Vector_98" d="M49.949 13.1056L49.7082 13.054L49.1406 11.9719C49.2438 11.9891 49.3642 11.9891 49.3642 11.9891L49.3814 12.0063L49.949 13.1056Z" fill="#FFCA40"/>
<path id="Vector_99" opacity="0.2" d="M42.9822 14.4282C42.9822 14.5999 42.9134 14.7545 42.8446 14.7545C42.7758 14.7545 42.707 14.6171 42.707 14.4282C42.707 14.2564 42.7758 14.1018 42.8446 14.1018C42.9134 14.1018 42.9822 14.2564 42.9822 14.4282Z" fill="white"/>
<path id="Vector_100" opacity="0.2" d="M51.6859 14.8061H51.4279V14.119H51.6171L51.6859 14.8061Z" fill="white"/>
</g>
<path id="Vector_101" d="M52.3913 16.146C51.4281 17.8637 49.5361 19.1691 47.3517 19.1691C45.1673 19.1691 43.2581 17.8637 42.2949 16.146H52.3913Z" fill="#FFCA40"/>
<g id="Group_23">
<path id="Vector_102" d="M48.4524 10.3058H47.1796C47.0592 10.3058 46.956 10.2028 46.956 10.0825C46.956 9.96231 47.0592 9.85925 47.1796 9.85925H48.4524C48.5728 9.85925 48.676 9.96231 48.676 10.0825C48.676 10.22 48.5728 10.3058 48.4524 10.3058Z" fill="#FFCA40"/>
<path id="Vector_103" d="M48.1084 9.85931C48.1084 10.0998 47.902 10.3059 47.6612 10.3059C47.4204 10.3059 47.214 10.0998 47.214 9.85931C47.214 9.61884 47.4204 9.41272 47.6612 9.41272C47.902 9.4299 48.1084 9.61884 48.1084 9.85931Z" fill="#FFCA40"/>
<path id="Vector_104" d="M48.0571 10.1169C48.1901 10.1169 48.2979 10.0093 48.2979 9.87646C48.2979 9.74365 48.1901 9.63599 48.0571 9.63599C47.9242 9.63599 47.8163 9.74365 47.8163 9.87646C47.8163 10.0093 47.9242 10.1169 48.0571 10.1169Z" fill="#FFCA40"/>
</g>
<g id="Group_24">
<path id="Vector_105" d="M51.514 12.0923H50.5508C50.4648 12.0923 50.3788 12.0236 50.3788 11.9205C50.3788 11.8347 50.4476 11.7488 50.5508 11.7488H51.514C51.6 11.7488 51.686 11.8175 51.686 11.9205C51.686 12.0064 51.6 12.0923 51.514 12.0923Z" fill="#FFCA40"/>
<path id="Vector_106" d="M50.9293 12.0751C51.1098 12.0751 51.2561 11.929 51.2561 11.7487C51.2561 11.5685 51.1098 11.4224 50.9293 11.4224C50.7488 11.4224 50.6025 11.5685 50.6025 11.7487C50.6025 11.929 50.7488 12.0751 50.9293 12.0751Z" fill="#FFCA40"/>
<path id="Vector_107" d="M51.2214 11.9377C51.3259 11.9377 51.4106 11.8531 51.4106 11.7488C51.4106 11.6444 51.3259 11.5598 51.2214 11.5598C51.1169 11.5598 51.0322 11.6444 51.0322 11.7488C51.0322 11.8531 51.1169 11.9377 51.2214 11.9377Z" fill="#FFCA40"/>
</g>
<g id="Group_25">
<path id="Vector_108" d="M44.1008 12.0235H42.828C42.7076 12.0235 42.6044 11.9204 42.6044 11.8002C42.6044 11.68 42.7076 11.5769 42.828 11.5769H44.1008C44.2212 11.5769 44.3244 11.68 44.3244 11.8002C44.3416 11.9204 44.2384 12.0235 44.1008 12.0235Z" fill="#FFCA40"/>
<path id="Vector_109" d="M43.3268 12.0236C43.5738 12.0236 43.774 11.8236 43.774 11.577C43.774 11.3303 43.5738 11.1304 43.3268 11.1304C43.0799 11.1304 42.8796 11.3303 42.8796 11.577C42.8796 11.8236 43.0799 12.0236 43.3268 12.0236Z" fill="#FFCA40"/>
<path id="Vector_110" d="M43.7222 11.8174C43.8552 11.8174 43.963 11.7097 43.963 11.5769C43.963 11.4441 43.8552 11.3364 43.7222 11.3364C43.5892 11.3364 43.4814 11.4441 43.4814 11.5769C43.4814 11.7097 43.5892 11.8174 43.7222 11.8174Z" fill="#FFCA40"/>
</g>
</g>
<g id="Group_26">
<path id="Vector_111" d="M50.4988 24.2876H44.1176C43.5156 24.2876 43.0168 23.7895 43.0168 23.1883C43.0168 22.5871 43.5156 22.089 44.1176 22.089H50.4988C51.1008 22.089 51.5996 22.5871 51.5996 23.1883C51.5996 23.7895 51.1008 24.2876 50.4988 24.2876Z" fill="#FFCA40"/>
</g>
</g>
<g id="Group_27">
<path id="Vector_112" d="M68.112 34.9028C68.0776 35.5899 63.5196 36.672 62.9348 36.3285C62.35 35.985 62.9348 31.3473 62.9348 31.3473L66.4436 30.6259C66.5124 30.7633 68.1464 34.2329 68.112 34.9028Z" fill="#2E353A"/>
<path id="Vector_113" d="M67.166 31.1755C66.2372 31.7595 65.0332 30.7461 64.156 29.7327C63.4336 28.9082 62.9348 28.0665 62.9348 28.0665L63.9496 26.555L65.36 28.0322L65.618 28.2555L65.446 27.9463L64.3624 26.2286L65.532 22.8448C65.532 22.8448 68.8516 30.1277 67.166 31.1755Z" fill="#407BFF"/>
<path id="Vector_114" opacity="0.2" d="M63.9496 26.5551L65.36 28.0322C65.188 28.8052 64.758 29.4407 64.1216 29.7327C63.3992 28.9082 62.9005 28.0666 62.9005 28.0666L63.9496 26.5551Z" fill="black"/>
<path id="Vector_115" opacity="0.2" d="M65.4632 27.9463L64.3624 26.2286L65.532 22.8448C65.532 22.8448 66.048 25.8679 65.4632 27.9463Z" fill="black"/>
<path id="Vector_116" d="M50.5336 24.3736L48.8652 24.03C48.8652 24.03 48.2804 23.4804 48.074 23.3086C47.8676 23.1368 47.0936 22.8792 46.956 22.9479C46.8184 23.0166 47.5408 23.3601 47.5408 23.3601C47.5408 23.3601 47.1968 24.0987 47.2656 24.322C47.3344 24.5453 48.3492 24.8373 48.4352 24.803L50.1208 25.4385L50.5336 24.3736Z" fill="#EBB376"/>
<g id="Group_28">
<path id="Vector_117" d="M50.0172 24.1332L49.226 24.0129L48.882 25.0779L49.5184 25.3355L50.0172 24.1332Z" fill="#407BFF"/>
<path id="Vector_118" opacity="0.6" d="M50.0172 24.1332L49.226 24.0129L48.882 25.0779L49.5184 25.3355L50.0172 24.1332Z" fill="white"/>
</g>
<path id="Vector_119" d="M68.336 59.9808L67.2008 60.1869L66.7192 58.6238L66.2892 57.1981L67.6136 56.7344L68.0092 58.452L68.336 59.9808Z" fill="#E4897B"/>
<path id="Vector_120" opacity="0.2" d="M68.0088 58.4864L66.736 58.6582L66.306 57.1981L67.6132 56.7344L68.0088 58.4864Z" fill="black"/>
<path id="Vector_121" d="M60.6988 60.4617H59.5292L59.34 58.8471L59.168 57.3699L60.544 57.1466L60.63 58.8986L60.6988 60.4617Z" fill="#E4897B"/>
<path id="Vector_122" opacity="0.2" d="M60.63 58.933L59.34 58.8814L59.168 57.3871L60.544 57.1466L60.63 58.933Z" fill="black"/>
<g id="Group_29">
<g id="Group_30">
<path id="Vector_123" d="M68.112 57.576L66.2372 57.9024C64.328 53.1788 62.9864 49.2282 62.0232 45.9474C61.5072 44.1783 61.1116 42.6152 60.802 41.2067L60.888 46.3597V58.0569H58.9788C54.3348 35.8991 57.62 30.832 57.62 30.832L63.1928 29.8873C63.3992 30.7118 63.5712 32.0688 63.6572 32.9963L63.9152 34.8342L66.0824 46.0505L68.112 57.576Z" fill="#407BFF"/>
</g>
<g id="Group_31" opacity="0.5">
<path id="Vector_124" d="M68.1116 57.576L66.2368 57.9024C64.4996 53.5911 63.2268 49.9153 62.2808 46.8235C62.1948 46.5315 62.1088 46.2395 62.0228 45.9647C61.5584 44.3672 61.2316 42.9244 60.8876 41.619C60.8876 41.4816 60.836 41.3613 60.8016 41.2239L60.8876 46.3769V58.057H58.9784C56.1404 44.5218 56.2608 37.3764 56.794 33.8552C57.138 31.605 57.6368 30.8493 57.6368 30.8493L63.2096 29.9045C63.416 30.729 63.588 32.086 63.674 33.0135L63.7428 33.5632L63.9148 34.8514L66.082 46.0677L68.1116 57.576Z" fill="white"/>
</g>
</g>
<g id="Group_32">
<path id="Vector_125" d="M65.9445 57.6791L68.2665 56.9061L68.2493 57.9024L66.3057 58.5036L65.9445 57.6791Z" fill="#407BFF"/>
<path id="Vector_126" opacity="0.6" d="M65.9445 57.6791L68.2665 56.9061L68.2493 57.9024L66.3057 58.5036L65.9445 57.6791Z" fill="white"/>
</g>
<g id="Group_33">
<path id="Vector_127" d="M58.7208 57.7821L61.1632 57.4214L60.9568 58.4005L58.9444 58.6753L58.7208 57.7821Z" fill="#407BFF"/>
<path id="Vector_128" opacity="0.6" d="M58.7208 57.7821L61.1632 57.4214L60.9568 58.4005L58.9444 58.6753L58.7208 57.7821Z" fill="white"/>
</g>
<path id="Vector_129" opacity="0.2" d="M62.2808 46.8234C62.1948 46.5314 62.1088 46.2394 62.0228 45.9645C61.5584 44.3671 61.2316 42.9243 60.8876 41.6188L60.6984 39.2313C60.6984 39.2313 61.8852 36.6205 61.438 34.7654C61.4724 34.8684 62.2636 36.8781 61.954 38.8878C61.954 38.8878 61.7992 42.512 62.2808 46.8234Z" fill="black"/>
<path id="Vector_130" opacity="0.2" d="M63.726 33.5632L56.7772 33.8552C57.1212 31.605 57.62 30.8493 57.62 30.8493L63.1928 29.9045C63.3992 30.729 63.5712 32.086 63.6572 33.0135L63.726 33.5632Z" fill="black"/>
<g id="Group_34">
<path id="Vector_131" d="M62.9695 20.3371C62.9523 20.3543 62.9351 20.3543 62.9179 20.3714C62.7115 20.526 62.4707 20.6634 62.1955 20.715C61.4387 20.8867 60.9227 20.7837 60.5787 20.4401C60.0971 19.9248 59.9939 19.0145 60.0455 17.9152C60.0799 17.4171 60.1487 16.9705 60.2863 16.6269V16.6098C60.2863 16.5926 60.3035 16.5754 60.3035 16.5582C60.5099 16.0773 60.8539 15.7681 61.4043 15.6479C61.5935 15.5963 61.8171 15.5792 62.0579 15.5792C64.2251 15.562 64.6207 19.1175 62.9695 20.3371Z" fill="#EBB376"/>
<path id="Vector_132" opacity="0.2" d="M62.9174 20.3715C62.711 20.5261 62.4702 20.6291 62.195 20.6978C61.4382 20.8696 60.9222 20.7494 60.5782 20.3886C60.9566 20.4745 61.4554 20.5089 61.937 20.2684C62.2638 20.131 62.6078 20.1997 62.9174 20.3715Z" fill="black"/>
<path id="Vector_133" d="M63.1416 22.3124C63.2792 22.9308 62.488 23.1712 62.488 23.1712C61.198 22.6216 60.9572 21.9345 60.9572 21.9345C62.0408 21.3677 61.7312 19.7703 61.7312 19.7703L61.9548 19.8733L63.5028 20.1825C63.5028 20.1825 63.0728 21.007 63.0212 21.1959C62.6944 22.175 63.1416 22.3124 63.1416 22.3124Z" fill="#EBB376"/>
<path id="Vector_134" d="M60.3035 16.6269C60.3035 16.6269 60.1831 18.1385 61.6107 18.774C61.6107 18.774 62.2299 20.3371 63.1243 20.3543C64.3627 20.3886 65.4463 18.6366 65.0163 16.8502C64.4659 14.5486 60.9571 14.3596 60.3035 16.6269Z" fill="#2E353A"/>
<path id="Vector_135" d="M62.7115 14.8578C62.7115 14.8578 60.3723 14.2051 60.0455 15.854C59.5983 18.1213 61.3871 18.3618 61.3871 18.3618C61.3871 18.3618 61.5763 20.2512 60.8883 20.9383C60.8883 20.9383 62.4879 22.0548 65.1023 21.1959C66.8223 20.6291 65.2055 17.9667 65.2055 17.9667C65.2055 17.9667 66.1687 14.4627 62.7115 14.8578Z" fill="#2E353A"/>
<path id="Vector_136" d="M60.8888 18.3447C60.8888 18.1042 61.078 17.7092 61.4392 17.7607C61.8176 17.8122 62.024 18.7398 61.0952 18.963C60.9748 18.9802 60.8888 18.8256 60.8888 18.3447Z" fill="#EBB376"/>
<path id="Vector_137" d="M61.5647 14.7965C61.5647 14.7965 60.4123 14.5045 60.0855 15.9302C59.7759 17.3558 60.8251 17.9055 60.8251 17.9055" stroke="#2E353A" stroke-width="0.5" stroke-miterlimit="10" stroke-linecap="round" stroke-linejoin="round"/>
</g>
<g id="Group_35">
<path id="Vector_138" d="M60.3029 21.7456C60.3029 21.7456 61.5585 21.0758 62.9345 21.5395C64.3105 22.0033 64.0009 22.9308 64.0009 22.9308L60.3029 21.7456Z" fill="#407BFF"/>
<path id="Vector_139" opacity="0.5" d="M60.3029 21.7456C60.3029 21.7456 61.5585 21.0758 62.9345 21.5395C64.3105 22.0033 64.0009 22.9308 64.0009 22.9308L60.3029 21.7456Z" fill="white"/>
</g>
<path id="Vector_140" d="M65.532 22.8449C65.532 22.8449 64.3452 22.3811 63.2788 22.0891C62.4532 21.883 61.6104 21.7456 60.7504 21.6597C59.942 21.5738 59.1336 21.5395 58.3252 21.5567C58.3424 21.9517 58.3596 22.3124 58.3768 22.656C58.394 23.1197 58.4112 23.532 58.4284 23.927C58.4456 24.6656 58.4456 25.284 58.4284 25.8508C58.3768 27.3452 58.222 28.3414 57.9812 29.4751L56.7772 32.3951L63.984 33.3055L63.5712 30.437C64.758 26.9673 65.274 25.1294 65.4632 24.0988C65.6868 22.948 65.532 22.8449 65.532 22.8449Z" fill="#407BFF"/>
<path id="Vector_141" d="M58.3252 21.5566C58.3252 21.5566 58.996 22.8621 58.4284 24.4767C58.4284 24.4767 54.5068 27.2764 53.3888 27.0703C52.2708 26.8642 49.2608 25.4729 49.2608 25.4729L49.7424 24.0644C49.7424 24.0644 53.2168 24.7515 53.5264 24.8889C53.836 25.0263 58.3252 21.5566 58.3252 21.5566Z" fill="#407BFF"/>
<g id="Group_36">
<path id="Vector_142" d="M64.7405 22.5529C64.7405 22.5529 66.4261 27.6887 66.8217 31.9313L66.2713 31.8626C66.2713 31.8626 65.4801 24.8717 64.4825 22.5186L64.7405 22.5529Z" fill="#2E353A"/>
<path id="Vector_143" opacity="0.2" d="M64.7405 22.5529C64.7405 22.5529 66.4261 27.6887 66.8217 31.9313L66.2713 31.8626C66.2713 31.8626 65.4801 24.8717 64.4825 22.5186L64.7405 22.5529Z" fill="black"/>
<path id="Vector_144" d="M66.4434 30.6431L64.173 31.1068L64.9126 36.2083C66.3746 35.8991 68.0774 35.3323 68.0946 34.92C68.1462 34.233 66.5122 30.7633 66.4434 30.6431Z" fill="#2E353A"/>
<path id="Vector_145" opacity="0.1" d="M68.1118 34.9029C67.7678 35.1433 67.1314 35.5556 66.5638 35.0231C65.979 34.4734 66.4434 30.6431 66.4434 30.6431C66.5122 30.7633 68.1462 34.233 68.1118 34.9029Z" fill="white"/>
<path id="Vector_146" d="M65.3942 31.6049C65.3942 31.6049 65.033 23.6006 64.259 22.4326L64.4826 22.5357C64.4826 22.5357 65.5834 23.7896 65.893 31.6049H65.3942Z" fill="#2E353A"/>
</g>
<path id="Vector_147" d="M57.7232 63.0038C57.8952 62.8664 58.1016 62.7461 58.308 62.6774C58.308 62.6774 58.9444 62.0419 59.254 60.1353L60.0968 59.912C60.3892 59.8433 60.6988 59.9635 60.8536 60.204C60.8708 60.2384 60.888 60.2727 60.9052 60.3071C60.9568 60.5132 60.974 60.7193 60.9912 60.9254C61.0772 61.5781 61.0084 63.021 61.0084 63.021H60.8536L60.802 61.6984C60.7848 61.2518 60.4408 61.7671 60.3376 62.248C60.2344 62.729 60.028 63.2443 59.0476 63.2614C57.9124 63.3301 57.4308 63.2786 57.7232 63.0038Z" fill="#2E353A"/>
<path id="Vector_148" d="M60.8876 60.2383C60.9392 59.7917 60.9564 59.0188 60.9564 59.0188L59.0988 59.2249C59.0988 59.2249 59.3224 60.1009 59.1332 60.7708C60.0792 60.5132 60.8876 60.2383 60.8876 60.2383Z" fill="#2E353A"/>
<path id="Vector_149" d="M65.291 63.0038C65.463 62.8664 65.6694 62.7461 65.8758 62.6774C65.8758 62.6774 66.5122 62.0419 66.8218 60.1353L67.6645 59.912C67.9569 59.8433 68.2665 59.9635 68.4213 60.204C68.4385 60.2384 68.4558 60.2727 68.473 60.3071C68.5246 60.5132 68.5418 60.7193 68.559 60.9254C68.645 61.5781 68.5762 63.021 68.5762 63.021H68.4213L68.3525 61.6984C68.3353 61.2518 67.9914 61.7671 67.8882 62.248C67.785 62.729 67.5786 63.2443 66.5982 63.2614C65.4802 63.3301 64.9986 63.2786 65.291 63.0038Z" fill="#2E353A"/>
<path id="Vector_150" d="M68.456 60.2383C68.5076 59.7917 68.5248 59.0188 68.5248 59.0188L66.6672 59.2249C66.6672 59.2249 66.8908 60.1009 66.7016 60.7708C67.6476 60.5132 68.456 60.2383 68.456 60.2383Z" fill="#2E353A"/>
</g>
<g id="Group_37">
<g id="Group_38">
<g id="Group_39">
<path id="Vector_151" d="M72.7336 17.3023H71.2568V14.7693H72.7336C73.3638 14.7693 73.8761 15.3372 73.8761 16.0358C73.8761 16.7332 73.3638 17.3023 72.7336 17.3023ZM71.8755 16.6165H72.7336C73.0226 16.6165 73.2574 16.3563 73.2574 16.0358C73.2574 15.7153 73.0226 15.4551 72.7336 15.4551H71.8755V16.6165Z" fill="#006BD6"/>
</g>
<g id="Group_40">
<path id="Vector_152" d="M71.8755 16.9587H71.2568V18.8021H71.8755V16.9587Z" fill="#006BD6"/>
</g>
</g>
</g>
</g>
</svg>
