<svg width="42" height="52" viewBox="0 0 42 52" fill="none" xmlns="http://www.w3.org/2000/svg">
<path d="M22.6498 3.37635V44.109C22.6498 45.9703 21.224 47.4854 19.4723 47.4854H3.74778C1.99608 47.4854 0.570284 45.9703 0.570284 44.109V3.37635C0.549915 1.51503 1.97572 0 3.74778 0H19.452C21.224 0 22.6498 1.51503 22.6498 3.37635Z" fill="#9ECCEF"/>
<path d="M22.6498 3.37635V3.93908H0.549927V3.37635C0.549927 1.51503 1.97573 0 3.74779 0H19.452C21.224 0 22.6498 1.51503 22.6498 3.37635Z" fill="#3E89CC"/>
<path d="M22.6498 43.5463V44.109C22.6498 45.9703 21.224 47.4853 19.4723 47.4853H3.74781C1.99611 47.4853 0.570312 45.9703 0.570312 44.109V43.5463H22.6498Z" fill="#3E89CC"/>
<path d="M22.8327 18.6132H22.6494V9.65283H22.8327C23.0568 9.65283 23.2401 9.84762 23.2401 10.0857V18.1803C23.2401 18.4184 23.0568 18.6132 22.8327 18.6132Z" fill="#3E89CC"/>
<path d="M0.549951 13.8733H0.387003C0.162949 13.8733 0 13.6785 0 13.4621V9.91256C0 9.67449 0.183317 9.50134 0.387003 9.50134H0.549951V13.8733Z" fill="#3E89CC"/>
<path d="M0.550369 18.6132H0.407789C0.224472 18.6132 0.0615234 18.4617 0.0615234 18.2453V16.2758C0.0615234 16.081 0.204103 15.9078 0.407789 15.9078H0.550369V18.6132Z" fill="#3E89CC"/>
<path d="M7.8011 2.64047C8.14983 2.64047 8.43253 2.34008 8.43253 1.96953C8.43253 1.59897 8.14983 1.29858 7.8011 1.29858C7.45238 1.29858 7.16968 1.59897 7.16968 1.96953C7.16968 2.34008 7.45238 2.64047 7.8011 2.64047Z" fill="white"/>
<path d="M9.79758 1.96955C9.79758 2.14269 9.655 2.2942 9.49205 2.2942C9.3291 2.2942 9.18652 2.14269 9.18652 1.96955C9.18652 1.7964 9.3291 1.6449 9.49205 1.6449C9.655 1.6449 9.79758 1.7964 9.79758 1.96955Z" fill="white"/>
<path d="M16.1115 2.38079H10.8157C10.6731 2.38079 10.5509 2.25093 10.5509 2.09943V1.83971C10.5509 1.68821 10.6731 1.55835 10.8157 1.55835H16.1115C16.2541 1.55835 16.3763 1.68821 16.3763 1.83971V2.07779C16.3559 2.25094 16.2541 2.38079 16.1115 2.38079Z" fill="white"/>
<path d="M11.6098 46.7928C12.2848 46.7928 12.8319 46.2113 12.8319 45.4942C12.8319 44.777 12.2848 44.1956 11.6098 44.1956C10.9349 44.1956 10.3877 44.777 10.3877 45.4942C10.3877 46.2113 10.9349 46.7928 11.6098 46.7928Z" fill="white"/>
<path d="M21.978 3.93909H1.03906V43.5463H21.978V3.93909Z" fill="#F2F2F2"/>
<path d="M21.978 3.93909H1.03906V43.5463H21.978V3.93909Z" fill="#F2F2F2"/>
<path d="M8.33101 3.93909L1.03906 11.6874V3.93909H8.33101Z" fill="#F2F2F2"/>
<path d="M21.978 12.7262V11.9904L8.81986 4.35027L9.18649 3.96069H8.33101L1.03906 11.6873V12.5964L3.25924 10.2372L17.9246 16.8168L12.8325 28.2661L1.03906 18.4184V19.2409L6.51821 23.8076L3.2185 28.5475L1.03906 23.8076V25.301L6.37563 37.0533L1.03906 37.5511V38.2004L6.66079 37.6809L9.32907 43.5246H10.0012L7.31258 37.616L15.7452 36.8368L13.4435 43.5246H14.0953L16.4173 36.7936L21.978 36.2741V35.6248L16.397 36.1443L13.3824 29.1968L21.978 27.5735V26.9242L13.3824 28.5475L18.4949 17.0765L21.978 18.2885V17.596L18.4542 16.3623L13.0362 13.9166L15.236 8.80879L21.978 12.7262ZM15.7452 36.2092L7.04779 37.01L3.50366 29.2184L6.98669 24.2188L12.5677 28.8721L15.7452 36.2092ZM12.4658 13.6569L3.72771 9.73945L8.37175 4.82642L14.7064 8.50578L12.4658 13.6569Z" fill="#F2F2F2"/>
<path d="M6.51821 23.8076L3.19813 28.5475L1.03906 23.8076V19.2408L6.51821 23.8076Z" fill="#F2F2F2"/>
<path d="M6.396 37.075L1.03906 37.5511V25.301L6.396 37.075Z" fill="#F2F2F2"/>
<path d="M9.32907 43.5463H1.03906V38.2221L6.68116 37.7026L9.32907 43.5463Z" fill="#F2F2F2"/>
<path d="M15.7452 36.8585L13.4436 43.5463H10.0013L7.33301 37.6377L15.7452 36.8585Z" fill="#F2F2F2"/>
<path d="M21.9783 36.2742V43.5463H14.0957L16.4177 36.7936L21.9783 36.2742Z" fill="#F2F2F2"/>
<path d="M21.9784 27.5735V35.6248L16.3974 36.1442L13.3828 29.1967L21.9784 27.5735Z" fill="#F2F2F2"/>
<path d="M21.9784 18.267V26.9026L13.3828 28.5259L18.5157 17.0549L21.9784 18.267Z" fill="#F2F2F2"/>
<path d="M17.9246 16.8169L12.8325 28.2662L1.03906 18.4185V12.5964L3.25924 10.2373L17.9246 16.8169Z" fill="#F2F2F2"/>
<path d="M21.9779 12.7263V17.5744L18.4542 16.3407L13.0361 13.9167L15.2359 8.80884L21.9779 12.7263Z" fill="#F2F2F2"/>
<path d="M21.9784 3.93909V11.9904L8.82031 4.35031L9.18695 3.93909H21.9784Z" fill="#F2F2F2"/>
<path d="M21.978 12.7262V11.9904L8.81986 4.35027L9.18649 3.96069H8.33101L1.03906 11.6873V12.5964L3.25924 10.2372L17.9246 16.8168L12.8325 28.2661L1.03906 18.4184V19.2409L6.51821 23.8076L3.2185 28.5475L1.03906 23.8076V25.301L6.37563 37.0533L1.03906 37.5511V38.2004L6.66079 37.6809L9.32907 43.5246H10.0012L7.31258 37.616L15.7452 36.8368L13.4435 43.5246H14.0953L16.4173 36.7936L21.978 36.2741V35.6248L16.397 36.1443L13.3824 29.1968L21.978 27.5735V26.9242L13.3824 28.5475L18.4949 17.0765L21.978 18.2885V17.596L18.4542 16.3623L13.0362 13.9166L15.236 8.80879L21.978 12.7262ZM15.7452 36.2092L7.04779 37.01L3.50366 29.2184L6.98669 24.2188L12.5677 28.8721L15.7452 36.2092ZM12.4658 13.6569L3.72771 9.73945L8.37175 4.82642L14.7064 8.50578L12.4658 13.6569Z" fill="#9ECCEF"/>
<path d="M15.7454 36.2093L7.04804 37.0101L3.50391 29.2185L6.98693 24.1973L12.5679 28.8722L15.7454 36.2093Z" fill="#F2F2F2"/>
<path d="M14.686 8.48413L12.4658 13.6569L3.72766 9.73944L8.3717 4.82642L14.686 8.48413Z" fill="#F2F2F2"/>
<g opacity="0.5">
<path d="M1.65039 4.58838H6.84438L1.65039 10.1074V4.58838Z" fill="#E1ECF8"/>
<path d="M1.65039 23.6561V20.5828L5.663 23.9158L3.30025 27.3138L1.65039 23.6561Z" fill="#E1ECF8"/>
<path d="M1.65039 28.1362L5.45931 36.5122L1.65039 36.8585V28.1362Z" fill="#E1ECF8"/>
<path d="M1.65039 42.897V38.8064L6.31479 38.3735L8.35165 42.897H1.65039Z" fill="#E1ECF8"/>
<path d="M10.3885 42.897L8.24976 38.2004L14.8492 37.5944L13.016 42.897H10.3885Z" fill="#E1ECF8"/>
<path d="M14.9714 42.897L16.8657 37.3996L21.3672 36.9884V42.897H14.9714Z" fill="#E1ECF8"/>
<path d="M14.2588 29.673L21.3674 28.3528V35.0406L16.7641 35.4518L14.2588 29.673Z" fill="#E1ECF8"/>
<path d="M18.8206 17.8341L21.3667 18.7431V26.3616L14.4414 27.6602L18.8206 17.8341Z" fill="#E1ECF8"/>
<path d="M1.65039 18.0938V12.8778L3.40209 11.0165L17.1101 17.1415L12.6087 27.2489L1.65039 18.0938Z" fill="#E1ECF8"/>
<path d="M18.6789 15.7346L13.8516 13.5703L15.5218 9.71777L21.3676 13.1158V16.6869L18.6789 15.7346Z" fill="#E1ECF8"/>
<path d="M10.5311 4.58838H21.3672V10.8866L10.5311 4.58838Z" fill="#E1ECF8"/>
<path d="M4.2168 29.2833L7.10913 25.1278L12.0791 29.2833L14.8288 35.6464L7.41466 36.3174L4.2168 29.2833Z" fill="#E1ECF8"/>
<path d="M4.8075 9.52299L8.47384 5.6272L13.8919 8.76547L12.1606 12.8128L4.8075 9.52299Z" fill="#E1ECF8"/>
</g>
<path d="M18.169 13.4188C18.169 13.5054 17.782 13.5703 17.3339 13.5703C16.8654 13.5703 16.4988 13.5054 16.4988 13.4188C16.4988 13.3323 16.8858 13.2673 17.3339 13.2673C17.8024 13.2673 18.169 13.3323 18.169 13.4188Z" stroke="#9ECCEF" stroke-width="0.25" stroke-miterlimit="10"/>
<path d="M17.7209 13.4188C17.7209 13.4621 17.558 13.4837 17.3339 13.4837C17.1302 13.4837 16.9469 13.4621 16.9469 13.4188C16.9469 13.3755 17.1098 13.3539 17.3339 13.3539C17.5376 13.3539 17.7209 13.3755 17.7209 13.4188Z" stroke="#9ECCEF" stroke-width="0.1142" stroke-miterlimit="10"/>
<path d="M17.2728 11.3628C16.2136 11.3844 16.9469 12.9211 17.232 13.3756C17.2728 13.4405 17.3746 13.4405 17.4153 13.3756C17.7005 12.8778 18.3727 11.3411 17.2728 11.3628ZM17.3135 12.2934C17.1505 12.2934 17.008 12.1636 17.008 11.9904C17.008 11.8173 17.1302 11.6658 17.2931 11.6658C17.4561 11.6658 17.5986 11.7956 17.5986 11.9688C17.619 12.1419 17.4764 12.2934 17.3135 12.2934Z" fill="#334155"/>
<path d="M7.35367 30.4088C7.81489 30.4088 8.18878 30.341 8.18878 30.2573C8.18878 30.1737 7.81489 30.1058 7.35367 30.1058C6.89245 30.1058 6.51855 30.1737 6.51855 30.2573C6.51855 30.341 6.89245 30.4088 7.35367 30.4088Z" stroke="#9ECCEF" stroke-width="0.25" stroke-miterlimit="10"/>
<path d="M7.74068 30.2573C7.74068 30.3006 7.57773 30.3222 7.35368 30.3222C7.14999 30.3222 6.96667 30.3006 6.96667 30.2573C6.96667 30.214 7.12962 30.1924 7.35368 30.1924C7.55736 30.1924 7.74068 30.214 7.74068 30.2573Z" stroke="#9ECCEF" stroke-width="0.1142" stroke-miterlimit="10"/>
<path d="M7.29253 28.1796C6.23336 28.2012 6.96663 29.7379 7.25179 30.1924C7.29253 30.2573 7.39437 30.2573 7.43511 30.1924C7.72027 29.7162 8.39243 28.1796 7.29253 28.1796ZM7.35363 29.1319C7.19068 29.1319 7.0481 29.002 7.0481 28.8289C7.0481 28.6557 7.17032 28.5042 7.33326 28.5042C7.49621 28.5042 7.63879 28.6341 7.63879 28.8072C7.63879 28.9804 7.51658 29.1319 7.35363 29.1319Z" fill="#334155"/>
<path opacity="0.3" d="M14.9101 3.93909L1.03906 26.4914V13.9383L7.19037 3.93909H14.9101Z" fill="white"/>
<path opacity="0.3" d="M20.7355 3.93909L1.03906 35.9928V30.1707L17.171 3.93909H20.7355Z" fill="white"/>
<path opacity="0.3" d="M21.9776 17.0549V22.877L9.28799 43.5463H5.70312L21.9776 17.0549Z" fill="white"/>
<path d="M29.0885 23.4526C29.0885 23.4526 28.8848 23.6041 28.9459 24.4049C29.0274 25.2057 28.8848 26.6341 29.4144 26.6558C29.9439 26.6774 30.3309 25.7251 30.3309 25.7251L30.3717 24.9893L29.8828 23.3444C29.8828 23.3876 29.1699 23.3444 29.0885 23.4526Z" fill="#57C6F2"/>
<path d="M29.0885 23.4526C29.0885 23.4526 28.8848 23.6041 28.9459 24.4049C29.0274 25.2057 28.8848 26.6341 29.4144 26.6558C29.9439 26.6774 30.3309 25.7251 30.3309 25.7251L30.3717 24.9893L29.8828 23.3444C29.8828 23.3876 29.1699 23.3444 29.0885 23.4526Z" fill="#A6ACB2"/>
<path d="M30.4736 25.0108C29.557 25.5736 28.8645 26.0064 27.3368 26.4176C26.1962 26.7207 24.75 21.9591 24.75 21.9591C24.75 21.9591 25.4222 21.5046 25.5444 21.6778C26.2369 22.5651 26.9905 23.7339 27.3572 24.4481C27.3979 24.5347 27.4998 24.5563 27.5812 24.513C28.233 24.1884 29.5366 23.3659 30.0866 23.1928" fill="#F9C4D1"/>
<path d="M24.2401 20.9635C24.2401 20.9635 23.8327 20.7471 23.7716 20.7904C23.7105 20.812 23.6494 20.9852 24.3216 21.2665C24.403 21.2233 24.2401 20.9635 24.2401 20.9635Z" fill="#F9C4D1"/>
<path d="M24.4851 21.8292C24.4851 21.8292 24.6684 22.0673 24.9943 22.0023C25.1573 21.6561 25.4017 21.5911 25.4017 21.5911L24.8517 21.4829L24.587 21.5046L24.4851 21.8292Z" fill="#F9C4D1"/>
<path d="M23.9148 18.3879C22.2039 19.0589 24.2 21.0934 24.9333 21.6561C25.0351 21.7427 25.1981 21.6777 25.2184 21.5479C25.4221 20.6172 25.6462 17.6954 23.9148 18.3879ZM24.4852 19.903C24.2204 20.0112 23.9352 19.8597 23.8334 19.5783C23.7315 19.297 23.8741 18.994 24.1389 18.8857C24.4037 18.7775 24.6888 18.929 24.7907 19.2104C24.8722 19.4918 24.7499 19.7948 24.4852 19.903Z" fill="white"/>
<path d="M25.6866 21.9807C25.6866 21.9807 25.6459 21.4613 25.6255 21.05C25.6051 20.6388 24.8922 20.747 24.8107 20.7687C24.7293 20.7903 24.7089 21.0717 25.157 21.1366C25.1774 21.2881 25.0959 21.5695 25.2589 21.7859" fill="#F9C4D1"/>
<path d="M24.1185 21.18C24.1185 21.18 23.9963 21.2665 24.0981 21.4397C24.1592 21.5263 24.2407 21.5046 24.2407 21.5046C24.2407 21.5046 24.587 21.3964 24.5666 21.0934C24.5259 20.812 24.1185 21.18 24.1185 21.18Z" fill="#F9C4D1"/>
<path d="M24.2611 21.4181C24.2611 21.4181 24.1592 21.5479 24.2611 21.6994C24.3222 21.786 24.4037 21.7427 24.4037 21.7427C24.4037 21.7427 24.7092 21.5479 24.6685 21.2449C24.6073 20.9419 24.2611 21.4181 24.2611 21.4181Z" fill="#F9C4D1"/>
<path d="M24.4238 21.5696C24.4238 21.5696 24.3423 21.6778 24.4238 21.8076C24.4849 21.8726 24.546 21.8293 24.546 21.8293C24.546 21.8293 24.8108 21.6561 24.7701 21.4181C24.7293 21.1583 24.4238 21.5696 24.4238 21.5696Z" fill="#F9C4D1"/>
<path d="M30.7172 45.8317C30.7172 45.8317 30.758 47.7796 30.8802 48.905C30.8802 48.905 30.1469 49.6192 29.8007 49.814C29.8007 49.814 31.919 50.0305 31.7764 49.4028C31.6338 48.7752 31.6746 47.1735 31.8579 45.8533" fill="#F9C4D1"/>
<path d="M29.0671 50.0088C28.7412 50.0521 29.0467 50.5715 29.2097 50.6148C29.3726 50.6797 29.5356 50.6364 29.7189 50.6364C30.3503 50.5715 31.0021 50.5715 31.6539 50.6364C31.6946 50.6364 31.7354 50.6364 31.7761 50.6148C31.8983 50.5499 31.9391 50.42 31.9187 50.3551C31.8983 50.2902 31.878 50.2036 31.8983 50.1387" fill="#2661B5"/>
<path d="M31.9192 50.0954C31.8989 49.8573 32.0618 49.0348 31.7563 49.0781C31.5322 49.3378 31.186 49.3378 30.9619 49.0781C30.9212 49.0348 30.8601 48.6885 30.6564 48.8833C30.4323 49.0998 30.1879 49.208 29.8009 49.4461C29.6176 49.5543 28.9454 49.7491 28.925 49.9655C28.8843 50.2252 28.9658 50.3984 29.2102 50.4417C29.4546 50.5066 29.8213 50.4417 30.0657 50.3984C30.5749 50.3118 31.1248 50.3551 31.6341 50.3984C31.7155 50.3984 31.8174 50.42 31.8785 50.3551C31.9192 50.2902 31.9192 50.1819 31.9192 50.0954Z" fill="#3E89CC"/>
<path d="M30.7783 48.8617C30.8802 49.2729 31.6949 49.5759 31.8579 49.0781C31.8782 49.0349 31.8375 48.9916 31.7967 49.0349C31.6134 49.1647 31.4097 49.2297 31.1857 49.1214C31.0431 49.0565 30.9616 48.905 30.8191 48.8184C30.7987 48.7968 30.7783 48.8184 30.7783 48.8617Z" fill="#2661B5"/>
<path d="M29.9021 49.2946C29.9632 49.3812 30.0243 49.4461 30.0651 49.5327C30.1058 49.6192 30.1465 49.7058 30.2076 49.7708C30.228 49.7924 30.2687 49.7707 30.2891 49.7491C30.3298 49.5327 30.1262 49.3379 29.9632 49.2297C29.9225 49.1864 29.8614 49.2513 29.9021 49.2946Z" fill="#2661B5"/>
<path d="M30.1464 49.1864C30.2279 49.2297 30.289 49.3162 30.3298 49.3812C30.3705 49.4461 30.4112 49.5327 30.4723 49.5976C30.4927 49.6192 30.5334 49.6192 30.5538 49.576C30.5742 49.4677 30.5131 49.3595 30.452 49.2946C30.3705 49.208 30.289 49.1647 30.1872 49.1215C30.1261 49.0782 30.0853 49.1431 30.1464 49.1864Z" fill="#2661B5"/>
<path d="M30.33 49.0565C30.4115 49.1215 30.4726 49.2081 30.5337 49.2946C30.5948 49.3812 30.6152 49.4678 30.6966 49.5327C30.7374 49.5543 30.7781 49.5327 30.7781 49.4894C30.8188 49.2297 30.5744 49.0349 30.3911 48.9267C30.33 48.8834 30.2689 48.9916 30.33 49.0565Z" fill="#2661B5"/>
<path d="M33.4876 29.7723C34.3023 31.2224 33.1413 37.8453 32.184 40.8537C32.6729 42.8449 31.7155 47.4333 31.7155 47.4333C31.7155 47.4333 31.2471 47.5415 30.7175 47.4333C30.6971 47.3034 29.9842 40.7455 30.1064 39.4902C30.2694 37.8669 29.4139 32.586 30.6971 30.9411" fill="#1B227A"/>
<path d="M34.9534 46.3079C34.9534 46.3079 35.1978 48.2342 35.4219 49.338C35.4219 49.338 34.7701 50.1171 34.4238 50.3552C34.4238 50.3552 36.5625 50.3336 36.3588 49.7275C36.1552 49.1215 36.0329 47.5199 36.0737 46.178" fill="#F9C4D1"/>
<path d="M33.7312 50.55C33.4054 50.6365 33.772 51.1127 33.9349 51.156C34.0979 51.1993 34.2608 51.156 34.4441 51.1127C35.0756 50.9612 35.7274 50.8963 36.3588 50.8963C36.3995 50.8963 36.4403 50.8963 36.481 50.8746C36.6032 50.7881 36.6236 50.6582 36.5828 50.5933C36.5625 50.5283 36.5217 50.4634 36.5421 50.3768" fill="#2661B5"/>
<path d="M36.5625 50.3336C36.5218 50.0955 36.6033 49.273 36.2977 49.3596C36.0941 49.641 35.7478 49.6843 35.5034 49.4462C35.4626 49.4029 35.3608 49.0783 35.1775 49.2947C34.9738 49.5328 34.7294 49.6843 34.3831 49.944C34.2202 50.0738 33.5684 50.3336 33.5684 50.55C33.5684 50.8097 33.6498 50.9612 33.8943 51.0045C34.1387 51.0478 34.5053 50.9396 34.7294 50.853C35.2182 50.7015 35.7682 50.6799 36.2977 50.6799C36.3792 50.6799 36.4811 50.6799 36.5422 50.6149C36.5829 50.5284 36.5829 50.4201 36.5625 50.3336Z" fill="#3E89CC"/>
<path d="M35.3193 49.2297C35.4619 49.641 36.3174 49.8358 36.4192 49.3163C36.4192 49.273 36.3785 49.2514 36.3581 49.273C36.1952 49.4245 36.0526 49.5111 35.8286 49.4678C35.6452 49.4245 35.5434 49.273 35.3804 49.2081C35.3397 49.1648 35.3193 49.1865 35.3193 49.2297Z" fill="#2661B5"/>
<path d="M34.4849 49.7492C34.546 49.8141 34.6071 49.879 34.6682 49.9656C34.709 50.0305 34.7497 50.1171 34.8312 50.182C34.8516 50.2037 34.9127 50.182 34.9127 50.1604C34.9127 49.9439 34.709 49.7492 34.546 49.6842C34.4849 49.6626 34.4646 49.7275 34.4849 49.7492Z" fill="#2661B5"/>
<path d="M34.7087 49.6193C34.8716 49.6842 34.9531 49.879 35.0753 49.9873C35.0957 50.0089 35.1364 49.9873 35.1364 49.944C35.1364 49.8357 35.0753 49.7492 35.0142 49.6842C34.9327 49.5977 34.8513 49.576 34.7494 49.5327C34.6883 49.5111 34.668 49.5977 34.7087 49.6193Z" fill="#2661B5"/>
<path d="M34.9124 49.4678C34.9938 49.5327 35.0753 49.5977 35.1364 49.6842C35.1975 49.7708 35.2383 49.8357 35.3197 49.9007C35.3605 49.9439 35.4012 49.9007 35.4012 49.8574C35.4012 49.6193 35.1568 49.4245 34.9735 49.3379C34.8716 49.2946 34.8309 49.4245 34.9124 49.4678Z" fill="#2661B5"/>
<path d="M36.0739 30.0105C37.0312 31.374 36.909 35.2915 35.911 41.1784C36.6035 43.1047 36.0739 47.3468 36.0739 47.3468C36.0739 47.3468 35.6054 47.5849 35.0759 47.5416C35.0351 47.4117 33.7315 41.3299 33.7315 40.0746C33.7315 38.4514 32.3465 33.2786 33.4667 31.5039" fill="#1B227A"/>
<path d="M30.7988 32.651C31.0025 32.889 31.2062 33.1271 31.4506 33.2786C31.7765 33.4951 32.1635 33.5816 32.5302 33.6249C32.9172 33.6682 33.2838 33.6899 33.6708 33.7548C33.956 33.7981 34.2411 33.8846 34.5263 33.9063C34.8114 33.9279 35.0966 33.9063 35.3818 33.9063C35.6262 33.9063 35.891 33.9279 36.115 33.7981C36.1965 33.7548 36.278 33.6899 36.3187 33.6033C36.4002 33.4301 36.3187 33.2137 36.2372 33.0406C36.0336 32.6943 35.728 32.4345 35.4021 32.2398C35.0762 32.045 34.7096 31.9151 34.3633 31.8069" fill="#191960"/>
<path d="M32.5507 21.9375C31.4915 21.9591 31.2064 22.1323 30.7786 22.4137C30.2898 22.7383 29.6176 23.0846 29.1084 23.4742C30.0046 23.7555 29.8213 26.5908 29.4343 26.699C29.1084 26.764 31.0638 26.5042 31.0638 26.5042L31.0841 26.4826C31.2064 25.9199 31.3286 25.3571 31.4508 24.7944" fill="#FECB21"/>
<path d="M31.5935 17.479C31.3695 17.7171 31.288 18.085 31.3695 18.388C31.3695 18.4097 31.3898 18.453 31.3695 18.4746C31.3491 18.4962 31.3287 18.4962 31.3084 18.4962C31.2065 18.5179 31.125 18.6045 31.1047 18.7343C31.0843 18.8425 31.1047 18.9507 31.1454 19.059C31.2065 19.2105 31.3084 19.3836 31.4713 19.362C31.5528 19.362 31.6139 19.297 31.675 19.2538C32.1435 18.8425 32.449 18.2365 32.4897 17.5872" fill="black"/>
<path d="M34.2821 19.7083C34.1395 20.4441 34.2414 21.4181 34.4654 21.6129C34.6895 21.8293 34.9543 22.0025 35.158 22.2189C35.1783 22.2405 35.1987 22.2405 35.1987 22.2838C35.1987 22.3055 35.1987 22.3271 35.1987 22.3271C35.158 22.457 35.0765 22.5652 34.9746 22.6518C34.8728 22.7167 34.7506 22.76 34.6284 22.8033C34.3636 22.8898 34.1192 22.9548 33.8544 23.0413C33.5896 23.1279 33.3248 23.2145 33.0396 23.1928C32.7545 23.1712 32.4693 23.0413 32.3471 22.8033C32.2453 22.6085 32.2249 22.3704 32.2453 22.1323C32.2453 22.089 32.5712 21.8077 32.6526 21.7644C32.7137 21.7211 32.7748 21.6994 32.8156 21.6345C32.897 21.5263 32.9378 21.3532 32.9582 21.2233C32.9989 20.6822 33.0193 19.9896 32.7137 19.5568" fill="#F9C4D1"/>
<path d="M34.2009 19.7732C34.425 19.6 34.5472 19.3403 34.5879 19.0373C34.6287 18.7559 34.6083 18.4529 34.5676 18.1716C34.4861 17.7171 34.3435 17.2626 34.0176 16.9596C33.7732 16.7431 33.4677 16.6565 33.1418 16.6349C32.8159 16.6133 32.49 16.6565 32.2252 16.8297C32.1845 16.8513 32.1641 16.873 32.1437 16.8946C31.6956 17.2193 31.6345 17.8469 31.5938 18.388C31.553 18.9724 31.5734 19.5567 31.6752 20.1411C31.716 20.4008 31.7975 20.6822 32.0011 20.8121C32.2252 20.9852 32.5307 20.9203 32.7751 20.8121C33.2844 20.5956 33.7325 20.271 34.1602 19.9247" fill="#F9C4D1"/>
<path d="M31.0234 17.0461C31.0438 16.8946 31.1049 16.6998 31.2882 16.6349C31.2271 16.5483 31.1864 16.4401 31.1864 16.3319C31.1864 16.1588 31.2679 15.9856 31.3901 15.899C31.5123 15.7908 31.6752 15.7475 31.8382 15.7259C31.9604 15.7042 32.103 15.7259 32.2048 15.8125C32.2252 15.7692 32.2455 15.7042 32.2659 15.661C32.4289 15.4012 32.6733 15.2064 32.9788 15.1632C33.264 15.0982 33.5899 15.1848 33.8547 15.3579C33.9972 15.4662 34.1195 15.596 34.1398 15.7692C34.1398 15.7692 34.1398 15.7692 34.1398 15.7908C34.4046 15.7908 34.6694 15.8341 34.9138 15.964C35.3212 16.1804 35.6267 16.6349 35.6675 17.0894C35.6878 17.3491 35.6471 17.6088 35.5249 17.8253C35.7286 17.9119 35.7286 18.1283 35.6675 18.2798C35.586 18.4746 35.4434 18.6261 35.3008 18.7559C35.1583 18.8642 34.9749 18.9724 34.7916 18.9507C34.6083 18.9291 34.425 18.7343 34.4657 18.5395C34.3842 18.6694 34.1806 18.691 34.038 18.6044C33.8954 18.5179 33.8139 18.3447 33.7936 18.1716C33.7732 17.9984 33.7936 17.8469 33.8343 17.6738C33.7121 17.8036 33.4677 17.7171 33.3862 17.5439C33.3047 17.3708 33.3251 17.176 33.3658 17.0028C33.264 17.1327 33.101 17.1976 32.9584 17.176C32.7955 17.1543 32.6733 17.1111 32.6122 16.9596C32.5511 17.1976 32.4492 17.3708 32.2659 17.5439C32.0826 17.6954 31.7567 17.7171 31.6141 17.5006C31.5326 17.6521 31.3086 17.6521 31.166 17.5439C31.0438 17.4357 31.0031 17.2193 31.0234 17.0461Z" fill="black"/>
<path d="M35.0565 17.5872C35.2194 17.479 35.4435 17.5439 35.5861 17.6738C35.8509 17.9119 35.9731 18.3447 35.8101 18.6694C35.6472 18.994 35.2602 19.1455 34.9139 19.1239C34.975 19.2754 34.9139 19.4702 34.8121 19.6001C34.7102 19.7299 34.5473 19.7948 34.3843 19.8165C34.3232 19.8165 34.2417 19.8165 34.201 19.7732C34.1603 19.7299 34.1399 19.6866 34.1399 19.6217C34.0381 19.1455 34.1806 18.6261 34.4862 18.2798" fill="black"/>
<path d="M31.4099 34.2093C32.9579 34.4907 34.2818 34.3825 35.1373 34.2526C35.9928 34.1227 36.7464 33.9063 36.7464 33.9063L36.5224 29.5776C36.5224 29.5776 34.3633 24.9027 34.0985 23.5392C34.0578 23.3011 33.9967 23.1279 33.9559 23.1063C33.9559 23.1063 33.1208 23.4526 32.7135 22.9548C32.632 22.8466 32.5301 23.063 32.4283 23.4526C31.9802 25.0758 31.3488 29.859 31.3488 29.859C31.3488 29.859 30.5748 33.6682 30.5544 33.7548C30.5137 33.8414 30.8192 34.1011 31.4099 34.2093Z" fill="#3E89CC"/>
<path d="M34.3028 28.7984C34.3028 28.7984 33.3455 29.0581 32.5308 28.82C31.716 28.582 32.3678 30.1403 32.3678 30.1403C32.3678 30.1403 33.7529 30.2701 34.425 30.0104C34.4658 29.4477 34.3028 28.7984 34.3028 28.7984Z" fill="#72C1C1"/>
<path d="M32.7137 22.7384C33.1211 23.1712 33.9562 22.8682 33.9562 22.8682C33.997 22.9115 34.0581 23.0414 34.0988 23.2578C34.0173 23.3011 33.9359 23.3444 33.834 23.3877C33.5692 23.4742 33.1822 23.5175 32.7137 23.3227C32.6119 23.2795 32.5304 23.2362 32.4286 23.1712C32.5304 22.8249 32.6323 22.6518 32.7137 22.7384Z" fill="white"/>
<path d="M32.9378 22.4569C32.9378 22.4569 32.8563 25.8549 32.6934 27.1751C32.5304 28.4737 32.6322 34.2525 32.2249 34.2092C32.1841 34.2092 30.962 34.2092 30.6565 33.7114C30.5139 31.915 32.9174 23.0196 32.8359 22.3271C32.7545 22.2405 32.7137 22.2405 32.7137 22.2405L32.9378 22.4569Z" fill="#A6ACB2"/>
<path d="M33.6917 23.2578C33.6917 23.3227 33.7121 23.3876 33.7325 23.4525C33.7732 23.669 33.7732 23.8638 33.7732 24.0802C33.8139 24.578 33.7732 25.2706 33.7732 25.7467C33.7732 26.7423 33.6306 27.673 33.6306 28.6902C33.6306 29.1014 33.6306 29.5127 33.651 29.9239C33.7325 31.5904 33.7121 34.2309 33.7325 34.5772C34.1806 34.7071 34.5676 34.3175 34.9546 34.3175C35.3416 34.2958 36.7063 33.798 36.7266 33.6249C36.8896 32.0882 36.5026 30.6381 36.6044 29.1014C36.6655 28.0626 36.6044 27.002 36.5841 25.9632C36.5841 25.5087 36.5637 25.0325 36.5637 24.578C36.5637 24.4481 36.6044 24.0802 36.5433 23.972C36.5433 23.972 36.5433 23.9503 36.523 23.9287C36.4618 23.7988 36.2785 23.3876 36.0952 23.1928C35.8304 22.8898 35.5249 22.695 35.2194 22.4786C35.0564 22.3704 34.9138 22.2622 34.7509 22.1323C34.6694 22.0674 34.4861 21.8077 34.3639 21.786C34.3435 22.0024 34.262 22.1107 34.2213 22.2189C34.1602 22.3487 34.0991 22.2838 34.0176 22.392C33.9361 22.5002 33.8343 22.5868 33.7528 22.695C33.6714 22.8898 33.6714 23.0846 33.6917 23.2578Z" fill="#A6ACB2"/>
<path d="M29.6582 33.5168C30.1674 33.9496 31.3081 34.1228 31.858 34.1011C32.0413 34.1011 32.1635 31.8069 32.1635 31.6338C32.1635 30.3568 32.245 28.5604 32.408 27.2835C32.5098 26.5693 32.6116 25.855 32.6728 25.1192C32.6931 24.7079 32.7135 24.2967 32.7339 23.8855C32.7542 23.6691 32.7542 23.4526 32.7746 23.2578C32.7746 23.128 32.8764 22.825 32.7542 22.7384C32.6116 22.6518 32.5098 21.8077 32.5098 21.8077C31.7562 22.1757 30.9618 22.6735 30.5137 23.3011C30.2693 24.643 30.4118 25.4005 30.3915 26.7424C30.3711 27.2618 30.1471 29.9889 30.0045 31.3524C30.0045 31.3741 29.6582 33.3003 29.6582 33.5168Z" fill="#FECB21"/>
<path d="M33.813 23.1496C33.8334 23.2145 33.8334 23.2794 33.8537 23.3444C33.8945 23.5608 33.8945 23.7556 33.8945 23.972C33.9352 24.4698 33.9352 24.9676 33.9352 25.4654C33.9352 26.461 33.8741 27.4782 33.8741 28.4738C33.8741 28.8851 33.8741 29.2963 33.8945 29.7075C33.9759 31.374 33.9556 34.0145 33.9759 34.3608C34.424 34.4907 34.811 34.1011 35.198 34.1011C35.5851 34.0794 36.8072 33.7764 36.8275 33.6033C36.9905 32.0666 36.7461 30.4434 36.8275 28.8851C36.8886 27.8462 36.8275 26.7857 36.8072 25.7468C36.8072 25.4438 36.7868 25.1408 36.7868 24.8161C36.7868 24.578 36.8072 24.3183 36.8072 24.0802C36.7868 23.7772 36.9701 23.4742 36.8886 23.1929C36.7461 22.9764 36.5016 22.7817 36.1146 22.4786C35.8091 22.2406 34.7092 21.6129 34.6074 21.5913C34.4851 21.5696 34.424 21.851 34.3629 21.9376C34.2815 22.1107 34.2204 22.2839 34.0778 22.3921C33.8537 22.5436 33.8537 22.5436 33.7926 22.7167C33.7722 22.8249 33.7926 23.0197 33.813 23.1496Z" fill="#FECB21"/>
<g opacity="0.2">
<path d="M34.038 24.3183C34.038 24.3832 34.0787 24.4265 34.1398 24.4265C34.2009 24.4265 34.2416 24.3832 34.2416 24.3183C34.2416 24.2533 34.2009 24.2101 34.1398 24.2101C34.0787 24.1884 34.038 24.2533 34.038 24.3183Z" fill="black"/>
</g>
<path d="M34.0583 24.2966C34.0583 24.3615 34.0991 24.4048 34.1602 24.4048C34.2213 24.4048 34.262 24.3615 34.262 24.2966C34.262 24.2316 34.2213 24.1884 34.1602 24.1884C34.0991 24.1884 34.0583 24.2316 34.0583 24.2966Z" fill="#72C1C1"/>
<g opacity="0.2">
<path d="M33.8544 22.8681C33.8544 22.933 33.8951 22.9763 33.9562 22.9763C34.0173 22.9763 34.0581 22.933 34.0581 22.8681C34.0581 22.8032 34.0173 22.7599 33.9562 22.7599C33.9155 22.7599 33.8544 22.8032 33.8544 22.8681Z" fill="black"/>
</g>
<path d="M33.8944 22.8465C33.8944 22.9114 33.9351 22.9547 33.9963 22.9547C34.0574 22.9547 34.0981 22.9114 34.0981 22.8465C34.0981 22.7816 34.0574 22.7383 33.9963 22.7383C33.9351 22.7599 33.8944 22.8032 33.8944 22.8465Z" fill="#72C1C1"/>
<path d="M33.8953 22.5435C33.9564 22.5435 33.9971 22.5651 34.0378 22.5868C34.1397 22.6517 34.2415 22.8248 34.3026 22.9114C34.3637 22.998 34.4045 23.1062 34.4248 23.2144V23.2361H34.4452C34.5063 23.2144 34.5471 23.1711 34.6082 23.1278C34.6489 23.0846 34.6896 23.0196 34.7304 22.9547C34.8526 22.7816 34.9137 22.4785 34.9137 22.2621C34.9137 22.1539 34.873 22.0457 34.7915 21.9807C34.7304 21.9591 34.6693 21.9591 34.5878 21.9591" fill="#A6ACB2"/>
<path d="M33.8749 22.5435C33.936 22.5652 33.9767 22.5435 34.0378 22.5868C34.16 22.6517 34.3026 22.76 34.3841 22.8682C34.4248 22.9115 34.4248 22.998 34.4859 22.998C34.5674 22.9764 34.6285 22.8249 34.6489 22.76C34.6896 22.6734 34.8118 22.4786 34.8933 22.2838C34.9544 22.1756 35.0155 22.0457 34.9137 21.9375C34.8118 21.8077 34.7304 21.6778 34.6285 21.5479C34.5878 21.5047 34.547 21.3964 34.4859 21.3531C34.4656 21.3531 34.3434 21.3964 34.3434 21.3748C34.4248 21.7211 34.2211 22.0241 34.0378 22.2405C33.9971 22.3487 33.8952 22.4353 33.8749 22.5435Z" fill="#FECB21"/>
<g opacity="0.3">
<path d="M34.3633 21.3748C34.404 21.3098 34.5059 21.3531 34.5263 21.3531C34.5874 21.3748 34.6281 21.483 34.6688 21.5479C34.7707 21.6778 34.8521 21.8076 34.954 21.9375C35.0355 22.0457 34.9744 22.1756 34.9336 22.2838C34.8521 22.4569 34.7299 22.6734 34.6892 22.7599C34.6688 22.8249 34.6077 22.9764 34.5263 22.998C34.5874 22.7383 34.7707 22.5002 34.791 22.2189C34.8114 22.0241 34.7299 21.8293 34.5874 21.6778C34.5466 21.6345 34.4855 21.5912 34.4448 21.6345C34.4244 21.6561 34.404 21.6778 34.404 21.7211C34.3633 21.8293 34.3226 21.9375 34.2411 22.0457C34.3429 21.8293 34.404 21.5912 34.3633 21.3748Z" fill="#57C6F2"/>
</g>
<path d="M32.8974 22.2838C32.9585 22.3487 33.0196 22.392 33.0603 22.4569C33.101 22.5002 33.1214 22.5219 33.1418 22.5868C32.9381 22.6084 32.7548 22.7816 32.6529 22.9764C32.6122 23.0413 32.5918 23.1279 32.5511 23.1928C32.5511 23.1928 32.5511 23.2144 32.5307 23.2144C32.49 23.1495 32.4493 23.1062 32.4085 23.0413C32.3881 22.998 32.3678 22.9331 32.3678 22.8898C32.3474 22.8249 32.3474 22.7599 32.3474 22.695C32.3474 22.6301 32.3678 22.5868 32.3881 22.5219C32.4289 22.4136 32.4085 22.1756 32.4289 22.0673C32.4493 21.9808 32.49 22.0241 32.5511 21.9375C32.5715 21.8942 32.6326 21.8726 32.6733 21.8726" fill="#A6ACB2"/>
<path d="M33.1414 22.5868C33.1006 22.5651 33.0395 22.5868 32.9784 22.6084C32.8155 22.6734 32.6933 22.7816 32.6118 22.9114C32.5914 22.9331 32.571 23.0196 32.5303 22.998C32.4896 22.9764 32.4692 22.8249 32.4488 22.7599C32.4285 22.6734 32.4896 22.3271 32.4488 22.1323C32.4285 22.0024 32.4081 21.8726 32.4692 21.786C32.5507 21.6778 32.6118 21.6561 32.6933 21.5479C32.734 21.5046 32.7544 21.3964 32.8155 21.3748C32.8358 21.3748 32.8969 21.3748 32.9173 21.3964C32.8155 21.721 32.9173 22.0673 32.9988 22.3054C33.0599 22.4136 33.1414 22.4786 33.1414 22.5868Z" fill="#FECB21"/>
<g opacity="0.3">
<path d="M32.9375 21.418C32.9171 21.3964 32.8967 21.3964 32.8967 21.3964C32.8764 21.3964 32.856 21.3964 32.8356 21.3964C32.8153 21.3964 32.8153 21.418 32.7949 21.4396C32.7745 21.4829 32.7542 21.5262 32.7338 21.5479C32.6727 21.6561 32.5301 21.6994 32.469 21.8292C32.4486 21.8942 32.4283 21.9591 32.4486 22.024C32.4486 22.0889 32.469 22.1539 32.469 22.2188C32.4894 22.4352 32.4283 22.6517 32.469 22.8681C32.469 22.9114 32.4894 22.9763 32.5301 22.998C32.5505 22.8032 32.5301 22.5867 32.5505 22.392C32.5708 22.1972 32.5912 21.9807 32.693 21.8076C32.7134 21.7643 32.7542 21.6994 32.7949 21.6561C32.8153 21.6344 32.8356 21.6344 32.856 21.6344C32.8764 21.6344 32.8764 21.6777 32.8967 21.6994C32.8967 21.8292 32.9171 21.9374 32.9578 22.0457C32.9171 21.9374 32.9171 21.8076 32.9171 21.6994C32.9171 21.6344 32.9171 21.5695 32.9375 21.5262C32.9171 21.4829 32.9171 21.4613 32.9375 21.418Z" fill="#57C6F2"/>
</g>
<path d="M36.8485 27.6514C36.7059 27.673 36.7874 28.6902 36.8281 28.8201C36.8281 29.1664 36.8077 29.2963 36.8077 29.2963C36.8077 29.2963 36.3392 27.7812 36.2985 27.7812C36.1763 27.7812 36.0133 27.7812 35.7893 27.6947C35.8097 26.6558 35.5856 26.093 35.7893 25.1624C35.9115 25.3355 36.0133 24.946 36.0948 25.1407C36.217 25.4005 36.38 25.6385 36.5226 25.8983C36.6651 26.158 36.8688 27.0886 36.8485 27.3916" fill="#A6ACB2"/>
<path d="M37.4593 24.3832C37.4593 24.3832 38.2944 28.8201 38.3148 29.6209C38.3148 29.9671 38.3555 34.2958 38.3555 34.2958H37.5204C37.5204 34.2958 36.9704 30.9195 36.9093 29.7507C36.7056 28.9066 35.7891 25.3788 35.7891 25.3788" fill="#F9C4D1"/>
<path d="M36.7462 26.1796C36.9907 26.0498 37.2555 25.9848 37.5406 25.9416C37.6017 25.9416 37.6628 25.9199 37.7239 25.9199C37.785 26.3095 37.8461 26.7207 37.9276 27.1536C37.7239 27.3484 37.4999 27.5215 37.2351 27.6297C36.9703 27.738 36.7055 27.7812 36.4203 27.7812C36.3185 27.4133 36.2574 27.0887 36.1963 26.7424C36.3185 26.5043 36.5222 26.3095 36.7462 26.1796Z" fill="#F4B5C7"/>
<path d="M39.0684 35.8542C39.0888 35.7676 39.0888 35.6594 39.0888 35.5728C39.0888 35.4646 39.0888 35.2914 39.0073 35.2265C38.9258 35.1832 38.3555 35.2265 38.2536 35.2049C38.2944 35.075 37.9481 34.9452 38.05 34.8802C38.0907 34.8586 38.0907 34.7504 38.1314 34.7504C38.2129 34.7504 39.2924 34.7071 39.435 34.9235C39.4961 35.0101 39.5165 35.378 39.5165 35.4646C39.5165 35.5944 39.4961 35.7027 39.4758 35.8325" fill="#514847"/>
<path d="M37.5204 33.6899C37.3778 33.8414 37.2148 33.9929 37.1537 34.1877C37.0723 34.4257 37.0519 34.6855 37.0926 34.9452C37.113 35.075 37.1537 35.1832 37.2148 35.2915C37.2963 35.378 37.5815 35.378 37.7037 35.3564C37.7241 35.3564 37.5611 35.2049 37.5815 35.2049C37.6019 35.3131 37.7037 35.443 37.7648 35.5079C37.8463 35.5945 38.05 35.5728 38.0907 35.443C38.1518 35.5945 38.3351 35.5079 38.3759 35.3997C38.4573 35.4646 38.6406 35.4646 38.6406 35.2265C38.8443 35.4646 38.9054 35.2265 38.9258 35.1616C39.0684 34.5989 38.8443 33.7981 38.3759 33.5816C38.274 33.5384 37.8463 33.4734 37.7444 33.5167" fill="#F9C4D1"/>
<path d="M36.9911 35.7459C36.9911 35.6593 37.0115 35.5511 37.0318 35.4645C37.0522 35.3563 37.0929 35.2697 37.1744 35.2481C37.2559 35.2265 37.4596 35.2265 37.5614 35.2265C37.6633 35.2265 37.7651 35.2265 37.8466 35.2265C37.8262 35.0966 37.8058 34.9884 37.704 34.8802C37.6633 34.8369 37.6022 34.7936 37.5614 34.7936C37.4799 34.7719 36.93 34.7287 36.7263 34.9018C36.6448 34.9667 36.6245 35.1615 36.6041 35.2697C36.5837 35.3996 36.5634 35.5727 36.5634 35.681" fill="#514847"/>
<path d="M34.9543 41.9142C35.0968 41.9359 35.2598 41.9359 35.4024 41.9359C36.5837 41.8926 37.7855 41.8926 38.9669 41.8709C39.5983 41.8493 40.2297 41.8277 40.8611 41.7844C41.3092 41.7627 41.961 41.6762 41.9407 41.0701C41.9203 39.62 41.9814 38.1483 41.9203 36.6982C41.8999 36.3952 41.8185 36.0922 41.5944 35.8974C41.3704 35.7026 41.0648 35.681 40.7797 35.681C39.9446 35.6593 39.1298 35.7026 38.2947 35.7459C37.4596 35.7892 36.6448 35.6377 35.7894 35.681C35.2598 35.7026 34.1802 35.8541 34.2006 36.7198C34.221 37.6505 33.9358 41.2 34.5265 41.7194C34.6487 41.8493 34.7913 41.8926 34.9543 41.9142Z" fill="#3F3F3F"/>
<path opacity="0.3" d="M35.5243 35.7242C35.341 35.8757 35.2392 36.0922 35.2392 36.3735C35.2595 37.3042 34.9744 40.8537 35.565 41.3731C35.6873 41.4814 35.8298 41.5246 35.9724 41.5679C36.115 41.5896 36.2779 41.5896 36.4205 41.5896C37.6019 41.5463 38.8037 41.5463 39.985 41.5246C40.6165 41.503 41.2479 41.4814 41.8793 41.4381C41.696 41.7411 41.2275 41.7844 40.8812 41.806C40.2498 41.8493 39.6184 41.8709 38.987 41.8926C37.8056 41.9142 36.6038 41.9142 35.4225 41.9575C35.2799 41.9575 35.1169 41.9575 34.9744 41.9359C34.8318 41.9142 34.6688 41.8493 34.567 41.7411C33.9967 41.2216 34.2615 37.6721 34.2411 36.7415C34.2207 36.0273 34.954 35.7892 35.5243 35.7242Z" fill="#828282"/>
<path opacity="0.3" d="M41.3912 35.984C40.7394 35.984 40.0876 36.0706 39.4154 36.0706C38.8043 36.0706 38.1933 36.0489 37.5822 36.0706C36.9915 36.0706 36.4009 36.0922 35.8102 36.0922C35.6065 36.0922 35.3824 36.0489 35.2806 36.2654C35.2602 36.3303 35.3417 36.3736 35.3621 36.3303C35.5046 36.0489 36.5027 36.2004 36.7471 36.2004C37.2767 36.2004 37.7859 36.1788 38.3155 36.1788C39.3339 36.1788 40.3524 36.2004 41.3708 36.0273C41.4115 36.0057 41.4115 35.984 41.3912 35.984Z" fill="#828282"/>
<path d="M36.889 23.1929C37.5815 24.1235 37.8056 25.4438 38.2129 26.5692C38.2129 26.5692 37.6426 27.1319 37.3371 27.2402C36.9093 27.3917 36.4612 27.4566 36.0335 27.3917C35.9724 26.3528 35.8502 26.2013 35.7891 25.1408" fill="#FECB21"/>
<path d="M33.0193 20.7038C33.2841 20.5523 33.5896 20.3575 33.8136 20.1627C33.61 20.509 33.3248 20.7904 32.9989 21.0068" fill="#F4B5C7"/>
<path d="M36.8897 23.1929C37.5822 24.1235 37.8063 25.4438 38.2136 26.5692C38.2136 26.5692 37.6433 27.1319 37.3378 27.2402C36.91 27.3917 36.4619 27.4566 36.0342 27.3917C35.9731 26.3528 35.8509 26.2013 35.7898 25.1408L35.1787 23.2362H35.8101L36.3601 23.4309" fill="#FECB21"/>
</svg>
