<svg width="267" height="315" viewBox="0 0 267 315" fill="none" xmlns="http://www.w3.org/2000/svg">
<g clip-path="url(#clip0_414_19217)">
<path d="M0.159115 224.626C-0.161453 224.145 0.320279 223.824 0.320279 223.824C0.320279 223.824 1.12253 223.985 1.9248 224.146C1.4431 224.467 1.28198 225.269 1.28198 225.269C0.479715 225.108 0.159115 224.626 0.159115 224.626Z" fill="white" fill-opacity="0.1"/>
<path d="M88.2554 234.809C89.8582 237.217 88.732 240.747 86.003 241.868C83.5945 243.471 80.0648 242.345 78.9437 239.616C77.3408 237.207 78.4671 233.678 80.8755 232.075C83.4435 231.756 86.6525 232.4 88.2554 234.809Z" fill="white" fill-opacity="0.1"/>
<path d="M77.0445 207.518C79.2918 206.718 81.6986 207.201 82.9809 209.128C84.2631 211.055 83.2981 213.782 81.3713 215.064C79.4445 216.347 76.7171 215.381 75.4348 213.455C74.1526 211.528 75.1177 208.801 77.0445 207.518Z" fill="white" fill-opacity="0.1"/>
<path d="M76.4173 187.779C74.9722 188.741 73.0471 187.937 72.0854 186.492C71.1237 185.047 71.9277 183.122 73.3727 182.16C74.8178 181.198 76.7429 182.002 77.7046 183.447C78.6663 184.893 78.1829 187.299 76.4173 187.779Z" fill="white" fill-opacity="0.1"/>
<path d="M115.058 230.177C116.982 233.067 115.855 236.596 112.965 238.52C110.075 240.443 106.225 238.835 104.622 236.427C103.18 233.216 103.825 230.007 107.036 228.565C109.605 226.16 113.135 227.286 115.058 230.177Z" fill="white" fill-opacity="0.1"/>
<path d="M69.5397 157.603C70.0214 157.282 71.6259 157.604 71.9465 158.086C72.267 158.568 72.1059 159.37 71.7837 160.975C70.6608 160.332 69.8586 160.171 69.538 159.689C68.4152 159.046 69.058 157.923 69.5397 157.603Z" fill="white" fill-opacity="0.1"/>
<path d="M47.0463 190.644C46.4051 189.68 47.048 188.557 48.0114 187.916C48.9747 187.275 50.0976 187.918 50.7387 188.881C51.3799 189.845 50.737 190.967 49.7736 191.609C48.4897 191.768 47.6874 191.607 47.0463 190.644Z" fill="white" fill-opacity="0.1"/>
<path d="M66.7251 265.122C68.328 267.53 67.2017 271.06 64.4727 272.181C62.0642 273.784 58.5346 272.658 57.4134 269.929C55.8106 267.52 56.9368 263.99 59.6658 262.869C61.9132 262.069 65.1223 262.713 66.7251 265.122Z" fill="white" fill-opacity="0.1"/>
<path d="M39.4408 270.075C40.7231 272.002 40.0786 275.211 37.8312 276.011C35.9044 277.293 33.1771 276.328 31.8948 274.402C30.6125 272.475 31.5776 269.747 33.5044 268.465C35.4312 267.183 38.1585 268.148 39.4408 270.075Z" fill="white" fill-opacity="0.1"/>
<path d="M25.0365 221.278C24.3954 220.314 25.0382 219.191 26.0016 218.55C26.965 217.909 28.0878 218.552 28.729 219.515C29.3701 220.479 28.7273 221.602 27.7639 222.243C26.9616 222.082 25.6776 222.241 25.0365 221.278Z" fill="white" fill-opacity="0.1"/>
<path d="M22.3313 193.191C22.813 192.871 23.1335 193.352 23.6152 193.032C23.4541 193.834 22.9724 194.155 22.9724 194.155C22.9724 194.155 22.1702 193.993 21.8496 193.512C21.6885 194.314 21.8496 193.512 22.3313 193.191Z" fill="white" fill-opacity="0.1"/>
<path d="M61.4506 239.44C62.7329 241.367 61.7678 244.094 59.841 245.376C57.9142 246.659 55.1868 245.694 53.9046 243.767C52.6223 241.84 53.2668 238.631 55.5142 237.83C57.441 236.548 60.1683 237.513 61.4506 239.44Z" fill="white" fill-opacity="0.1"/>
<path d="M43.6992 163.68C43.8603 162.878 44.342 162.557 44.342 162.557C44.8237 162.237 45.1443 162.719 45.4648 163.2L45.3037 164.003C44.5014 163.841 44.5015 163.841 43.6992 163.68Z" fill="white" fill-opacity="0.1"/>
<path d="M102.724 202.243C105.132 200.64 108.18 202.087 109.462 204.014C111.065 206.422 109.939 209.952 107.21 211.073C104.802 212.676 101.272 211.55 100.151 208.821C99.3501 206.573 100.315 203.846 102.724 202.243Z" fill="white" fill-opacity="0.1"/>
<path d="M125.07 153.315C123.143 154.597 121.218 153.793 119.936 151.866C118.653 149.939 119.457 148.014 121.384 146.732C122.829 145.77 125.236 146.254 126.518 148.181C126.998 149.946 126.515 152.353 125.07 153.315Z" fill="white" fill-opacity="0.1"/>
<path d="M131.313 174.183C132.915 176.591 131.469 179.639 129.542 180.921C127.133 182.524 124.085 181.077 122.803 179.151C121.2 176.742 122.165 174.015 124.574 172.412C126.982 170.809 130.191 171.454 131.313 174.183Z" fill="white" fill-opacity="0.1"/>
<path d="M116.588 124.902C115.947 123.939 116.59 122.816 117.553 122.175C118.517 121.534 119.64 122.177 120.281 123.14C120.922 124.104 120.279 125.226 119.316 125.868C118.834 126.188 117.229 125.866 116.588 124.902Z" fill="white" fill-opacity="0.1"/>
<path d="M158.116 169.551C159.719 171.959 158.593 175.489 156.184 177.092C153.776 178.694 150.246 177.568 148.643 175.16C147.04 172.751 148.167 169.222 150.575 167.619C153.465 165.695 156.193 166.66 158.116 169.551Z" fill="white" fill-opacity="0.1"/>
<path d="M113.56 98.4224L113.721 97.6201C114.203 97.2996 114.203 97.2996 115.005 97.4607C115.005 97.4607 115.326 97.9424 115.808 97.6218C115.326 97.9424 115.646 98.4241 115.165 98.7446C114.363 98.5835 114.042 98.1018 113.56 98.4224Z" fill="white" fill-opacity="0.1"/>
<path d="M163.391 195.232C164.833 198.442 163.707 201.972 160.817 203.895C157.926 205.819 154.076 204.211 152.153 201.321C150.229 198.431 151.517 194.099 154.727 192.657C157.618 190.734 161.468 192.341 163.391 195.232Z" fill="white" fill-opacity="0.1"/>
<path d="M104.509 178.815C105.792 180.742 104.827 183.469 102.579 184.27C100.652 185.552 97.925 184.587 96.9633 183.142C95.681 181.215 96.6461 178.487 98.5729 177.205C100.981 175.602 103.709 176.567 104.509 178.815Z" fill="white" fill-opacity="0.1"/>
<path d="M65.8703 132.244L66.6726 132.405C66.9932 132.887 66.5115 133.208 66.832 133.689C66.0298 133.528 65.7092 133.047 65.7092 133.047C65.3886 132.565 65.8703 132.244 65.8703 132.244Z" fill="white" fill-opacity="0.1"/>
<path d="M94.0954 155.858C93.1337 154.413 93.9376 152.488 95.2216 152.328C96.6667 151.366 98.11 152.491 98.7512 153.454C99.7129 154.899 98.5884 156.343 97.625 156.984C96.6616 157.625 95.0571 157.303 94.0954 155.858Z" fill="white" fill-opacity="0.1"/>
<path d="M91.2294 128.574C90.9088 128.093 91.3905 127.772 91.2311 126.488C92.3539 127.131 93.1562 127.292 93.1562 127.292C93.4768 127.774 93.3156 128.576 92.8339 128.897C92.1911 130.019 91.8705 129.538 91.2294 128.574Z" fill="white" fill-opacity="0.1"/>
<path d="M136.587 199.863C138.51 202.753 137.384 206.283 134.173 207.725C131.283 209.648 127.754 208.522 126.312 205.311C124.709 202.903 125.515 198.891 128.726 197.45C131.134 195.847 135.145 196.652 136.587 199.863Z" fill="white" fill-opacity="0.1"/>
<path d="M44.7144 295.755C46.3172 298.164 45.191 301.694 42.4619 302.815C40.0535 304.418 37.0055 302.971 35.4027 300.562C33.7998 298.154 34.7649 295.426 37.1734 293.824C39.9025 292.702 43.1115 293.347 44.7144 295.755Z" fill="white" fill-opacity="0.1"/>
<path d="M197.303 329.741C194.9 325.085 196.51 319.149 201.166 316.745C205.821 314.342 211.437 315.47 214.161 320.607C216.565 325.263 214.955 331.2 210.62 334.085C206.125 335.686 200.189 334.076 197.303 329.741Z" fill="white" fill-opacity="0.1"/>
<path d="M244.834 294.634C242.11 289.497 244.04 284.042 248.376 281.157C253.031 278.753 259.45 280.043 261.853 284.698C264.256 289.354 262.967 295.772 258.312 298.176C253.976 301.061 248.04 299.451 244.834 294.634Z" fill="white" fill-opacity="0.1"/>
<path d="M253.168 307.158C257.824 304.754 263.44 305.882 266.004 309.736L248.663 321.276C245.939 316.139 248.03 309.882 253.168 307.158Z" fill="white" fill-opacity="0.1"/>
<path d="M17.4297 300.709C18.712 302.635 17.7469 305.363 15.4996 306.163C13.5728 307.446 10.8454 306.481 10.0448 304.233C8.76256 302.306 9.72766 299.579 11.975 298.778C14.2224 297.978 16.1475 298.782 17.4297 300.709Z" fill="white" fill-opacity="0.1"/>
<path d="M11.3489 279.039C9.90385 280.001 7.97875 279.197 7.01705 277.752C6.05534 276.306 6.85929 274.381 8.30438 273.42C9.74947 272.458 11.6746 273.262 12.6363 274.707C13.1163 276.473 13.1146 278.559 11.3489 279.039Z" fill="white" fill-opacity="0.1"/>
<path d="M3.18689 251.108C2.54576 250.145 3.18858 249.022 4.15198 248.381C5.11537 247.74 6.23823 248.383 6.87936 249.346C7.5205 250.31 6.87766 251.432 5.91427 252.074C4.95087 252.715 3.82803 252.072 3.18689 251.108Z" fill="white" fill-opacity="0.1"/>
<path d="M152.84 143.869C154.122 145.796 153.157 148.523 151.23 149.805C149.303 151.088 146.576 150.123 145.294 148.196C144.011 146.269 144.977 143.542 146.903 142.259C149.312 140.657 152.039 141.622 152.84 143.869Z" fill="white" fill-opacity="0.1"/>
<path d="M146.279 122.52C144.834 123.482 142.909 122.678 141.947 121.233C140.985 119.788 141.789 117.863 143.234 116.901C144.68 115.939 146.605 116.743 147.566 118.188C148.046 119.954 147.724 121.559 146.279 122.52Z" fill="white" fill-opacity="0.1"/>
<path d="M193.627 113.251C192.345 111.324 193.31 108.597 194.755 107.635C196.682 106.353 199.41 107.318 200.692 109.245C201.974 111.171 201.009 113.899 199.564 114.86C197.317 115.661 194.91 115.178 193.627 113.251Z" fill="white" fill-opacity="0.1"/>
<path d="M164.92 89.9584C164.279 88.995 164.922 87.8722 165.885 87.2311C166.849 86.5899 167.972 87.2328 168.613 88.1961C169.254 89.1595 168.611 90.2824 167.648 90.9235C166.684 91.5647 165.08 91.2424 164.92 89.9584Z" fill="white" fill-opacity="0.1"/>
<path d="M205.967 134.926C207.57 137.334 206.443 140.864 203.714 141.985C201.306 143.588 197.776 142.462 196.173 140.053C194.571 137.645 195.697 134.115 198.426 132.994C201.316 131.071 204.846 132.197 205.967 134.926Z" fill="white" fill-opacity="0.1"/>
<path d="M237.725 155.493C239.648 158.383 238.361 162.715 235.471 164.638C232.581 166.562 228.249 165.274 226.325 162.384C224.402 159.494 225.689 155.162 228.579 153.239C231.47 151.315 235.802 152.603 237.725 155.493Z" fill="white" fill-opacity="0.1"/>
<path d="M190.279 86.2875C189.638 85.3241 189.96 83.7196 191.405 82.7579C192.369 82.1167 194.455 82.1184 194.935 83.8841C195.576 84.8475 195.254 86.452 193.809 87.4137C192.845 88.0548 191.241 87.7326 190.279 86.2875Z" fill="white" fill-opacity="0.1"/>
<path d="M265.095 46.2278C264.454 45.2644 264.615 44.4621 265.579 43.821C266.542 43.1798 267.344 43.341 267.986 44.3043C268.627 45.2677 267.984 46.3906 267.502 46.7112C266.859 47.834 265.736 47.1911 265.095 46.2278Z" fill="white" fill-opacity="0.1"/>
<path d="M232.77 130.293C234.373 132.702 233.247 136.232 230.839 137.834C228.43 139.437 224.419 138.632 222.977 135.421C221.856 132.692 222.5 129.483 225.391 127.559C227.638 126.759 230.847 127.403 232.77 130.293Z" fill="white" fill-opacity="0.1"/>
<path d="M139.4 94.4306C139.562 93.6283 139.723 92.826 140.204 92.5055C140.686 92.1849 141.97 92.0255 141.809 92.8277C142.129 93.3094 141.968 94.1117 141.487 94.4322C141.005 94.7528 140.203 94.5917 139.4 94.4306Z" fill="white" fill-opacity="0.1"/>
<path d="M184.92 164.918C186.522 167.327 185.717 171.338 182.506 172.78C179.616 174.703 176.086 173.577 174.163 170.687C172.239 167.796 173.366 164.267 176.576 162.825C179.467 160.902 182.996 162.028 184.92 164.918Z" fill="white" fill-opacity="0.1"/>
<path d="M210.921 160.125C212.844 163.016 211.236 166.866 208.346 168.789C205.456 170.713 201.926 169.586 200.003 166.696C198.079 163.806 199.367 159.474 202.096 158.353C205.468 156.109 209.8 157.396 210.921 160.125Z" fill="white" fill-opacity="0.1"/>
<path d="M172.921 118.691C171.476 119.652 169.069 119.169 167.787 117.242C166.505 115.315 167.309 113.39 169.236 112.108C171.162 110.826 173.088 111.63 174.37 113.556C175.332 115.001 174.366 117.729 172.921 118.691Z" fill="white" fill-opacity="0.1"/>
<path d="M179.645 139.237C181.248 141.645 180.282 144.372 177.874 145.975C175.465 147.578 172.738 146.613 171.135 144.204C169.532 141.796 170.498 139.069 172.906 137.466C175.314 135.863 178.042 136.828 179.645 139.237Z" fill="white" fill-opacity="0.1"/>
<path d="M188.215 59.1654C187.894 58.6837 188.376 58.3632 188.376 58.3632C188.376 58.3632 189.178 58.5243 189.98 58.6854C189.499 59.006 189.338 59.8083 189.338 59.8083C188.535 59.6471 187.733 59.486 188.215 59.1654Z" fill="white" fill-opacity="0.1"/>
<path d="M227.173 104.13C228.456 106.057 227.811 109.266 225.564 110.066C223.637 111.349 220.428 110.704 219.307 107.975C218.024 106.048 218.989 103.321 221.398 101.718C223.164 101.238 225.891 102.203 227.173 104.13Z" fill="white" fill-opacity="0.1"/>
<path d="M267.962 73.5123C266.68 71.5855 267.484 69.6604 269.41 68.3781C271.337 67.0958 273.583 68.3815 274.545 69.8266C275.506 71.2717 274.541 73.9991 273.096 74.9608C271.169 76.243 268.924 74.9574 267.962 73.5123Z" fill="white" fill-opacity="0.1"/>
<path d="M239.575 50.7003C239.254 50.2186 239.577 48.6141 240.058 48.2935C240.54 47.973 241.824 47.8135 241.983 49.0975C242.304 49.5792 241.661 50.702 241.5 51.5043C240.698 51.3432 239.896 51.182 239.575 50.7003Z" fill="white" fill-opacity="0.1"/>
<path d="M258.772 125.5C260.696 128.39 259.569 131.92 256.679 133.843C253.789 135.767 249.939 134.159 248.818 131.43C247.215 129.021 248.02 125.01 251.231 123.568C253.319 121.484 256.849 122.61 258.772 125.5Z" fill="white" fill-opacity="0.1"/>
<path d="M220.612 82.7808C219.167 83.7425 217.242 82.9386 216.601 81.9752C215.639 80.5301 216.443 78.605 217.888 77.6433C219.333 76.6816 221.258 77.4855 222.22 78.9306C223.182 80.3757 221.575 82.1397 220.612 82.7808Z" fill="white" fill-opacity="0.1"/>
<path d="M246.773 79.2717C245.328 80.2334 242.921 79.75 242.441 77.9844C241.479 76.5393 241.963 74.1325 243.408 73.1708C244.853 72.2091 247.26 72.6924 248.221 74.1375C249.183 75.5826 248.7 77.9894 246.773 79.2717Z" fill="white" fill-opacity="0.1"/>
<path d="M253.497 99.8189C255.1 102.227 254.135 104.955 251.726 106.558C249.318 108.16 246.591 107.195 244.988 104.787C243.385 102.378 244.832 99.3304 246.759 98.0482C249.167 96.4453 251.894 97.4104 253.497 99.8189Z" fill="white" fill-opacity="0.1"/>
<path d="M213.735 54.6918C213.414 54.2101 213.576 53.4078 214.057 53.0873C214.539 52.7667 214.86 53.2484 215.662 53.4095C215.501 54.2118 215.34 55.014 214.858 55.3346C214.858 55.3346 214.056 55.1735 213.735 54.6918Z" fill="white" fill-opacity="0.1"/>
<path d="M189.392 190.438C191.636 193.81 190.349 198.142 187.138 199.583C184.248 201.507 179.916 200.219 177.672 196.847C176.23 193.637 177.036 189.625 180.247 188.184C183.939 186.421 187.951 187.227 189.392 190.438Z" fill="white" fill-opacity="0.1"/>
<path d="M221.47 211.486C223.553 215.661 222.266 219.992 218.573 221.755C214.881 223.517 210.067 222.55 207.823 219.178C206.061 215.486 207.028 210.672 210.881 208.108C214.574 206.346 219.226 208.115 221.47 211.486Z" fill="white" fill-opacity="0.1"/>
<path d="M216.195 185.806C218.439 189.178 217.152 193.51 213.78 195.754C210.408 197.998 206.076 196.71 204.314 193.018C202.552 189.325 203.357 185.314 207.05 183.552C209.94 181.628 214.272 182.916 216.195 185.806Z" fill="white" fill-opacity="0.1"/>
<path d="M194.988 216.6C196.75 220.293 195.463 224.625 192.091 226.869C188.398 228.631 184.067 227.344 181.823 223.972C180.06 220.279 181.348 215.947 184.72 213.703C188.573 211.139 192.905 212.426 194.988 216.6Z" fill="white" fill-opacity="0.1"/>
<path d="M173.458 246.914C175.22 250.606 174.254 255.42 170.561 257.182C167.189 259.426 162.055 257.977 160.293 254.285C158.049 250.913 159.497 245.779 163.19 244.017C166.562 241.773 171.375 242.74 173.458 246.914Z" fill="white" fill-opacity="0.1"/>
<path d="M168.667 220.913C170.429 224.605 169.623 228.616 165.931 230.379C162.559 232.623 158.227 231.335 156.465 227.643C154.702 223.95 155.508 219.939 159.2 218.177C162.572 215.933 166.423 217.541 168.667 220.913Z" fill="white" fill-opacity="0.1"/>
<path d="M269.321 176.862C271.084 180.555 270.117 185.368 266.425 187.13C263.053 189.374 258.239 188.408 256.156 184.233C253.912 180.862 254.879 176.048 258.733 173.483C262.425 171.721 267.077 173.49 269.321 176.862Z" fill="white" fill-opacity="0.1"/>
<path d="M141.863 225.544C143.786 228.434 142.499 232.766 139.288 234.208C136.077 235.65 132.066 234.844 130.624 231.633C129.183 228.423 129.988 224.411 133.199 222.97C136.089 221.046 140.1 221.852 141.863 225.544Z" fill="white" fill-opacity="0.1"/>
<path d="M264.047 151.181C265.489 154.392 264.683 158.403 261.311 160.647C258.101 162.089 254.089 161.283 251.845 157.911C250.083 154.219 251.209 150.689 254.581 148.445C257.792 147.004 262.124 148.291 264.047 151.181Z" fill="white" fill-opacity="0.1"/>
<path d="M242.518 181.494C244.762 184.866 243.474 189.197 240.102 191.441C236.731 193.685 231.596 192.237 229.834 188.544C228.072 184.852 229.359 180.52 232.731 178.276C235.942 176.834 240.274 178.122 242.518 181.494Z" fill="white" fill-opacity="0.1"/>
<path d="M76.3123 317.124C78.2357 320.014 76.9483 324.346 73.7375 325.788C70.8474 327.711 66.5155 326.424 64.5921 323.534C62.6687 320.643 63.956 316.311 67.1667 314.87C70.5386 312.626 74.8705 313.913 76.3123 317.124Z" fill="white" fill-opacity="0.1"/>
<path d="M29.8331 243.106C31.2782 242.144 33.685 242.627 34.165 244.393C35.1267 245.838 34.6433 248.245 33.1982 249.207C31.7531 250.168 29.3463 249.685 28.064 247.758C27.1023 246.313 27.9063 244.388 29.8331 243.106Z" fill="white" fill-opacity="0.1"/>
<path d="M71.5192 291.124C73.4426 294.014 72.3164 297.544 69.4262 299.467C66.536 301.39 63.0064 300.264 61.083 297.374C59.1596 294.484 60.2858 290.954 63.1759 289.031C66.0661 287.107 69.5958 288.234 71.5192 291.124Z" fill="white" fill-opacity="0.1"/>
<path d="M103.115 312.492C105.359 315.864 104.072 320.196 100.7 322.44C97.0077 324.202 92.9963 323.396 91.234 319.704C88.99 316.332 90.2774 312 93.6493 309.756C96.5395 307.833 100.871 309.12 103.115 312.492Z" fill="white" fill-opacity="0.1"/>
<path d="M120.013 255.375C121.936 258.265 120.649 262.597 117.759 264.521C114.869 266.444 110.537 265.157 108.613 262.267C106.69 259.376 107.977 255.044 110.868 253.121C114.078 251.679 118.09 252.485 120.013 255.375Z" fill="white" fill-opacity="0.1"/>
<path d="M124.806 281.377C127.05 284.749 125.762 289.081 122.391 291.325C119.019 293.569 114.687 292.281 112.443 288.91C110.199 285.538 111.968 280.885 114.858 278.962C118.23 276.718 122.562 278.005 124.806 281.377Z" fill="white" fill-opacity="0.1"/>
<path d="M54.728 218.895C53.2829 219.856 51.3578 219.052 50.396 217.607C49.4343 216.162 49.9177 213.755 51.3628 212.794C52.8079 211.832 55.2147 212.315 56.497 214.242C56.977 216.008 56.173 217.933 54.728 218.895Z" fill="white" fill-opacity="0.1"/>
<path d="M98.3226 286.491C100.246 289.382 98.9587 293.713 95.5868 295.957C92.376 297.399 88.3647 296.594 86.923 293.383C84.9996 290.493 86.287 286.161 89.1771 284.237C92.0673 282.314 96.0786 283.119 98.3226 286.491Z" fill="white" fill-opacity="0.1"/>
<path d="M93.5299 260.49C95.4533 263.38 94.3271 266.91 91.4369 268.833C88.5467 270.757 85.0171 269.631 83.0937 266.74C81.1703 263.85 82.2965 260.321 85.1867 258.397C88.0769 256.474 91.6065 257.6 93.5299 260.49Z" fill="white" fill-opacity="0.1"/>
<path d="M146.334 251.064C148.578 254.436 146.809 259.088 143.919 261.012C140.227 262.774 135.895 261.487 134.132 257.794C132.37 254.102 133.176 250.09 136.868 248.328C140.561 246.566 144.893 247.853 146.334 251.064Z" fill="white" fill-opacity="0.1"/>
<path d="M118.85 304.803C122.543 303.04 127.356 304.007 129.439 308.181C131.522 312.355 130.234 316.687 126.06 318.77C122.368 320.532 117.554 319.566 115.471 315.391C113.709 311.699 115.478 307.047 118.85 304.803Z" fill="white" fill-opacity="0.1"/>
<path d="M209.529 293.803C211.933 298.459 210.484 303.593 205.828 305.996C201.172 308.4 196.038 306.951 193.153 302.616C190.75 297.96 192.68 292.505 196.534 289.941C201.51 288.019 206.644 289.468 209.529 293.803Z" fill="white" fill-opacity="0.1"/>
<path d="M144.852 300.009C148.705 297.445 153.839 298.893 156.404 302.747C158.968 306.6 157.52 311.734 153.666 314.299C149.813 316.864 144.679 315.415 142.596 311.241C139.229 307.226 140.677 302.092 144.852 300.009Z" fill="white" fill-opacity="0.1"/>
<path d="M166.861 269.375C171.035 267.292 175.367 268.579 177.932 272.433C180.015 276.607 179.048 281.421 174.874 283.504C170.699 285.586 165.565 284.138 163.803 280.445C161.239 276.592 162.687 271.458 166.861 269.375Z" fill="white" fill-opacity="0.1"/>
<path d="M140.86 274.169C144.552 272.407 149.366 273.374 151.448 277.548C153.211 281.24 152.244 286.054 148.07 288.137C143.896 290.22 139.564 288.932 137.801 285.24C135.719 281.066 137.167 275.932 140.86 274.169Z" fill="white" fill-opacity="0.1"/>
<path d="M182.726 298.434C184.809 302.609 183.681 308.224 179.506 310.307C175.332 312.39 170.198 310.942 167.634 307.088C165.069 303.235 166.679 297.298 170.853 295.215C175.027 293.132 180.643 294.26 182.726 298.434Z" fill="white" fill-opacity="0.1"/>
<path d="M274.698 276.845C279.835 274.121 285.772 275.731 288.977 280.548C291.701 285.685 290.092 291.622 284.954 294.346C279.817 297.07 273.88 295.46 271.156 290.323C268.753 285.667 270.042 279.249 274.698 276.845Z" fill="white" fill-opacity="0.1"/>
<path d="M222.856 285.629C227.191 282.744 233.448 284.836 236.333 289.171C238.736 293.827 237.127 299.763 232.471 302.166C227.815 304.57 222.199 303.442 219.475 298.304C216.911 294.451 218.039 288.835 222.856 285.629Z" fill="white" fill-opacity="0.1"/>
<path d="M226.847 311.469C231.984 308.745 237.921 310.355 240.645 315.492C243.369 320.63 241.759 326.566 236.621 329.29C231.484 332.014 225.547 330.405 222.823 325.267C220.42 320.611 222.511 314.354 226.847 311.469Z" fill="white" fill-opacity="0.1"/>
<path d="M270.706 251.004C275.361 248.601 281.298 250.211 283.701 254.866C286.105 259.522 284.495 265.459 279.839 267.862C275.183 270.265 269.247 268.656 266.844 264C264.44 259.344 266.37 253.889 270.706 251.004Z" fill="white" fill-opacity="0.1"/>
<path d="M192.864 264.583C197.038 262.5 202.654 263.628 204.736 267.802C206.819 271.976 205.691 277.592 201.517 279.675C197.343 281.758 191.727 280.63 189.644 276.456C187.08 272.602 188.528 267.468 192.864 264.583Z" fill="white" fill-opacity="0.1"/>
<path d="M240.713 229.957C244.887 227.874 250.503 229.002 252.586 233.176C255.151 237.03 253.541 242.966 249.367 245.049C245.193 247.132 240.059 245.683 237.494 241.83C235.411 237.656 236.86 232.521 240.713 229.957Z" fill="white" fill-opacity="0.1"/>
<path d="M257.38 259.178C259.783 263.834 258.655 269.45 254 271.853C249.344 274.256 243.728 273.129 241.324 268.473C238.921 263.817 240.531 257.88 244.705 255.798C249.361 253.394 254.977 254.522 257.38 259.178Z" fill="white" fill-opacity="0.1"/>
<path d="M214.713 234.751C218.888 232.668 223.701 233.635 225.784 237.809C228.349 241.663 226.9 246.797 223.046 249.362C218.872 251.444 214.059 250.478 211.174 246.142C209.091 241.968 210.539 236.834 214.713 234.751Z" fill="white" fill-opacity="0.1"/>
<path d="M231.057 263.489C233.14 267.663 232.012 273.279 227.677 276.164C223.341 279.049 217.887 277.119 215.002 272.784C212.598 268.128 214.047 262.994 218.702 260.591C223.038 257.705 228.654 258.833 231.057 263.489Z" fill="white" fill-opacity="0.1"/>
<path d="M236.723 204.117C240.576 201.553 245.71 203.001 247.793 207.175C249.876 211.349 248.909 216.163 244.735 218.246C240.561 220.329 236.229 219.041 233.665 215.188C231.421 211.816 232.869 206.682 236.723 204.117Z" fill="white" fill-opacity="0.1"/>
<path d="M188.872 238.742C193.046 236.659 197.378 237.946 199.942 241.8C202.025 245.974 201.059 250.788 196.884 252.871C192.71 254.953 188.378 253.666 185.814 249.812C183.57 246.441 185.018 241.306 188.872 238.742Z" fill="white" fill-opacity="0.1"/>
<path d="M278.909 228.864C281.473 232.718 280.025 237.852 275.69 240.737C271.034 243.14 265.9 241.692 263.335 237.838C261.252 233.664 262.38 228.048 266.554 225.966C270.569 222.599 276.505 224.208 278.909 228.864Z" fill="white" fill-opacity="0.1"/>
<path d="M262.725 199.324C266.899 197.241 271.712 198.208 273.795 202.382C275.878 206.556 274.911 211.37 270.737 213.453C266.563 215.535 261.429 214.087 259.346 209.913C257.423 207.023 258.871 201.888 262.725 199.324Z" fill="white" fill-opacity="0.1"/>
</g>
<defs>
<clipPath id="clip0_414_19217">
<rect width="267" height="315" fill="white"/>
</clipPath>
</defs>
</svg>
