<svg width="267" height="315" viewBox="0 0 267 315" fill="none" xmlns="http://www.w3.org/2000/svg">
<g clip-path="url(#clip0_414_18808)">
<path d="M57.1591 227.626C56.8385 227.145 57.3203 226.824 57.3203 226.824C57.3203 226.824 58.1225 226.985 58.9248 227.146C58.4431 227.467 58.282 228.269 58.282 228.269C57.4797 228.108 57.1591 227.626 57.1591 227.626Z" fill="#0D4286" fill-opacity="0.3"/>
<path d="M145.255 237.809C146.858 240.217 145.732 243.747 143.003 244.868C140.594 246.471 137.065 245.345 135.944 242.616C134.341 240.207 135.467 236.678 137.876 235.075C140.443 234.756 143.653 235.4 145.255 237.809Z" fill="#0D4286" fill-opacity="0.3"/>
<path d="M134.044 210.518C136.292 209.718 138.699 210.201 139.981 212.128C141.263 214.055 140.298 216.782 138.371 218.064C136.445 219.347 133.717 218.381 132.435 216.455C131.153 214.528 132.118 211.801 134.044 210.518Z" fill="#0D4286" fill-opacity="0.3"/>
<path d="M133.417 190.779C131.972 191.741 130.047 190.937 129.085 189.492C128.124 188.047 128.928 186.122 130.373 185.16C131.818 184.198 133.743 185.002 134.705 186.447C135.666 187.893 135.183 190.299 133.417 190.779Z" fill="#0D4286" fill-opacity="0.3"/>
<path d="M172.058 233.177C173.982 236.067 172.855 239.596 169.965 241.52C167.075 243.443 163.225 241.835 161.622 239.427C160.18 236.216 160.825 233.007 164.036 231.565C166.605 229.16 170.135 230.286 172.058 233.177Z" fill="#0D4286" fill-opacity="0.3"/>
<path d="M126.54 160.603C127.021 160.282 128.626 160.604 128.946 161.086C129.267 161.568 129.106 162.37 128.784 163.975C127.661 163.332 126.859 163.171 126.538 162.689C125.415 162.046 126.058 160.923 126.54 160.603Z" fill="#0D4286" fill-opacity="0.3"/>
<path d="M104.046 193.644C103.405 192.68 104.048 191.557 105.011 190.916C105.975 190.275 107.098 190.918 107.739 191.881C108.38 192.845 107.737 193.967 106.774 194.609C105.49 194.768 104.687 194.607 104.046 193.644Z" fill="#0D4286" fill-opacity="0.3"/>
<path d="M123.725 268.122C125.328 270.53 124.202 274.06 121.473 275.181C119.064 276.784 115.535 275.658 114.413 272.929C112.811 270.52 113.937 266.99 116.666 265.869C118.913 265.069 122.122 265.713 123.725 268.122Z" fill="#0D4286" fill-opacity="0.3"/>
<path d="M96.4408 273.075C97.7231 275.002 97.0786 278.211 94.8312 279.011C92.9044 280.293 90.1771 279.328 88.8948 277.402C87.6125 275.475 88.5776 272.747 90.5044 271.465C92.4312 270.183 95.1585 271.148 96.4408 273.075Z" fill="#0D4286" fill-opacity="0.3"/>
<path d="M82.0365 224.278C81.3954 223.314 82.0382 222.191 83.0016 221.55C83.965 220.909 85.0878 221.552 85.729 222.515C86.3701 223.479 85.7273 224.602 84.7639 225.243C83.9616 225.082 82.6776 225.241 82.0365 224.278Z" fill="#0D4286" fill-opacity="0.3"/>
<path d="M79.3313 196.191C79.813 195.871 80.1335 196.352 80.6152 196.032C80.4541 196.834 79.9724 197.155 79.9724 197.155C79.9724 197.155 79.1702 196.993 78.8496 196.512C78.6885 197.314 78.8496 196.512 79.3313 196.191Z" fill="#0D4286" fill-opacity="0.3"/>
<path d="M118.451 242.44C119.733 244.367 118.768 247.094 116.841 248.376C114.914 249.659 112.187 248.694 110.905 246.767C109.622 244.84 110.267 241.631 112.514 240.83C114.441 239.548 117.168 240.513 118.451 242.44Z" fill="#0D4286" fill-opacity="0.3"/>
<path d="M100.699 166.68C100.86 165.878 101.342 165.557 101.342 165.557C101.824 165.237 102.144 165.719 102.465 166.2L102.304 167.003C101.501 166.841 101.501 166.841 100.699 166.68Z" fill="#0D4286" fill-opacity="0.3"/>
<path d="M159.724 205.243C162.132 203.64 165.18 205.087 166.462 207.014C168.065 209.422 166.939 212.952 164.21 214.073C161.802 215.676 158.272 214.55 157.151 211.821C156.35 209.573 157.315 206.846 159.724 205.243Z" fill="#0D4286" fill-opacity="0.3"/>
<path d="M182.07 156.315C180.143 157.597 178.218 156.793 176.936 154.866C175.653 152.939 176.457 151.014 178.384 149.732C179.829 148.77 182.236 149.254 183.518 151.181C183.998 152.946 183.515 155.353 182.07 156.315Z" fill="#0D4286" fill-opacity="0.3"/>
<path d="M188.313 177.183C189.915 179.591 188.469 182.639 186.542 183.921C184.133 185.524 181.085 184.077 179.803 182.151C178.2 179.742 179.165 177.015 181.574 175.412C183.982 173.809 187.191 174.454 188.313 177.183Z" fill="#0D4286" fill-opacity="0.3"/>
<path d="M173.588 127.902C172.947 126.939 173.59 125.816 174.553 125.175C175.517 124.534 176.64 125.177 177.281 126.14C177.922 127.104 177.279 128.226 176.316 128.868C175.834 129.188 174.229 128.866 173.588 127.902Z" fill="#0D4286" fill-opacity="0.3"/>
<path d="M215.116 172.551C216.719 174.959 215.593 178.489 213.184 180.092C210.776 181.694 207.246 180.568 205.643 178.16C204.04 175.751 205.167 172.222 207.575 170.619C210.465 168.695 213.193 169.66 215.116 172.551Z" fill="#0D4286" fill-opacity="0.3"/>
<path d="M170.56 101.422L170.721 100.62C171.203 100.3 171.203 100.3 172.005 100.461C172.005 100.461 172.326 100.942 172.808 100.622C172.326 100.942 172.646 101.424 172.165 101.745C171.363 101.584 171.042 101.102 170.56 101.422Z" fill="#0D4286" fill-opacity="0.3"/>
<path d="M220.391 198.232C221.833 201.442 220.707 204.972 217.817 206.895C214.926 208.819 211.076 207.211 209.153 204.321C207.229 201.431 208.517 197.099 211.727 195.657C214.618 193.734 218.468 195.341 220.391 198.232Z" fill="#0D4286" fill-opacity="0.3"/>
<path d="M161.509 181.815C162.792 183.742 161.827 186.469 159.579 187.27C157.652 188.552 154.925 187.587 153.963 186.142C152.681 184.215 153.646 181.487 155.573 180.205C157.981 178.602 160.709 179.567 161.509 181.815Z" fill="#0D4286" fill-opacity="0.3"/>
<path d="M122.87 135.244L123.673 135.405C123.993 135.887 123.511 136.208 123.832 136.689C123.03 136.528 122.709 136.047 122.709 136.047C122.389 135.565 122.87 135.244 122.87 135.244Z" fill="#0D4286" fill-opacity="0.3"/>
<path d="M151.095 158.858C150.134 157.413 150.938 155.488 152.222 155.328C153.667 154.366 155.11 155.491 155.751 156.454C156.713 157.899 155.588 159.343 154.625 159.984C153.662 160.625 152.057 160.303 151.095 158.858Z" fill="#0D4286" fill-opacity="0.3"/>
<path d="M148.229 131.574C147.909 131.093 148.391 130.772 148.231 129.488C149.354 130.131 150.156 130.292 150.156 130.292C150.477 130.774 150.316 131.576 149.834 131.897C149.191 133.019 148.871 132.538 148.229 131.574Z" fill="#0D4286" fill-opacity="0.3"/>
<path d="M193.587 202.863C195.51 205.753 194.384 209.283 191.173 210.725C188.283 212.648 184.754 211.522 183.312 208.311C181.709 205.903 182.515 201.891 185.726 200.45C188.134 198.847 192.145 199.652 193.587 202.863Z" fill="#0D4286" fill-opacity="0.3"/>
<path d="M101.714 298.755C103.317 301.164 102.191 304.694 99.4619 305.815C97.0535 307.418 94.0055 305.971 92.4027 303.562C90.7998 301.154 91.7649 298.426 94.1734 296.824C96.9025 295.702 100.112 296.347 101.714 298.755Z" fill="#0D4286" fill-opacity="0.3"/>
<path d="M254.303 332.741C251.9 328.085 253.51 322.149 258.166 319.745C262.821 317.342 268.437 318.47 271.161 323.607C273.565 328.263 271.955 334.2 267.62 337.085C263.125 338.686 257.189 337.076 254.303 332.741Z" fill="#0D4286" fill-opacity="0.3"/>
<path d="M74.4297 303.709C75.712 305.635 74.7469 308.363 72.4996 309.163C70.5728 310.446 67.8454 309.481 67.0448 307.233C65.7626 305.306 66.7277 302.579 68.975 301.778C71.2224 300.978 73.1475 301.782 74.4297 303.709Z" fill="#0D4286" fill-opacity="0.3"/>
<path d="M68.3489 282.039C66.9039 283.001 64.9788 282.197 64.017 280.752C63.0553 279.306 63.8593 277.381 65.3044 276.42C66.7495 275.458 68.6746 276.262 69.6363 277.707C70.1163 279.473 70.1146 281.559 68.3489 282.039Z" fill="#0D4286" fill-opacity="0.3"/>
<path d="M35.1491 258.261L35.3102 257.458C35.7919 257.138 35.7919 257.138 36.5942 257.299C36.5942 257.299 36.9148 257.781 37.3965 257.46C36.9148 257.781 37.2354 258.262 36.7537 258.583C35.9514 258.422 35.4697 258.742 35.1491 258.261Z" fill="#0D4286" fill-opacity="0.3"/>
<path d="M60.1869 254.108C59.5458 253.145 60.1886 252.022 61.152 251.381C62.1154 250.74 63.2382 251.383 63.8794 252.346C64.5205 253.31 63.8777 254.432 62.9143 255.074C61.9509 255.715 60.828 255.072 60.1869 254.108Z" fill="#0D4286" fill-opacity="0.3"/>
<path d="M209.84 146.869C211.122 148.796 210.157 151.523 208.23 152.805C206.303 154.088 203.576 153.123 202.294 151.196C201.011 149.269 201.977 146.542 203.903 145.259C206.312 143.657 209.039 144.622 209.84 146.869Z" fill="#0D4286" fill-opacity="0.3"/>
<path d="M42.8092 311.545C42.1681 310.582 42.6515 308.175 43.9354 308.016C44.8988 307.374 46.5033 307.697 47.465 309.142C48.1062 310.105 47.7839 311.71 46.8206 312.351C45.0549 312.831 43.4504 312.509 42.8092 311.545Z" fill="#0D4286" fill-opacity="0.3"/>
<path d="M40.9038 285.708C40.4221 286.028 39.2992 285.385 38.9787 284.904C38.6581 284.422 39.3009 283.299 39.462 282.497C40.5848 283.14 41.3872 283.301 41.7077 283.782C42.0283 284.264 41.3855 285.387 40.9038 285.708Z" fill="#0D4286" fill-opacity="0.3"/>
<path d="M203.279 125.52C201.834 126.482 199.909 125.678 198.947 124.233C197.985 122.788 198.789 120.863 200.234 119.901C201.68 118.939 203.605 119.743 204.566 121.188C205.046 122.954 204.724 124.559 203.279 125.52Z" fill="#0D4286" fill-opacity="0.3"/>
<path d="M250.627 116.251C249.345 114.324 250.31 111.597 251.755 110.635C253.682 109.353 256.41 110.318 257.692 112.245C258.974 114.171 258.009 116.899 256.564 117.86C254.317 118.661 251.91 118.178 250.627 116.251Z" fill="#0D4286" fill-opacity="0.3"/>
<path d="M221.92 92.9584C221.279 91.995 221.922 90.8722 222.885 90.2311C223.849 89.5899 224.972 90.2328 225.613 91.1961C226.254 92.1595 225.611 93.2824 224.648 93.9235C223.684 94.5647 222.08 94.2424 221.92 92.9584Z" fill="#0D4286" fill-opacity="0.3"/>
<path d="M262.967 137.926C264.57 140.334 263.443 143.864 260.714 144.985C258.306 146.588 254.776 145.462 253.173 143.053C251.571 140.645 252.697 137.115 255.426 135.994C258.316 134.071 261.846 135.197 262.967 137.926Z" fill="#0D4286" fill-opacity="0.3"/>
<path d="M247.279 89.2875C246.638 88.3241 246.96 86.7196 248.405 85.7579C249.369 85.1167 251.455 85.1184 251.935 86.8841C252.576 87.8475 252.254 89.452 250.809 90.4137C249.845 91.0548 248.241 90.7326 247.279 89.2875Z" fill="#0D4286" fill-opacity="0.3"/>
<path d="M196.4 97.4306C196.562 96.6283 196.723 95.826 197.204 95.5055C197.686 95.1849 198.97 95.0255 198.809 95.8277C199.129 96.3094 198.968 97.1117 198.487 97.4322C198.005 97.7528 197.203 97.5917 196.4 97.4306Z" fill="#0D4286" fill-opacity="0.3"/>
<path d="M241.92 167.918C243.522 170.327 242.717 174.338 239.506 175.78C236.616 177.703 233.086 176.577 231.163 173.687C229.239 170.796 230.366 167.267 233.576 165.825C236.467 163.902 239.996 165.028 241.92 167.918Z" fill="#0D4286" fill-opacity="0.3"/>
<path d="M267.921 163.125C269.844 166.016 268.236 169.866 265.346 171.789C262.456 173.713 258.926 172.586 257.003 169.696C255.079 166.806 256.367 162.474 259.096 161.353C262.468 159.109 266.8 160.396 267.921 163.125Z" fill="#0D4286" fill-opacity="0.3"/>
<path d="M229.921 121.691C228.476 122.652 226.069 122.169 224.787 120.242C223.505 118.315 224.309 116.39 226.236 115.108C228.162 113.826 230.088 114.63 231.37 116.556C232.332 118.001 231.366 120.729 229.921 121.691Z" fill="#0D4286" fill-opacity="0.3"/>
<path d="M236.645 142.237C238.248 144.645 237.282 147.372 234.874 148.975C232.465 150.578 229.738 149.613 228.135 147.204C226.532 144.796 227.498 142.069 229.906 140.466C232.314 138.863 235.042 139.828 236.645 142.237Z" fill="#0D4286" fill-opacity="0.3"/>
<path d="M245.215 62.1654C244.894 61.6837 245.376 61.3632 245.376 61.3632C245.376 61.3632 246.178 61.5243 246.98 61.6854C246.499 62.006 246.338 62.8083 246.338 62.8083C245.535 62.6471 244.733 62.486 245.215 62.1654Z" fill="#0D4286" fill-opacity="0.3"/>
<path d="M246.392 193.438C248.636 196.81 247.349 201.142 244.138 202.583C241.248 204.507 236.916 203.219 234.672 199.847C233.23 196.637 234.036 192.625 237.247 191.184C240.939 189.421 244.951 190.227 246.392 193.438Z" fill="#0D4286" fill-opacity="0.3"/>
<path d="M278.47 214.486C280.553 218.661 279.266 222.992 275.573 224.755C271.881 226.517 267.067 225.55 264.823 222.178C263.061 218.486 264.028 213.672 267.881 211.108C271.574 209.346 276.226 211.115 278.47 214.486Z" fill="#0D4286" fill-opacity="0.3"/>
<path d="M273.195 188.806C275.439 192.178 274.152 196.51 270.78 198.754C267.408 200.998 263.076 199.71 261.314 196.018C259.552 192.325 260.357 188.314 264.05 186.552C266.94 184.628 271.272 185.916 273.195 188.806Z" fill="#0D4286" fill-opacity="0.3"/>
<path d="M251.988 219.6C253.75 223.293 252.463 227.625 249.091 229.869C245.398 231.631 241.067 230.344 238.823 226.972C237.06 223.279 238.348 218.947 241.72 216.703C245.573 214.139 249.905 215.426 251.988 219.6Z" fill="#0D4286" fill-opacity="0.3"/>
<path d="M230.458 249.914C232.22 253.606 231.254 258.42 227.561 260.182C224.189 262.426 219.055 260.977 217.293 257.285C215.049 253.913 216.497 248.779 220.19 247.017C223.562 244.773 228.375 245.74 230.458 249.914Z" fill="#0D4286" fill-opacity="0.3"/>
<path d="M225.667 223.913C227.429 227.605 226.623 231.616 222.931 233.379C219.559 235.623 215.227 234.335 213.465 230.643C211.702 226.95 212.508 222.939 216.2 221.177C219.572 218.933 223.423 220.541 225.667 223.913Z" fill="#0D4286" fill-opacity="0.3"/>
<path d="M198.863 228.544C200.786 231.434 199.499 235.766 196.288 237.208C193.077 238.65 189.066 237.844 187.624 234.633C186.183 231.423 186.988 227.411 190.199 225.97C193.089 224.046 197.1 224.852 198.863 228.544Z" fill="#0D4286" fill-opacity="0.3"/>
<path d="M133.312 320.124C135.236 323.014 133.948 327.346 130.738 328.788C127.847 330.711 123.515 329.424 121.592 326.534C119.669 323.643 120.956 319.311 124.167 317.87C127.539 315.626 131.871 316.913 133.312 320.124Z" fill="#0D4286" fill-opacity="0.3"/>
<path d="M86.8331 246.106C88.2782 245.144 90.685 245.627 91.165 247.393C92.1267 248.838 91.6433 251.245 90.1982 252.207C88.7531 253.168 86.3463 252.685 85.064 250.758C84.1023 249.313 84.9063 247.388 86.8331 246.106Z" fill="#0D4286" fill-opacity="0.3"/>
<path d="M128.519 294.124C130.443 297.014 129.316 300.544 126.426 302.467C123.536 304.39 120.006 303.264 118.083 300.374C116.16 297.484 117.286 293.954 120.176 292.031C123.066 290.107 126.596 291.234 128.519 294.124Z" fill="#0D4286" fill-opacity="0.3"/>
<path d="M160.115 315.492C162.359 318.864 161.072 323.196 157.7 325.44C154.008 327.202 149.996 326.396 148.234 322.704C145.99 319.332 147.277 315 150.649 312.756C153.539 310.833 157.871 312.12 160.115 315.492Z" fill="#0D4286" fill-opacity="0.3"/>
<path d="M177.013 258.375C178.936 261.265 177.649 265.597 174.759 267.521C171.869 269.444 167.537 268.157 165.613 265.267C163.69 262.376 164.977 258.044 167.868 256.121C171.078 254.679 175.09 255.485 177.013 258.375Z" fill="#0D4286" fill-opacity="0.3"/>
<path d="M181.806 284.377C184.05 287.749 182.762 292.081 179.391 294.325C176.019 296.569 171.687 295.281 169.443 291.91C167.199 288.538 168.968 283.885 171.858 281.962C175.23 279.718 179.562 281.005 181.806 284.377Z" fill="#0D4286" fill-opacity="0.3"/>
<path d="M111.728 221.895C110.283 222.856 108.358 222.052 107.396 220.607C106.434 219.162 106.918 216.755 108.363 215.794C109.808 214.832 112.215 215.315 113.497 217.242C113.977 219.008 113.173 220.933 111.728 221.895Z" fill="#0D4286" fill-opacity="0.3"/>
<path d="M155.323 289.491C157.246 292.382 155.959 296.713 152.587 298.957C149.376 300.399 145.365 299.594 143.923 296.383C142 293.493 143.287 289.161 146.177 287.237C149.067 285.314 153.079 286.119 155.323 289.491Z" fill="#0D4286" fill-opacity="0.3"/>
<path d="M150.53 263.49C152.453 266.38 151.327 269.91 148.437 271.833C145.547 273.757 142.017 272.631 140.094 269.74C138.17 266.85 139.297 263.321 142.187 261.397C145.077 259.474 148.607 260.6 150.53 263.49Z" fill="#0D4286" fill-opacity="0.3"/>
<path d="M203.334 254.064C205.578 257.436 203.809 262.088 200.919 264.012C197.227 265.774 192.895 264.487 191.132 260.794C189.37 257.102 190.176 253.09 193.868 251.328C197.561 249.566 201.893 250.853 203.334 254.064Z" fill="#0D4286" fill-opacity="0.3"/>
<path d="M175.85 307.803C179.543 306.04 184.356 307.007 186.439 311.181C188.522 315.355 187.234 319.687 183.06 321.77C179.368 323.532 174.554 322.566 172.471 318.391C170.709 314.699 172.478 310.047 175.85 307.803Z" fill="#0D4286" fill-opacity="0.3"/>
<path d="M266.529 296.803C268.933 301.459 267.484 306.593 262.828 308.996C258.172 311.4 253.038 309.951 250.153 305.616C247.75 300.96 249.68 295.505 253.534 292.941C258.51 291.019 263.644 292.468 266.529 296.803Z" fill="#0D4286" fill-opacity="0.3"/>
<path d="M201.852 303.009C205.705 300.445 210.839 301.893 213.404 305.747C215.968 309.6 214.52 314.734 210.666 317.299C206.813 319.864 201.679 318.415 199.596 314.241C196.229 310.226 197.677 305.092 201.852 303.009Z" fill="#0D4286" fill-opacity="0.3"/>
<path d="M223.861 272.375C228.035 270.292 232.367 271.579 234.932 275.433C237.015 279.607 236.048 284.421 231.874 286.504C227.699 288.586 222.565 287.138 220.803 283.445C218.239 279.592 219.687 274.458 223.861 272.375Z" fill="#0D4286" fill-opacity="0.3"/>
<path d="M197.86 277.169C201.552 275.407 206.366 276.374 208.448 280.548C210.211 284.24 209.244 289.054 205.07 291.137C200.896 293.22 196.564 291.932 194.801 288.24C192.719 284.066 194.167 278.932 197.86 277.169Z" fill="#0D4286" fill-opacity="0.3"/>
<path d="M239.726 301.434C241.809 305.609 240.681 311.224 236.506 313.307C232.332 315.39 227.198 313.942 224.634 310.088C222.069 306.235 223.679 300.298 227.853 298.215C232.027 296.132 237.643 297.26 239.726 301.434Z" fill="#0D4286" fill-opacity="0.3"/>
<path d="M249.864 267.583C254.038 265.5 259.654 266.628 261.736 270.802C263.819 274.976 262.691 280.592 258.517 282.675C254.343 284.758 248.727 283.63 246.644 279.456C244.08 275.602 245.528 270.468 249.864 267.583Z" fill="#0D4286" fill-opacity="0.3"/>
<path d="M271.713 237.751C275.888 235.668 280.701 236.635 282.784 240.809C285.349 244.663 283.9 249.797 280.046 252.362C275.872 254.444 271.059 253.478 268.174 249.142C266.091 244.968 267.539 239.834 271.713 237.751Z" fill="#0D4286" fill-opacity="0.3"/>
<path d="M245.872 241.742C250.046 239.659 254.378 240.946 256.942 244.8C259.025 248.974 258.059 253.788 253.884 255.871C249.71 257.953 245.378 256.666 242.814 252.812C240.57 249.441 242.018 244.306 245.872 241.742Z" fill="#0D4286" fill-opacity="0.3"/>
</g>
<defs>
<clipPath id="clip0_414_18808">
<rect width="267" height="315" fill="white"/>
</clipPath>
</defs>
</svg>
