<svg width="72" height="47" viewBox="0 0 72 47" fill="none" xmlns="http://www.w3.org/2000/svg">
<g id="Group">
<g id="Group_2">
<path id="Vector" d="M24.0532 38.6588H26.5095V42.1715H21.5968V38.6588H24.0532Z" fill="#706E6F"/>
<path id="Vector_2" d="M24.0532 43.396C22.6966 43.396 21.5968 42.8477 21.5968 42.1714C21.5968 41.4951 22.6966 40.9468 24.0532 40.9468C25.4098 40.9468 26.5095 41.4951 26.5095 42.1714C26.5095 42.8477 25.4098 43.396 24.0532 43.396Z" fill="#706E6F"/>
<path id="Vector_3" d="M24.0533 39.8833C22.6967 39.8833 21.5969 39.335 21.5969 38.6587C21.5969 37.9824 22.6967 37.4341 24.0533 37.4341C25.4099 37.4341 26.5096 37.9824 26.5096 38.6587C26.5096 39.335 25.4099 39.8833 24.0533 39.8833Z" fill="#8C8C8C"/>
</g>
<g id="Group_3">
<path id="Vector_4" d="M0.000127792 40.3666L1.56326 41.0756L14.0684 17.0345L12.4733 16.3578L0.000127792 22.6742V40.3666Z" fill="#E0E0E0"/>
<path id="Vector_5" d="M1.56339 41.0756L14.0685 34.7592V17.0345L1.56339 23.351V41.0756Z" fill="#BABABA"/>
<path id="Vector_6" d="M1.56335 23.351L0.000219345 22.6742V40.3666L1.56335 41.0756V23.351Z" fill="#6F6F71"/>
</g>
<g id="Group_4">
<path id="Vector_7" d="M4.43471 36.4994L6.60396 37.6273L19.8428 39.1098V35.2426L4.43471 27.2826V36.4994Z" fill="#6F6F71"/>
<path id="Vector_8" d="M25.8398 32.2133L19.8425 35.2426L4.43443 27.2826L10.4318 24.2533L25.8398 32.2133Z" fill="#E0E0E0"/>
<path id="Vector_9" d="M25.8398 36.1127L19.8425 39.1098V35.2426L25.8398 32.2133V36.1127Z" fill="#8C8C8C"/>
</g>
<g id="Group_5">
<g id="Group_6">
<path id="Vector_10" d="M15.2167 29.6674C14.1959 30.183 12.5371 30.183 11.5163 29.6674L9.63411 28.7328C8.61329 28.2172 8.61329 27.3793 9.63411 26.8636C10.6549 26.348 12.3138 26.348 13.3346 26.8636L15.2167 27.7982C16.2376 28.3461 16.2376 29.184 15.2167 29.6674Z" fill="#525F70"/>
<path id="Vector_11" d="M15.2168 29.4418C14.196 29.9574 12.5371 29.9574 11.5163 29.4418L9.63417 28.5072C8.61335 27.9916 8.61335 27.1537 9.63417 26.6381C10.655 26.1224 12.3138 26.1224 13.3347 26.6381L15.2168 27.5726C16.2376 28.0883 16.2376 28.9262 15.2168 29.4418Z" fill="#A6A1A2"/>
</g>
<g id="Group_7">
<path id="Vector_12" d="M12.4413 28.8617C11.4371 28.8617 10.623 28.4433 10.623 27.9271C10.623 27.411 11.4371 26.9926 12.4413 26.9926C13.4455 26.9926 14.2596 27.411 14.2596 27.9271C14.2596 28.4433 13.4455 28.8617 12.4413 28.8617Z" fill="#525F70"/>
<path id="Vector_13" d="M12.4414 28.6683C11.4371 28.6683 10.623 28.2499 10.623 27.7338C10.623 27.2176 11.4371 26.7992 12.4414 26.7992C13.4456 26.7992 14.2597 27.2176 14.2597 27.7338C14.2597 28.2499 13.4456 28.6683 12.4414 28.6683Z" fill="#CAC8C9"/>
</g>
</g>
<g id="Group_8">
<path id="Vector_14" d="M24.0531 32.2133H28.8701V39.1098H19.2361V32.2133H24.0531Z" fill="#6F6F71"/>
<path id="Vector_15" d="M24.0531 41.5267C21.3927 41.5267 19.2361 40.4446 19.2361 39.1097C19.2361 37.7749 21.3927 36.6927 24.0531 36.6927C26.7135 36.6927 28.8701 37.7749 28.8701 39.1097C28.8701 40.4446 26.7135 41.5267 24.0531 41.5267Z" fill="#6F6F71"/>
<path id="Vector_16" d="M24.0531 34.6303C21.3927 34.6303 19.2361 33.5481 19.2361 32.2133C19.2361 30.8784 21.3927 29.7963 24.0531 29.7963C26.7135 29.7963 28.8701 30.8784 28.8701 32.2133C28.8701 33.5481 26.7135 34.6303 24.0531 34.6303Z" fill="#E0E0E0"/>
</g>
<g id="Group_9">
<path id="Vector_17" d="M24.0525 21.3851H27.115V31.9555H20.99V21.3851H24.0525Z" fill="#706E6F"/>
<path id="Vector_18" d="M24.0525 33.5023C22.3612 33.5023 20.99 32.8098 20.99 31.9554C20.99 31.1011 22.3612 30.4086 24.0525 30.4086C25.7439 30.4086 27.115 31.1011 27.115 31.9554C27.115 32.8098 25.7439 33.5023 24.0525 33.5023Z" fill="#706E6F"/>
<path id="Vector_19" d="M24.0528 22.932C22.3614 22.932 20.9903 22.2394 20.9903 21.3851C20.9903 20.5308 22.3614 19.8383 24.0528 19.8383C25.7441 19.8383 27.1152 20.5308 27.1152 21.3851C27.1152 22.2394 25.7441 22.932 24.0528 22.932Z" fill="#8C8C8C"/>
</g>
<g id="Group_10">
<path id="Vector_20" d="M69.7347 35.3394L56.9425 27.7661L68.2354 25.4136L71.0107 27.7983L69.7347 35.3394Z" fill="white"/>
<g id="Group_11">
<g id="Group_12">
<g id="Group_13">
<path id="Vector_21" d="M57.9622 41.4946C57.9622 41.5269 57.9941 41.5591 57.9941 41.5913C57.8346 41.4946 57.6751 41.3657 57.5475 41.2368L57.9622 41.4946Z" fill="#A6A6A6"/>
<g id="Group_14">
<path id="Vector_22" d="M18.445 20.1497C15.8751 17.5608 17.2004 12.0088 21.4052 7.74903C25.61 3.48923 31.102 2.13468 33.672 4.72356C36.242 7.31243 34.9166 12.8644 30.7118 17.1242C26.507 21.384 21.015 22.7385 18.445 20.1497Z" fill="#18293B"/>
<path id="Vector_23" d="M64.5975 25.3814L33.0477 4.2085L19.0752 20.6441L50.7526 41.8814L64.5975 25.3814Z" fill="#001A36"/>
<path id="Vector_24" d="M50.1322 41.4018C47.5623 38.813 48.8876 33.261 53.0924 29.0012C57.2972 24.7414 62.7892 23.3869 65.3592 25.9758C67.9292 28.5646 66.6038 34.1166 62.399 38.3764C58.1942 42.6362 52.7022 43.9907 50.1322 41.4018Z" fill="#BDC1C4"/>
<path id="Vector_25" d="M50.6951 40.8313C48.3123 38.431 49.5371 33.2872 53.431 29.3425C57.3248 25.3978 62.413 24.1458 64.7958 26.5462C67.1786 28.9466 65.9537 34.0903 62.0599 38.035C58.1661 41.9797 53.0779 43.2317 50.6951 40.8313Z" fill="#353130"/>
<path id="Vector_26" d="M51.5516 39.9643C49.4557 37.8529 50.53 33.3318 53.9511 29.866C57.3721 26.4002 61.8445 25.3021 63.9404 27.4135C66.0363 29.5248 64.962 34.0459 61.5409 37.5117C58.1199 40.9775 53.6475 42.0756 51.5516 39.9643Z" fill="#605A5A"/>
<path id="Vector_27" d="M52.6209 38.504C50.9616 36.8325 51.8251 33.2401 54.5496 30.48C57.274 27.72 60.8276 26.8375 62.4869 28.509C64.1461 30.1804 63.2826 33.7729 60.5582 36.5329C57.8338 39.293 54.2801 40.1754 52.6209 38.504Z" fill="#494343"/>
<path id="Vector_28" d="M54.243 36.8606C53.1327 35.7422 53.715 33.3336 55.5438 31.4809C57.3725 29.6283 59.7551 29.0332 60.8654 30.1517C61.9757 31.2702 61.3933 33.6787 59.5646 35.5314C57.7359 37.384 55.3533 37.9791 54.243 36.8606Z" fill="#1F1B1C"/>
<path id="Vector_29" d="M56.0892 34.9895C55.6027 34.4994 55.8638 33.438 56.6724 32.6188C57.481 31.7996 58.5309 31.5328 59.0175 32.0229C59.504 32.5131 59.2429 33.5745 58.4343 34.3937C57.6257 35.2129 56.5757 35.4796 56.0892 34.9895Z" fill="#B6BABD"/>
</g>
</g>
</g>
</g>
<path id="Vector_30" d="M53.5933 35.2105L60.101 27.5083L68.3633 24.5435L72 26.9605L71.043 34.856L69.735 35.3394L70.6283 27.9595L67.6615 25.9937L60.5157 28.5718L54.8374 35.2427L54.1037 41.3013L52.7957 41.7847L53.5933 35.2105Z" fill="#6A7D8B"/>
<path id="Vector_31" d="M52.7953 41.7846L16.6836 17.7758L17.4492 11.2015L53.5928 35.2104L52.7953 41.7846Z" fill="#0D4286"/>
<path id="Vector_32" d="M60.1016 27.5083L53.5938 35.2105L17.4503 11.2017L23.9899 3.49951L60.1016 27.5083Z" fill="#FFCA40"/>
<path id="Vector_33" d="M68.3634 24.5434L32.2517 0.534546L23.9894 3.49939L60.1011 27.5082L68.3634 24.5434Z" fill="#0D4286"/>
</g>
</g>
</svg>
