<svg width="105" height="62" viewBox="0 0 105 62" fill="none" xmlns="http://www.w3.org/2000/svg">
<g id="Frame" clip-path="url(#clip0_1_105235)">
<g id="Group">
<g id="Group_2">
<path id="Vector" d="M35.078 55.106H38.6602V60.1833H31.4958V55.106H35.078Z" fill="#706E6F"/>
<path id="Vector_2" d="M35.078 61.9534C33.0996 61.9534 31.4958 61.1609 31.4958 60.1833C31.4958 59.2057 33.0996 58.4132 35.078 58.4132C37.0564 58.4132 38.6602 59.2057 38.6602 60.1833C38.6602 61.1609 37.0564 61.9534 35.078 61.9534Z" fill="#706E6F"/>
<path id="Vector_3" d="M35.078 56.876C33.0996 56.876 31.4958 56.0835 31.4958 55.1059C31.4958 54.1283 33.0996 53.3358 35.078 53.3358C37.0564 53.3358 38.6602 54.1283 38.6602 55.1059C38.6602 56.0835 37.0564 56.876 35.078 56.876Z" fill="#8C8C8C"/>
</g>
<g id="Group_3">
<path id="Vector_4" d="M0.000432968 57.5748L2.28 58.5996L20.5166 23.8498L18.1905 22.8716L0.000432968 32.0016V57.5748Z" fill="#E0E0E0"/>
<path id="Vector_5" d="M2.28001 58.5997L20.5166 49.4697V23.8499L2.28001 32.9798V58.5997Z" fill="#BABABA"/>
<path id="Vector_6" d="M2.28027 32.9798L0.000701666 32.0016V57.5748L2.28027 58.5996V32.9798Z" fill="#6F6F71"/>
</g>
<g id="Group_4">
<path id="Vector_7" d="M6.46643 51.985L9.62992 53.6154L28.9365 55.7581V50.1684L6.46643 38.6627V51.985Z" fill="#6F6F71"/>
<path id="Vector_8" d="M37.6826 45.7897L28.9365 50.1684L6.4664 38.6627L15.2125 34.2841L37.6826 45.7897Z" fill="#E0E0E0"/>
<path id="Vector_9" d="M37.6826 51.426L28.9365 55.7581V50.1683L37.6826 45.7897V51.426Z" fill="#8C8C8C"/>
</g>
<g id="Group_5">
<g id="Group_6">
<path id="Vector_10" d="M22.1911 42.1097C20.7024 42.855 18.2832 42.855 16.7945 42.1097L14.0498 40.7589C12.5611 40.0136 12.5611 38.8025 14.0498 38.0571C15.5385 37.3118 17.9576 37.3118 19.4463 38.0571L22.1911 39.408C23.6798 40.1999 23.6798 41.411 22.1911 42.1097Z" fill="#525F70"/>
<path id="Vector_11" d="M22.1911 41.7837C20.7024 42.529 18.2832 42.529 16.7945 41.7837L14.0498 40.4328C12.5611 39.6875 12.5611 38.4764 14.0498 37.7311C15.5385 36.9858 17.9576 36.9858 19.4463 37.7311L22.1911 39.082C23.6798 39.8273 23.6798 41.0384 22.1911 41.7837Z" fill="#A6A1A2"/>
</g>
<g id="Group_7">
<path id="Vector_12" d="M18.1441 40.9453C16.6796 40.9453 15.4924 40.3405 15.4924 39.5944C15.4924 38.8483 16.6796 38.2435 18.1441 38.2435C19.6087 38.2435 20.7959 38.8483 20.7959 39.5944C20.7959 40.3405 19.6087 40.9453 18.1441 40.9453Z" fill="#525F70"/>
<path id="Vector_13" d="M18.1441 40.6657C16.6796 40.6657 15.4924 40.0609 15.4924 39.3149C15.4924 38.5688 16.6796 37.964 18.1441 37.964C19.6087 37.964 20.7959 38.5688 20.7959 39.3149C20.7959 40.0609 19.6087 40.6657 18.1441 40.6657Z" fill="#CAC8C9"/>
</g>
</g>
<g id="Group_8">
<path id="Vector_14" d="M35.0777 45.7897H42.1025V55.7581H28.0529V45.7897H35.0777Z" fill="#6F6F71"/>
<path id="Vector_15" d="M35.0777 59.2516C31.198 59.2516 28.0529 57.6875 28.0529 55.758C28.0529 53.8285 31.198 52.2644 35.0777 52.2644C38.9574 52.2644 42.1025 53.8285 42.1025 55.758C42.1025 57.6875 38.9574 59.2516 35.0777 59.2516Z" fill="#6F6F71"/>
<path id="Vector_16" d="M35.0777 49.2832C31.198 49.2832 28.0529 47.7191 28.0529 45.7896C28.0529 43.8602 31.198 42.296 35.0777 42.296C38.9574 42.296 42.1025 43.8602 42.1025 45.7896C42.1025 47.7191 38.9574 49.2832 35.0777 49.2832Z" fill="#E0E0E0"/>
</g>
<g id="Group_9">
<path id="Vector_17" d="M35.0778 30.1383H39.5439V45.417H30.6117V30.1383H35.0778Z" fill="#706E6F"/>
<path id="Vector_18" d="M35.0778 47.6529C32.6113 47.6529 30.6117 46.6518 30.6117 45.4169C30.6117 44.1821 32.6113 43.181 35.0778 43.181C37.5444 43.181 39.5439 44.1821 39.5439 45.4169C39.5439 46.6518 37.5444 47.6529 35.0778 47.6529Z" fill="#706E6F"/>
<path id="Vector_19" d="M35.0778 32.3742C32.6113 32.3742 30.6117 31.3731 30.6117 30.1383C30.6117 28.9034 32.6113 27.9023 35.0778 27.9023C37.5444 27.9023 39.5439 28.9034 39.5439 30.1383C39.5439 31.3731 37.5444 32.3742 35.0778 32.3742Z" fill="#8C8C8C"/>
</g>
<g id="Group_10">
<path id="Vector_20" d="M101.697 50.308L83.0414 39.3614L99.5102 35.9609L103.558 39.408L101.697 50.308Z" fill="#43545E"/>
<g id="Group_11">
<g id="Group_12">
<g id="Group_13">
<path id="Vector_21" d="M84.5306 59.2052C84.5306 59.2518 84.5771 59.2983 84.5771 59.3449C84.3445 59.2052 84.1119 59.0188 83.9258 58.8325L84.5306 59.2052Z" fill="#A6A6A6"/>
<g id="Group_14">
<path id="Vector_22" d="M26.9005 28.3523C23.1526 24.6102 25.0854 16.5853 31.2174 10.428C37.3494 4.27072 45.3586 2.3128 49.1065 6.05486C52.8543 9.79691 50.9216 17.8219 44.7896 23.9792C38.6575 30.1364 30.6483 32.0943 26.9005 28.3523Z" fill="#18293B"/>
<path id="Vector_23" d="M94.207 35.9144L48.1968 5.3103L27.8202 29.0669L74.0165 59.7641L94.207 35.9144Z" fill="#001A36"/>
<path id="Vector_24" d="M73.1114 59.0709C69.3636 55.3289 71.2963 47.3039 77.4283 41.1466C83.5603 34.9893 91.5696 33.0314 95.3174 36.7735C99.0653 40.5155 97.1325 48.5405 91.0005 54.6978C84.8685 60.8551 76.8593 62.813 73.1114 59.0709Z" fill="#BDC1C4"/>
<path id="Vector_25" d="M73.9326 58.2462C70.4576 54.7767 72.2439 47.3418 77.9224 41.6399C83.6009 35.9381 91.0212 34.1285 94.4961 37.598C97.9711 41.0676 96.1848 48.5025 90.5063 54.2044C84.8278 59.9062 77.4075 61.7158 73.9326 58.2462Z" fill="#353130"/>
<path id="Vector_26" d="M75.1809 56.993C72.1244 53.9412 73.6911 47.4062 78.6801 42.3966C83.6692 37.387 90.1914 35.7998 93.2479 38.8516C96.3044 41.9034 94.7378 48.4384 89.7487 53.448C84.7596 58.4576 78.2374 60.0448 75.1809 56.993Z" fill="#605A5A"/>
<path id="Vector_27" d="M76.7415 54.8822C74.3218 52.4662 75.581 47.2736 79.5542 43.2841C83.5273 39.2946 88.7097 38.0191 91.1294 40.435C93.5492 42.851 92.2899 48.0437 88.3168 52.0331C84.3437 56.0226 79.1612 57.2982 76.7415 54.8822Z" fill="#494343"/>
<path id="Vector_28" d="M79.1058 52.5068C77.4866 50.8901 78.3359 47.4086 81.0028 44.7308C83.6697 42.0529 87.1442 41.1927 88.7635 42.8094C90.3827 44.4261 89.5334 47.9075 86.8665 50.5854C84.1996 53.2633 80.725 54.1235 79.1058 52.5068Z" fill="#1F1B1C"/>
<path id="Vector_29" d="M81.8003 49.8023C81.0908 49.0939 81.4715 47.5597 82.6508 46.3756C83.83 45.1915 85.3612 44.8059 86.0707 45.5144C86.7803 46.2228 86.3995 47.757 85.2203 48.9411C84.041 50.1252 82.5099 50.5108 81.8003 49.8023Z" fill="#B6BABD"/>
</g>
</g>
</g>
</g>
<path id="Vector_30" d="M78.1568 50.1217L87.6473 38.9887L99.6965 34.7032L105 38.1969L103.604 49.6093L101.697 50.3081L103 39.6409L98.673 36.7994L88.2521 40.5259L79.9712 50.1683L78.9012 58.9256L76.9938 59.6244L78.1568 50.1217Z" fill="#6A7D8B"/>
<path id="Vector_31" d="M76.9942 59.6243L24.3314 24.9211L25.4479 15.4185L78.1572 50.1217L76.9942 59.6243Z" fill="#43545E"/>
<path id="Vector_32" d="M87.6475 38.9888L78.157 50.1217L25.4476 15.4185L34.9846 4.28552L87.6475 38.9888Z" fill="#576E7A"/>
<path id="Vector_33" d="M99.6963 34.7032L47.0335 0L34.9843 4.2855L87.6471 38.9887L99.6963 34.7032Z" fill="#43545E"/>
</g>
</g>
</g>
<defs>
<clipPath id="clip0_1_105235">
<rect width="105" height="62" fill="white" transform="matrix(-1 0 0 1 105 0)"/>
</clipPath>
</defs>
</svg>
